<svg width="195" height="92" viewBox="0 0 195 92" fill="none" xmlns="http://www.w3.org/2000/svg">
<path d="M32.7384 50.3083H25.3423L23.1757 55.0913H20L29.0344 35.7761L38.0629 55.0913H34.8397L32.7384 50.3083ZM31.664 47.7897L29.7645 43.5507C29.4827 42.8654 29.2468 42.1622 29.0581 41.4459C28.8865 42.1643 28.6582 42.868 28.3755 43.5507L26.476 47.7897H31.664Z" fill="white"/>
<path d="M42.4199 36.5214H45.4472V44.2072L52.1548 36.5214H55.8647L48.4923 44.7984L56.7669 55.1152H52.8552L45.465 45.6557V55.1152H42.4377L42.4199 36.5214Z" fill="white"/>
<path d="M61.2139 36.5212H71.6432V39.099H64.2412V43.7459H71.6432V46.4005H64.2412V52.4014H71.6432V55.1092H61.2139V36.5212Z" fill="white"/>
<path d="M80.5474 55.0916H77.7041V36.5214H81.9304C83.9427 36.5214 85.4267 36.681 86.5782 37.5619C87.1672 38.0634 87.6337 38.6919 87.9422 39.3998C88.2508 40.1077 88.3933 40.8763 88.359 41.6472C88.359 44.6033 86.8928 46.3238 84.0792 46.6608L90.5018 55.1093H87.0828L80.9035 46.7731H80.5474V55.0916ZM81.2775 44.4496C83.9368 44.4496 85.2723 44.1422 85.2723 41.9015C85.2723 39.6607 83.9961 39.1227 81.2775 39.1227H80.7314V44.4437L81.2775 44.4496Z" fill="white"/>
<path d="M92.5439 36.5214H95.7018L99.8569 46.4302C100.284 47.3808 100.616 48.371 100.848 49.3863C101.105 48.375 101.445 47.3864 101.863 46.4302L106.072 36.5214H109.206L100.896 55.8424L92.5439 36.5214Z" fill="white"/>
<path d="M123.409 50.3083H116.019L113.858 55.0913H110.671L119.723 35.7761L128.752 55.0913H125.54L123.409 50.3083ZM122.335 47.7897L120.429 43.5507C120.15 42.8644 119.914 42.1614 119.723 41.4459C119.553 42.164 119.327 42.8677 119.046 43.5507L117.141 47.7897H122.335Z" fill="white"/>
<path d="M158.021 50.5152V46.9147L158.057 46.8792L161.707 50.5152H164.907L159.654 45.2888L164.076 40.8842H160.876L158.021 43.728V39.0574L155.772 41.3336L146.44 50.6275L149.646 50.6157L155.76 44.5321V50.5152H158.021Z" fill="white"/>
<path d="M145.779 52.484C144.294 50.1332 143.655 47.3495 143.966 44.5893C144.277 41.829 145.52 39.2558 147.491 37.2914C149.463 35.327 152.046 34.0879 154.817 33.7772C157.588 33.4664 160.383 34.1024 162.744 35.581L166.899 31.4425C163.412 28.9199 159.137 27.719 154.84 28.0555C150.544 28.3921 146.509 30.2441 143.461 33.2785C140.413 36.313 138.552 40.3309 138.212 44.6099C137.872 48.8889 139.076 53.1484 141.607 56.6225L145.779 52.484Z" fill="white"/>
<path d="M170.98 35.5398L166.795 39.6783C168.208 42.0211 168.793 44.767 168.458 47.4792C168.124 50.1914 166.888 52.7143 164.948 54.6466C163.008 56.5789 160.475 57.8096 157.752 58.143C155.029 58.4765 152.272 57.8935 149.92 56.4867L145.765 60.6548C149.251 63.1289 153.505 64.292 157.771 63.9376C162.037 63.5831 166.039 61.734 169.066 58.7187C172.092 55.7034 173.948 51.7172 174.303 47.4681C174.658 43.219 173.489 38.9822 171.004 35.5103L170.98 35.5398Z" fill="white"/>
</svg>
