<svg width="195" height="92" viewBox="0 0 195 92" fill="none" xmlns="http://www.w3.org/2000/svg">
<g clip-path="url(#clip0_11365_28979)">
<path d="M32.8 53.2501V50.4901C32.8 47.8101 31.69 45.7801 28.64 45.1301C31.56 44.6101 32.63 42.4901 32.63 39.7701V37.7001C32.63 33.5901 30.1 31.0901 25.46 31.0901H15V59.8601H25.59C30.22 59.8601 32.79 57.4001 32.79 53.2501H32.8ZM21.18 35.9301H24.61C26.2 35.9301 26.8 36.8401 26.8 38.2601V40.7701C26.8 42.4501 25.94 43.2801 24.36 43.2801H21.19V35.9301H21.18ZM21.18 55.0201V47.5501H24.48C26.07 47.5501 26.92 48.4101 26.92 50.1001V52.7401C26.92 54.1701 26.32 55.0301 24.73 55.0301H21.17L21.18 55.0201Z" fill="white"/>
<path d="M61.5499 38.74C57.1299 38.74 54.1699 41.59 54.1699 46.17V52.87C54.1699 57.49 57.1299 60.21 61.5499 60.21C65.9699 60.21 68.8399 57.49 68.8399 52.87V46.17C68.8399 41.59 65.8799 38.74 61.5499 38.74ZM63.8199 53.82C63.8199 55.29 62.9199 56.28 61.5499 56.28C60.0899 56.28 59.2299 55.29 59.2299 53.82V45.17C59.2299 43.7 60.0899 42.71 61.5499 42.71C62.9199 42.71 63.8199 43.7 63.8199 45.17V53.81V53.82Z" fill="white"/>
<path d="M72.3999 57.2701V59.8601H85.6999V55.4101H78.1499L85.9499 41.7201V39.1201H72.3999V43.4001H80.3299L72.3999 57.2701Z" fill="white"/>
<path d="M105.5 31L98.8101 59.77H104.56L105.76 54.07H111.68L112.88 59.77H119.01L112.36 31H105.5ZM106.66 49.49L108.85 38.99L110.87 49.49H106.67H106.66Z" fill="white"/>
<path d="M136.73 31H131.5V59.77H136.73V31Z" fill="white"/>
<path d="M148.39 38.6499C143.97 38.6499 140.98 41.5899 140.98 45.9099V52.9099C140.98 57.2299 143.97 60.1199 148.39 60.1199C152.81 60.1199 155.63 57.2699 155.63 52.9499V52.2199H150.86V53.7299C150.86 55.1999 150.08 56.1899 148.43 56.1899C146.87 56.1899 146.09 55.1999 146.09 53.7299V49.7599H155.62V45.9199C155.62 41.5999 152.85 38.6599 148.38 38.6599L148.39 38.6499ZM150.73 47.6799H146.09V45.0399C146.09 43.5699 146.96 42.5799 148.39 42.5799C149.82 42.5799 150.73 43.5699 150.73 45.0399V47.6799Z" fill="white"/>
<path d="M180.29 57.18C180.19 56.96 180.06 56.76 179.89 56.59C179.72 56.42 179.53 56.29 179.3 56.19C179.08 56.09 178.84 56.04 178.58 56.04C178.32 56.04 178.08 56.09 177.86 56.19C177.64 56.29 177.44 56.42 177.27 56.59C177.1 56.76 176.97 56.95 176.87 57.18C176.77 57.41 176.72 57.65 176.72 57.9C176.72 58.15 176.77 58.4 176.87 58.63C176.97 58.86 177.1 59.05 177.27 59.22C177.44 59.39 177.63 59.52 177.86 59.62C178.09 59.72 178.33 59.77 178.58 59.77C178.83 59.77 179.07 59.72 179.3 59.62C179.52 59.52 179.72 59.39 179.89 59.22C180.06 59.05 180.19 58.85 180.29 58.63C180.39 58.4 180.44 58.16 180.44 57.9C180.44 57.64 180.39 57.4 180.29 57.18ZM180.03 58.52C179.95 58.71 179.84 58.88 179.7 59.02C179.56 59.16 179.39 59.28 179.2 59.36C179.01 59.44 178.81 59.48 178.59 59.48C178.37 59.48 178.17 59.44 177.98 59.36C177.79 59.28 177.62 59.17 177.48 59.02C177.34 58.88 177.23 58.71 177.14 58.52C177.06 58.33 177.02 58.13 177.02 57.91C177.02 57.69 177.06 57.49 177.14 57.3C177.22 57.11 177.33 56.94 177.48 56.8C177.62 56.66 177.79 56.55 177.98 56.46C178.17 56.38 178.37 56.34 178.59 56.34C178.81 56.34 179.01 56.38 179.2 56.46C179.39 56.54 179.55 56.65 179.7 56.8C179.84 56.94 179.95 57.11 180.03 57.3C180.11 57.49 180.15 57.7 180.15 57.91C180.15 58.12 180.11 58.33 180.03 58.52Z" fill="white"/>
<path d="M179.22 57.8801C179.32 57.7701 179.37 57.6301 179.37 57.4501C179.37 57.2401 179.31 57.0801 179.18 56.9901C179.05 56.8901 178.85 56.8501 178.57 56.8501H177.8V58.9901H178.17V58.1001H178.39L179.04 58.9901H179.5L178.79 58.0801C178.97 58.0601 179.11 58.0001 179.21 57.8901L179.22 57.8801ZM178.18 57.8401V57.1301H178.52C178.61 57.1301 178.68 57.1301 178.74 57.1401C178.8 57.1401 178.84 57.1601 178.88 57.1801C178.92 57.2001 178.95 57.2401 178.98 57.2901C179 57.3401 179.02 57.4001 179.02 57.4601C179.02 57.7201 178.86 57.8501 178.53 57.8501H178.19L178.18 57.8401Z" fill="white"/>
<path d="M50.7501 52.86V46.16C50.7501 41.58 47.7901 38.73 43.4601 38.73C39.1301 38.73 36.0801 41.58 36.0801 46.16V52.86C36.0801 57.48 39.0401 60.2 43.4601 60.2C47.8801 60.2 50.7501 57.48 50.7501 52.86ZM45.7301 53.81C45.7301 55.28 44.8301 56.27 43.4601 56.27C42.0001 56.27 41.1401 55.28 41.1401 53.81V45.17C41.1401 43.7 42.0001 42.71 43.4601 42.71C44.8301 42.71 45.7301 43.7 45.7301 45.17V53.81Z" fill="white"/>
<path d="M127.28 31H122.05V59.77H127.28V31Z" fill="white"/>
<path d="M169.86 38.6899C167.91 38.6899 166.17 39.4599 165.1 41.5199V39.0399H159.87V59.7699H165.1V45.0399C165.1 43.5699 165.96 42.5799 167.37 42.5799C168.78 42.5799 169.69 43.5699 169.69 45.0399V59.7699H174.92V44.4399C174.92 40.9799 173.2 38.6899 169.86 38.6899ZM164.63 42.6199V42.6099C164.63 42.6099 164.63 42.6099 164.63 42.6199Z" fill="white"/>
</g>
<defs>
<clipPath id="clip0_11365_28979">
<rect width="165.43" height="29.21" fill="white" transform="translate(15 31)"/>
</clipPath>
</defs>
</svg>
