<svg width="216" height="180" viewBox="0 0 216 180" fill="none" xmlns="http://www.w3.org/2000/svg">
<path d="M79.7301 107.79C77.8418 108.33 75.9213 108.751 73.9801 109.05C71.569 109.432 69.1312 109.619 66.6901 109.61C64.2835 109.652 61.8899 109.249 59.6301 108.42C57.6248 107.673 55.8037 106.503 54.2901 104.99C52.7937 103.446 51.6417 101.602 50.9101 99.58C50.0997 97.288 49.7003 94.8709 49.7301 92.44C49.707 90.0465 50.0441 87.6632 50.7301 85.37C51.3176 83.3787 52.3043 81.5278 53.6301 79.93C54.8946 78.4282 56.4849 77.2346 58.2801 76.44C60.2729 75.5889 62.4235 75.1697 64.5901 75.21C66.0304 75.1887 67.466 75.3807 68.8501 75.78C69.9356 76.0884 70.9901 76.4968 72.0001 77V61.26L79.7001 60L79.7301 107.79ZM57.6401 92.26C57.6401 95.61 58.4401 98.26 60.0601 100.15C60.8802 101.101 61.9061 101.853 63.0601 102.348C64.214 102.844 65.4657 103.07 66.7201 103.01C67.7723 103.017 68.824 102.964 69.8701 102.85C70.5901 102.78 71.3001 102.66 72.0101 102.52V83.62C71.163 83.0806 70.2528 82.6474 69.3001 82.33C68.1442 81.9376 66.9307 81.7415 65.7101 81.75C62.9101 81.75 60.8601 82.75 59.5701 84.58C58.1607 86.8842 57.4874 89.5633 57.6401 92.26V92.26Z" fill="#A4B1CD"/>
<path d="M83.2 92.46C83.144 89.8604 83.5853 87.274 84.5001 84.84C85.283 82.8008 86.474 80.9429 88.0001 79.38C89.4056 77.9562 91.091 76.8394 92.95 76.1C94.7774 75.3764 96.7246 75.0032 98.6901 75C103.257 75 106.823 76.4067 109.39 79.22C111.957 82.0333 113.237 86.2367 113.23 91.83V93.25C113.23 93.78 113.23 94.25 113.14 94.67H91.15C91.1842 95.8312 91.4525 96.9736 91.9388 98.0287C92.425 99.0837 93.1193 100.03 93.98 100.81C95.6534 102.263 98.0767 102.99 101.25 102.99C102.967 103.001 104.679 102.83 106.36 102.48C107.611 102.238 108.836 101.88 110.02 101.41L111.02 107.65C110.455 107.917 109.869 108.141 109.27 108.32C108.437 108.58 107.589 108.791 106.73 108.95C105.73 109.14 104.73 109.3 103.65 109.42C102.528 109.552 101.4 109.618 100.27 109.62C97.6707 109.673 95.0848 109.232 92.65 108.32C90.6191 107.553 88.7943 106.324 87.3201 104.73C85.8978 103.161 84.8333 101.301 84.2 99.28C83.5038 97.0749 83.1662 94.7722 83.2 92.46V92.46ZM105.48 89.06C105.49 88.0432 105.341 87.0312 105.04 86.06C104.771 85.1662 104.329 84.3338 103.74 83.61C103.172 82.9128 102.454 82.3524 101.64 81.97C100.715 81.5488 99.7062 81.3436 98.6901 81.37C97.6118 81.3446 96.5428 81.5742 95.5701 82.04C94.7071 82.4529 93.9379 83.0383 93.3101 83.76C92.689 84.4928 92.2077 85.3334 91.8901 86.24C91.5513 87.1541 91.3165 88.1034 91.1901 89.07L105.48 89.06Z" fill="#A4B1CD"/>
<path d="M147.779 85.0001C147.068 82.9823 145.919 81.1469 144.415 79.6254C142.911 78.104 141.089 76.9343 139.079 76.2001C136.811 75.3763 134.413 74.9697 131.999 75.0001C129.568 74.9915 127.14 75.1788 124.739 75.5601C122.439 75.9401 120.506 76.3368 118.939 76.7501V120H126.649V107.29C127.686 107.821 128.775 108.244 129.899 108.55C131.311 108.932 132.767 109.121 134.229 109.11C136.385 109.141 138.523 108.711 140.499 107.85C142.293 107.063 143.876 105.864 145.119 104.35C146.411 102.766 147.388 100.95 147.999 99.0001C148.68 96.7675 149.018 94.4442 148.999 92.1101C149.023 89.6861 148.61 87.2777 147.779 85.0001V85.0001ZM139.119 99.8001C137.826 101.667 135.776 102.603 132.969 102.61C131.748 102.62 130.534 102.42 129.379 102.02C128.429 101.702 127.519 101.272 126.669 100.74V82.0001C127.431 81.7917 128.212 81.6578 128.999 81.6001C129.779 81.5301 130.539 81.5001 131.259 81.5001C134.699 81.5001 137.196 82.4401 138.749 84.3201C140.303 86.2001 141.076 88.8301 141.069 92.2101C141.203 94.8761 140.523 97.5197 139.119 99.7901V99.8001Z" fill="#A4B1CD"/>
<path d="M152.429 67L160.089 65.73V75.73H171.849V82.11H160.089V95.61C160.089 98.2766 160.512 100.18 161.359 101.32C162.199 102.47 163.639 103.04 165.659 103.03C166.906 103.049 168.15 102.901 169.359 102.59C170.229 102.362 171.087 102.088 171.929 101.77L173.189 107.84C172.055 108.304 170.893 108.695 169.709 109.01C168.057 109.439 166.355 109.641 164.649 109.61C162.634 109.67 160.626 109.352 158.729 108.67C157.244 108.11 155.941 107.156 154.959 105.91C153.975 104.624 153.291 103.134 152.959 101.55C152.551 99.6271 152.357 97.6653 152.379 95.7L152.429 67Z" fill="#A4B1CD"/>
<path d="M186.999 67.0001C187.033 67.6316 186.928 68.2627 186.694 68.8498C186.459 69.4369 186.099 69.9659 185.639 70.4001C184.777 71.2259 183.623 71.6786 182.429 71.6601C181.21 71.689 180.028 71.2363 179.139 70.4001C178.681 69.9647 178.323 69.4355 178.088 68.8487C177.853 68.2619 177.748 67.6313 177.779 67.0001C177.746 66.3598 177.851 65.7198 178.085 65.1231C178.32 64.5264 178.679 63.9867 179.139 63.5401C180.028 62.7039 181.21 62.2513 182.429 62.2801C183.623 62.2616 184.777 62.7143 185.639 63.5401C186.101 63.9855 186.461 64.525 186.696 65.122C186.931 65.719 187.034 66.3596 186.999 67.0001V67.0001ZM186.199 109.59H178.719V76.6701H186.199V109.59Z" fill="#A4B1CD"/>
<path d="M202.439 103.31C203.947 103.4 205.457 103.154 206.859 102.59C207.31 102.358 207.683 101.998 207.931 101.555C208.178 101.112 208.289 100.606 208.249 100.1C208.247 99.5596 208.109 99.0284 207.849 98.555C207.589 98.0815 207.214 97.6809 206.759 97.3899C205.234 96.393 203.592 95.5901 201.869 94.9999C200.57 94.5372 199.298 94.003 198.059 93.3999C196.969 92.8778 195.96 92.2044 195.059 91.3999C194.208 90.6361 193.527 89.7028 193.059 88.6599C192.546 87.4112 192.301 86.0691 192.339 84.7199C192.282 83.3467 192.557 81.9801 193.14 80.7356C193.723 79.491 194.597 78.4052 195.689 77.5699C197.895 75.8566 200.925 74.9999 204.779 74.9999C206.639 74.9942 208.495 75.1751 210.319 75.5399C211.676 75.7675 213.014 76.1019 214.319 76.5399L212.929 82.7299C211.889 82.2969 210.811 81.9621 209.709 81.7299C208.22 81.3904 206.696 81.2292 205.169 81.2499C203.863 81.1973 202.564 81.4687 201.389 82.0399C200.938 82.2616 200.561 82.6091 200.304 83.0403C200.047 83.4716 199.92 83.9681 199.939 84.4699C199.931 84.9674 200.026 85.4611 200.219 85.9199C200.454 86.3843 200.796 86.7856 201.219 87.0899C201.773 87.5083 202.369 87.867 202.999 88.1599C203.906 88.5738 204.834 88.9409 205.779 89.2599C207.352 89.8312 208.888 90.4992 210.379 91.2599C211.526 91.8278 212.578 92.5699 213.499 93.4599C214.299 94.2481 214.914 95.2046 215.299 96.2599C215.708 97.4805 215.9 98.763 215.869 100.05C215.945 101.441 215.664 102.83 215.051 104.081C214.438 105.333 213.515 106.407 212.369 107.2C210.029 108.82 206.695 109.63 202.369 109.63C200.014 109.688 197.661 109.442 195.369 108.9C194.104 108.58 192.859 108.189 191.639 107.73L192.979 101.37C194.306 101.9 195.666 102.348 197.049 102.71C198.811 103.145 200.623 103.346 202.439 103.31V103.31Z" fill="#A4B1CD"/>
<path d="M42.9991 110.77L49.7491 109.57L25.1991 60L0.119141 110.69L8.11914 109.27L12.6691 100.08C18.0891 92.63 27.7191 92.74 27.7191 92.74C27.7191 92.74 24.5391 89.85 17.5591 90.18L25.1591 74.84L42.9991 110.77Z" fill="#A4B1CD"/>
</svg>
