<svg data-name="Layer 1" xmlns="http://www.w3.org/2000/svg" viewBox="0 0 380 180"><path d="M96.34 117.09v-1.5c0-5.32-3.25-7.45-7.69-7.45a13.79 13.79 0 00-8.51 2.86l-1.44-3c2.44-2.32 6.57-3.38 10.26-3.38 10.13 0 11.45 6.88 11.45 11.2v15.45h-3.88v-4.44c-1.44 2.69-5 5-9.45 5-5.32 0-10.32-2.82-10.32-8.2 0-4.44 3.38-8.07 10.2-8.07a28.88 28.88 0 019.38 1.53zM80.7 123.6c0 2.81 2.57 4.81 6.94 4.81a10.7 10.7 0 008.83-4.94v-3.63a36.1 36.1 0 00-9-1.25c-4.96-.06-6.77 2.5-6.77 5.01zm45.8-7.14c0-6.31-3.26-8.32-6.57-8.32-2.88 0-8 2.07-8.07 10.45v12.7h-3.94V105.2h3.94v5.51a9 9 0 018.76-6.07 9.12 9.12 0 018.94 6.13 9.42 9.42 0 019.14-6.13c5.94 0 10.32 3.19 10.32 11.82v14.83h-3.94v-14.83c0-6.31-3.25-8.32-6.57-8.32-2.75 0-7.82 1.76-8.07 10.08v13.07h-3.94v-14.83zm54.43 10.83a14.89 14.89 0 01-11.14 4.57c-9 0-14.64-6.07-14.64-13.52a13.66 13.66 0 0114-13.7c6.69 0 13 4.19 13.07 13.58H159v.43c0 5.64 4.19 9.76 10.76 9.76a12.78 12.78 0 008.89-3.44zm-21.46-12.14h18.71c-1.19-5.44-5.32-7.07-8.89-7.07a9.8 9.8 0 00-9.82 7.07zm54.99 16.14h-3.94v-5.19a11.4 11.4 0 01-10.38 5.76c-7.89 0-13-6.14-13-13.64s5.07-13.64 13-13.64a11.46 11.46 0 0110.38 5.75v-17h3.94zm-14-2.94a10.14 10.14 0 000-20.27c-5.94 0-9.45 4.51-9.45 10.14s3.62 10.13 9.5 10.13zm24.76-34.85a2.85 2.85 0 012.88 2.94 2.8 2.8 0 01-2.88 2.88 2.74 2.74 0 01-2.81-2.88 2.84 2.84 0 012.81-2.94zm2 37.79h-3.95V105.2h3.95zm21.15-20.14a4.19 4.19 0 00-4.19-3.07c-3.06 0-4.75 2.07-4.75 4 0 2.12 1.81 3.19 3.62 3.75l3.88 1.25c4.63 1.5 6.26 4.25 6.26 7.13 0 4.76-4.32 7.57-9.13 7.57-4.45 0-8.45-2.19-9.64-6.25l3.44-.88c.82 2.19 3.26 3.69 6.2 3.69s5.25-1.62 5.25-4.13c0-2.06-1.44-3.06-3.69-3.81l-3.69-1.19c-3.69-1.19-6.32-3.32-6.32-7 0-4.13 3.19-7.63 8.45-7.63 3.37 0 6.94 1.69 7.94 5.63zm29.35-5.95h4.56L266.2 143h-4l5-12.07-11.26-25.73h4.51l8.82 21.28zm20.7 5.95a4.19 4.19 0 00-4.19-3.07c-3.06 0-4.75 2.07-4.75 4 0 2.12 1.81 3.19 3.63 3.75l3.88 1.25c4.62 1.5 6.25 4.25 6.25 7.13 0 4.76-4.32 7.57-9.13 7.57-4.44 0-8.45-2.19-9.64-6.25l3.44-.88c.82 2.19 3.26 3.69 6.2 3.69s5.25-1.62 5.25-4.13c0-2.06-1.44-3.06-3.69-3.81l-3.67-1.18c-3.69-1.19-6.32-3.32-6.32-7 0-4.13 3.19-7.63 8.45-7.63 3.38 0 6.94 1.69 7.94 5.63zM203.39 41a24.49 24.49 0 1011.14 20.52A24.62 24.62 0 00203.39 41zm-7.82 28.6v2.76h-4.07v4.06h-3.06v-4.06h-4.07v-3h4.07v-4.07h3.06v4.06h4.07zm10.82 0l-16.45-16.45-16.46 16.45h-4.31L187.75 51a3 3 0 014.25 0l6.51 6.51v-4.3h3v7.32l9.07 9.07h-4.19z" fill="#a4b1cd"/></svg>