<svg width="260" height="180" viewBox="0 0 260 180" fill="none" xmlns="http://www.w3.org/2000/svg">
<g clip-path="url(#clip0_4730_44547)">
<path d="M71.0931 74.13C70.8752 74.3489 70.7468 74.6414 70.7331 74.95V88.4C70.7253 88.5553 70.7537 88.7102 70.8162 88.8526C70.8787 88.9949 70.9735 89.1207 71.0931 89.22V89.27C71.1935 89.391 71.3209 89.4867 71.4651 89.5492C71.6093 89.6118 71.7662 89.6395 71.9231 89.63H80.9231C81.0791 89.6323 81.2338 89.6013 81.3769 89.5393C81.52 89.4772 81.6482 89.3854 81.7531 89.27L84.6331 86.39L88.7031 90.46L84.9931 94.17C84.626 94.5449 84.1847 94.8391 83.6974 95.0337C83.2101 95.2283 82.6875 95.319 82.1631 95.3H70.7831C69.7449 95.2984 68.748 94.8932 68.0031 94.17L65.4831 91.64C65.0927 91.2607 64.7853 90.8044 64.5804 90.3C64.3756 89.7956 64.2777 89.2542 64.2931 88.71V74.59C64.2871 73.4915 64.7147 72.435 65.4831 71.65L68.0031 69.13C68.3702 68.7551 68.8116 68.4609 69.2989 68.2663C69.7862 68.0718 70.3088 67.981 70.8331 68H82.2731C83.3286 67.9885 84.3459 68.3947 85.1031 69.13L88.7631 72.84L84.6931 76.91L81.8131 74.02C81.5906 73.8014 81.2948 73.6731 80.9831 73.66H71.9831C71.8275 73.6602 71.6736 73.6922 71.5309 73.7541C71.3882 73.8161 71.2596 73.9065 71.1531 74.02L71.0931 74.13ZM117.663 71.65C118.428 72.4374 118.855 73.4923 118.853 74.59V88.59C118.849 89.7042 118.424 90.7757 117.663 91.59L115.143 94.12C114.774 94.4952 114.331 94.7894 113.842 94.984C113.353 95.1785 112.829 95.2691 112.303 95.25H100.103C99.5856 95.2622 99.071 95.1682 98.5911 94.9739C98.1113 94.7795 97.6764 94.4889 97.3131 94.12L94.7931 91.59C94.4027 91.2107 94.0953 90.7544 93.8904 90.25C93.6856 89.7456 93.5878 89.2042 93.6031 88.66V74.59C93.6014 73.4923 94.0284 72.4374 94.7931 71.65L97.3131 69.13C97.6723 68.7556 98.1065 68.4614 98.5873 68.2667C99.0682 68.0719 99.5847 67.9811 100.103 68H112.303C113.362 67.9859 114.383 68.3922 115.143 69.13L117.663 71.65ZM112.303 74.9C112.311 74.7447 112.283 74.5898 112.22 74.4474C112.158 74.3051 112.063 74.1793 111.943 74.08L111.893 74.02C111.689 73.8101 111.415 73.682 111.123 73.66H101.283C101.129 73.6591 100.976 73.6908 100.835 73.7528C100.694 73.8148 100.567 73.9058 100.463 74.02L100.403 74.08C100.184 74.2978 100.055 74.5909 100.043 74.9V88.35C100.035 88.5053 100.064 88.6602 100.126 88.8026C100.189 88.9449 100.284 89.0707 100.403 89.17H100.463C100.566 89.2857 100.692 89.3778 100.834 89.4399C100.975 89.5021 101.129 89.5328 101.283 89.53H111.123C111.27 89.5302 111.415 89.4981 111.548 89.4359C111.681 89.3737 111.799 89.2829 111.893 89.17H111.943C112.165 88.954 112.294 88.6598 112.303 88.35V74.9ZM146.203 69.13C145.842 68.7478 145.401 68.4488 144.912 68.2537C144.424 68.0585 143.899 67.972 143.373 68H137.603C136.548 67.9885 135.53 68.3947 134.773 69.13L132.003 71.91L131.083 68H124.903L126.033 72.74V95.3H132.573V78.92C132.564 78.7631 132.591 78.6062 132.654 78.462C132.716 78.3178 132.812 78.1903 132.933 78.09L137.413 73.61C137.518 73.4946 137.646 73.4028 137.789 73.3407C137.933 73.2787 138.087 73.2477 138.243 73.25H141.793C141.942 73.2437 142.091 73.2731 142.227 73.3357C142.362 73.3983 142.481 73.4923 142.573 73.61L143.033 74.08C143.144 74.1863 143.233 74.3135 143.295 74.4542C143.356 74.5949 143.39 74.7464 143.393 74.9V95.25H150.003V74.59C150.009 73.4935 149.585 72.4384 148.823 71.65L146.203 69.13ZM166.003 57.02H159.453V68.02H154.613V73.74H159.453V89.14C159.447 90.2385 159.875 91.295 160.643 92.08L162.753 94.19C163.12 94.5649 163.562 94.8591 164.049 95.0537C164.536 95.2482 165.059 95.339 165.583 95.32H175.223V89.53H167.223C167.069 89.5328 166.915 89.5021 166.774 89.4399C166.632 89.3778 166.506 89.2857 166.403 89.17H166.343C166.123 88.9485 165.994 88.6521 165.983 88.34V73.72H175.263V68H166.003V57.02ZM204.173 71.65C204.56 72.0339 204.864 72.4927 205.067 72.9982C205.269 73.5038 205.367 74.0454 205.353 74.59V83.5H186.643V88.4C186.635 88.5553 186.664 88.7102 186.726 88.8526C186.789 88.9949 186.884 89.1207 187.003 89.22L187.053 89.27C187.26 89.4821 187.538 89.6104 187.833 89.63H197.613C197.762 89.6317 197.909 89.6003 198.044 89.538C198.179 89.4758 198.298 89.3842 198.393 89.27L201.273 86.39L205.343 90.46L201.633 94.17C201.266 94.5449 200.825 94.8391 200.337 95.0337C199.85 95.2283 199.328 95.319 198.803 95.3H186.593C185.538 95.3115 184.52 94.9053 183.763 94.17L181.233 91.64C180.848 91.2573 180.545 90.8001 180.342 90.2964C180.139 89.7927 180.041 89.2529 180.053 88.71V74.59C180.048 73.4935 180.471 72.4384 181.233 71.65L183.763 69.13C184.13 68.7551 184.572 68.4609 185.059 68.2663C185.546 68.0718 186.069 67.981 186.593 68H198.803C199.859 67.9885 200.876 68.3947 201.633 69.13L204.173 71.65ZM198.813 74.9C198.821 74.7447 198.793 74.5898 198.73 74.4474C198.668 74.3051 198.573 74.1793 198.453 74.08L198.403 74.02C198.196 73.8137 197.924 73.6864 197.633 73.66H187.843C187.695 73.6545 187.549 73.6843 187.415 73.7469C187.281 73.8095 187.164 73.9031 187.073 74.02L187.013 74.08C186.894 74.1793 186.799 74.3051 186.736 74.4474C186.674 74.5898 186.645 74.7447 186.653 74.9V78.09H198.903L198.813 74.9ZM259.603 73.72V68H250.383V57H243.843V68H239.003V73.72H243.853V89.12C243.848 90.2165 244.271 91.2716 245.033 92.06L247.143 94.17C247.509 94.5551 247.954 94.8557 248.448 95.0509C248.942 95.2461 249.473 95.3311 250.003 95.3H259.633V89.53H251.633C251.323 89.5224 251.029 89.3931 250.813 89.17C250.692 89.0697 250.596 88.9422 250.534 88.798C250.471 88.6538 250.444 88.4969 250.453 88.34V73.72H259.603ZM45.0831 58.16C44.7154 57.7825 44.2728 57.4861 43.7837 57.2897C43.2946 57.0934 42.7698 57.0015 42.2431 57.02H6.54314C5.48624 57.0112 4.46881 57.421 3.71314 58.16L1.18314 60.68C0.792216 61.0606 0.485272 61.5188 0.282048 62.0251C0.0788234 62.5315 -0.0161819 63.0747 0.00313978 63.62V73.2H6.54314V63.98C6.53819 63.8237 6.5679 63.6682 6.63014 63.5247C6.69238 63.3812 6.78561 63.2532 6.90314 63.15V63.1C7.1315 62.8901 7.42388 62.7633 7.73314 62.74H41.0631C41.2174 62.7391 41.3702 62.7708 41.5114 62.8328C41.6527 62.8948 41.7793 62.9858 41.8831 63.1L41.9431 63.15C42.1618 63.3726 42.29 63.6683 42.3031 63.98V99.32C42.311 99.4753 42.2826 99.6302 42.2201 99.7725C42.1576 99.9149 42.0628 100.041 41.9431 100.14H41.8831C41.6694 100.367 41.3746 100.5 41.0631 100.51H7.73314C7.57652 100.51 7.42159 100.478 7.27854 100.414C7.13549 100.35 7.00756 100.257 6.90314 100.14H6.85314C6.72966 100.044 6.63207 99.9188 6.56921 99.7756C6.50635 99.6324 6.4802 99.4758 6.49314 99.32V85.72C6.48028 85.5713 6.50679 85.4219 6.56998 85.2868C6.63317 85.1516 6.73083 85.0355 6.85314 84.95L6.90314 84.89C7.1315 84.6801 7.42388 84.5533 7.73314 84.53H22.3631L16.6931 90.1V95.25H18.0031C18.5192 95.262 19.0322 95.1679 19.5104 94.9735C19.9886 94.7791 20.4218 94.4886 20.7831 94.12L23.2031 91.69L31.3931 83.56C31.7113 83.2336 31.9239 82.8189 32.0031 82.37V82.27C32.0446 82.0661 32.0613 81.8579 32.0531 81.65C32.0613 81.4421 32.0446 81.2339 32.0031 81.03V80.93C31.8803 80.5045 31.6877 80.1024 31.4331 79.74L22.6331 70.99L20.8231 69.18C20.4543 68.8102 20.0141 68.5194 19.5293 68.3251C19.0445 68.1308 18.5253 68.0372 18.0031 68.05H16.6931V73.2L19.0031 75.36L22.4531 78.71H6.54314C6.01995 78.7005 5.50012 78.7955 5.01416 78.9895C4.52819 79.1836 4.08587 79.4727 3.71314 79.84L1.18314 82.36C0.789926 82.741 0.481565 83.2007 0.278225 83.709C0.0748853 84.2174 -0.0188529 84.7629 0.00313978 85.31V99.63C-0.00403557 100.724 0.419892 101.776 1.18314 102.56L3.71314 105.09C4.07757 105.468 4.51844 105.765 5.00641 105.96C5.49437 106.155 6.01824 106.243 6.54314 106.22H42.2431C43.3021 106.234 44.3234 105.828 45.0831 105.09L47.6031 102.56C47.9895 102.163 48.2936 101.694 48.4978 101.179C48.702 100.664 48.8024 100.114 48.7931 99.56V63.62C48.7949 62.5223 48.3679 61.4674 47.6031 60.68L45.0831 58.16ZM229.553 69.16L227.753 70.97L221.883 76.84L216.003 70.99L214.193 69.18C213.829 68.8151 213.395 68.5271 212.918 68.333C212.44 68.1389 211.929 68.0427 211.413 68.05H210.073V73.2L212.343 75.36L218.003 80.84C218.159 81.0298 218.25 81.2646 218.263 81.51C218.256 81.7717 218.165 82.0241 218.003 82.23L210.123 90.06V95.21H211.463C211.979 95.222 212.492 95.1279 212.97 94.9335C213.449 94.7391 213.882 94.4486 214.243 94.08L216.673 91.65L221.923 86.4L227.173 91.65L229.603 94.08C229.965 94.4622 230.405 94.7612 230.894 94.9563C231.382 95.1515 231.908 95.238 232.433 95.21H233.773V90.1L225.843 82.32C225.68 82.1148 225.589 81.862 225.583 81.6C225.578 81.351 225.671 81.1101 225.843 80.93L231.503 75.42L233.773 73.25V68.1H232.433C231.902 68.056 231.367 68.13 230.867 68.3167C230.368 68.5034 229.916 68.7982 229.543 69.18" fill="#A4B1CD"/>
<path d="M64.1445 108.44H67.3845C68.3857 108.417 69.3722 108.684 70.2245 109.21C70.5901 109.469 70.8884 109.812 71.0945 110.21C71.3182 110.695 71.4244 111.226 71.4045 111.76V111.76C71.4247 112.291 71.3185 112.819 71.0945 113.3C70.8911 113.7 70.5923 114.043 70.2245 114.3C69.8416 114.583 69.4012 114.777 68.9345 114.87C68.4263 114.992 67.907 115.063 67.3845 115.08H65.5345V119.84H64.1445V108.44ZM67.4945 114.16C68.16 114.202 68.8178 113.999 69.3445 113.59C69.5647 113.368 69.7341 113.102 69.8411 112.808C69.9482 112.515 69.9903 112.201 69.9645 111.89V111.89C70.0057 111.573 69.9658 111.251 69.8486 110.954C69.7315 110.656 69.5408 110.394 69.2945 110.19C68.7408 109.834 68.0927 109.653 67.4345 109.67H65.5345V114.21L67.4945 114.16Z" fill="#A4B1CD"/>
<path d="M74.854 120.03C74.488 120.031 74.124 119.977 73.774 119.87C73.4508 119.782 73.1505 119.625 72.894 119.41C72.6382 119.212 72.444 118.945 72.334 118.64C72.2067 118.294 72.1358 117.929 72.124 117.56C72.1108 117.119 72.2367 116.685 72.484 116.32C72.7184 115.984 73.0399 115.718 73.414 115.55C73.8428 115.346 74.2919 115.189 74.754 115.08C75.2613 114.98 75.777 114.93 76.294 114.93H77.484V114.31C77.5225 113.797 77.3772 113.286 77.074 112.87C76.8909 112.695 76.6715 112.562 76.4313 112.48C76.1911 112.399 75.936 112.372 75.684 112.4C74.544 112.4 73.874 112.92 73.774 113.9H72.434C72.4688 113.467 72.5912 113.045 72.794 112.66C72.9967 112.341 73.2579 112.062 73.564 111.84C73.8681 111.627 74.2063 111.469 74.564 111.37C74.953 111.272 75.3527 111.221 75.754 111.22C76.1358 111.217 76.5161 111.268 76.884 111.37C77.2436 111.463 77.5826 111.623 77.884 111.84C78.1782 112.088 78.408 112.404 78.554 112.76C78.7297 113.223 78.8178 113.715 78.814 114.21V119.72H77.474V118.72C77.1905 119.094 76.8197 119.393 76.394 119.59C75.9569 119.94 75.4018 120.108 74.844 120.06L74.854 120.03ZM75.014 119.03C75.3542 119.037 75.6929 118.983 76.014 118.87C76.2998 118.797 76.5639 118.656 76.784 118.46C76.9966 118.293 77.1706 118.081 77.294 117.84C77.4288 117.57 77.5006 117.272 77.504 116.97V115.97H76.374C75.992 115.974 75.6108 116.007 75.234 116.07C74.9183 116.121 74.6095 116.208 74.314 116.33C74.0646 116.44 73.8501 116.617 73.694 116.84C73.5389 117.069 73.465 117.344 73.484 117.62C73.472 117.803 73.4978 117.986 73.5598 118.158C73.6217 118.33 73.7185 118.487 73.844 118.62C74.0009 118.76 74.1849 118.865 74.3845 118.931C74.584 118.996 74.7949 119.02 75.004 119L75.014 119.03Z" fill="#A4B1CD"/>
<path d="M80.9336 111.53H82.2736V113.02C82.3795 112.768 82.536 112.54 82.7336 112.35C82.8992 112.155 83.091 111.983 83.3036 111.84C83.5378 111.677 83.7983 111.555 84.0736 111.48C84.3947 111.367 84.7334 111.313 85.0736 111.32V112.56C84.6918 112.557 84.3115 112.608 83.9436 112.71C83.6246 112.788 83.3251 112.931 83.0636 113.13C82.8086 113.35 82.6156 113.633 82.5036 113.95C82.3633 114.366 82.2924 114.802 82.2936 115.24V119.84H80.9536L80.9336 111.53Z" fill="#A4B1CD"/>
<path d="M89.1238 119.98C88.8125 120.006 88.4993 119.964 88.2058 119.857C87.9123 119.75 87.6455 119.58 87.4238 119.36C87.042 118.916 86.842 118.345 86.8638 117.76V112.61H85.6738V111.48H86.8638V109.57H88.1938V111.48H90.1938V112.61H88.1938V117.61C88.1938 118.43 88.5638 118.84 89.1938 118.84C89.3796 118.866 89.5681 118.866 89.7538 118.84C89.9138 118.84 90.0638 118.84 90.2238 118.74V119.84C90.0736 119.9 89.9152 119.937 89.7538 119.95C89.6038 119.95 89.3938 119.95 89.0838 119.95L89.1238 119.98Z" fill="#A4B1CD"/>
<path d="M98.8635 120.03C98.2983 120.038 97.7372 119.933 97.2135 119.72C96.7291 119.516 96.2905 119.216 95.9235 118.84C95.5593 118.456 95.28 117.999 95.1035 117.5C94.8898 116.959 94.7845 116.382 94.7935 115.8V115.7C94.79 115.103 94.895 114.51 95.1035 113.95C95.285 113.442 95.5829 112.983 95.9735 112.61C96.3405 112.234 96.7791 111.934 97.2635 111.73C97.7892 111.525 98.3494 111.423 98.9135 111.43C99.4772 111.428 100.037 111.53 100.564 111.73C101.048 111.934 101.487 112.234 101.854 112.61C102.233 112.991 102.53 113.448 102.724 113.95C102.942 114.507 103.047 115.102 103.034 115.7V115.8C103.037 116.401 102.932 116.997 102.724 117.56C102.539 118.064 102.242 118.519 101.854 118.89C101.48 119.259 101.043 119.557 100.564 119.77C100.012 119.938 99.4397 120.025 98.8635 120.03V120.03ZM98.8635 118.89C99.2499 118.901 99.6344 118.833 99.9935 118.69C100.324 118.542 100.623 118.332 100.874 118.07C101.105 117.762 101.296 117.426 101.444 117.07C101.563 116.65 101.63 116.217 101.644 115.78V115.68C101.658 115.241 101.59 114.804 101.444 114.39C101.316 114.025 101.123 113.686 100.874 113.39C100.632 113.139 100.334 112.95 100.004 112.84C99.6478 112.685 99.2613 112.613 98.8735 112.63C98.4861 112.617 98.1006 112.689 97.7435 112.84C97.4133 112.984 97.1144 113.191 96.8635 113.45C96.6361 113.761 96.4448 114.096 96.2935 114.45C96.1752 114.87 96.1081 115.304 96.0935 115.74V115.84C96.0565 116.658 96.3117 117.463 96.8135 118.11C97.0824 118.389 97.4109 118.605 97.7744 118.74C98.138 118.875 98.5274 118.926 98.9135 118.89H98.8635Z" fill="#A4B1CD"/>
<path d="M104.893 112.66H103.703V111.53H104.893V110.19C104.839 109.471 105.056 108.757 105.503 108.19C105.743 107.943 106.033 107.751 106.354 107.627C106.675 107.503 107.02 107.449 107.363 107.47C107.532 107.44 107.704 107.44 107.873 107.47C107.983 107.47 108.183 107.47 108.343 107.57V108.84C108.216 108.775 108.076 108.737 107.933 108.73C107.773 108.73 107.563 108.73 107.413 108.73C107.236 108.718 107.058 108.75 106.895 108.823C106.733 108.897 106.592 109.009 106.483 109.15C106.294 109.448 106.206 109.799 106.233 110.15V111.64H108.293V112.77H106.233V119.99H104.893V112.66Z" fill="#A4B1CD"/>
<path d="M115.764 108.44H120.004L123.594 119.84H120.134L119.524 117.73H115.704L115.094 119.84H112.094L115.764 108.44ZM116.434 115.49H119.004L117.764 111.12L116.434 115.49Z" fill="#A4B1CD"/>
<path d="M128.003 120.08C127.41 120.08 126.82 119.993 126.253 119.82C125.733 119.65 125.256 119.37 124.853 119C124.431 118.644 124.114 118.181 123.933 117.66C123.711 117.066 123.606 116.434 123.623 115.8V115.7C123.611 115.06 123.741 114.424 124.003 113.84C124.257 113.325 124.595 112.855 125.003 112.45C125.853 111.657 126.981 111.229 128.143 111.26C128.644 111.256 129.144 111.31 129.633 111.42C130.093 111.527 130.531 111.717 130.923 111.98C131.308 112.268 131.625 112.637 131.853 113.06C132.105 113.557 132.245 114.103 132.263 114.66H129.583C129.555 114.313 129.41 113.985 129.173 113.73C128.915 113.509 128.582 113.398 128.243 113.42C128.02 113.414 127.799 113.458 127.595 113.548C127.391 113.638 127.209 113.772 127.063 113.94C126.762 114.417 126.618 114.977 126.653 115.54V115.64C126.619 116.219 126.762 116.794 127.063 117.29C127.206 117.478 127.393 117.627 127.608 117.725C127.822 117.822 128.058 117.865 128.293 117.85C128.476 117.867 128.66 117.844 128.833 117.782C129.006 117.719 129.163 117.62 129.293 117.49C129.566 117.225 129.734 116.87 129.763 116.49H132.333C132.331 116.967 132.229 117.439 132.035 117.874C131.84 118.31 131.557 118.7 131.203 119.02C130.781 119.405 130.285 119.7 129.745 119.885C129.205 120.071 128.632 120.144 128.063 120.1L128.003 120.08Z" fill="#A4B1CD"/>
<path d="M137.134 120.08C136.541 120.079 135.951 119.991 135.384 119.82C134.867 119.65 134.393 119.37 133.994 119C133.572 118.644 133.254 118.181 133.074 117.66C132.852 117.066 132.746 116.434 132.764 115.8V115.7C132.747 115.065 132.869 114.433 133.124 113.85C133.371 113.331 133.71 112.86 134.124 112.46C134.974 111.667 136.101 111.239 137.264 111.27C137.765 111.266 138.265 111.32 138.754 111.43C139.214 111.537 139.651 111.727 140.044 111.99C140.428 112.278 140.746 112.647 140.974 113.07C141.22 113.569 141.36 114.114 141.384 114.67H138.704C138.671 114.324 138.527 113.998 138.294 113.74C138.036 113.519 137.702 113.408 137.364 113.43C137.14 113.423 136.919 113.466 136.714 113.556C136.51 113.646 136.329 113.781 136.184 113.95C135.878 114.426 135.731 114.986 135.764 115.55V115.65C135.733 116.23 135.879 116.805 136.184 117.3C136.325 117.489 136.512 117.639 136.727 117.737C136.942 117.835 137.178 117.877 137.414 117.86C137.596 117.875 137.78 117.851 137.953 117.789C138.125 117.727 138.282 117.628 138.414 117.5C138.684 117.234 138.848 116.878 138.874 116.5H141.454C141.452 116.977 141.35 117.449 141.155 117.884C140.961 118.32 140.678 118.71 140.324 119.03C139.899 119.414 139.401 119.708 138.86 119.894C138.318 120.08 137.744 120.153 137.174 120.11L137.134 120.08Z" fill="#A4B1CD"/>
<path d="M146.414 120.08C145.801 120.083 145.192 119.995 144.604 119.82C144.076 119.642 143.587 119.364 143.164 119C142.749 118.621 142.409 118.166 142.164 117.66C141.934 117.087 141.812 116.477 141.804 115.86V115.75C141.787 115.131 141.91 114.515 142.164 113.95C142.419 113.435 142.757 112.965 143.164 112.56C143.574 112.164 144.065 111.864 144.604 111.68C145.169 111.476 145.764 111.372 146.364 111.37C146.92 111.379 147.473 111.467 148.004 111.63C148.507 111.773 148.968 112.037 149.344 112.4C149.781 112.827 150.123 113.342 150.345 113.911C150.567 114.48 150.666 115.09 150.634 115.7V116.47H144.764C144.775 116.947 144.956 117.405 145.274 117.76C145.439 117.918 145.633 118.041 145.846 118.122C146.059 118.203 146.287 118.239 146.514 118.23C146.874 118.253 147.23 118.143 147.514 117.92C147.729 117.73 147.873 117.473 147.924 117.19H150.604C150.56 117.624 150.421 118.043 150.199 118.417C149.976 118.792 149.674 119.114 149.314 119.36C148.44 119.882 147.431 120.133 146.414 120.08ZM147.854 114.77C147.879 114.338 147.731 113.914 147.444 113.59C147.301 113.452 147.132 113.345 146.946 113.275C146.761 113.204 146.563 113.172 146.364 113.18C145.962 113.171 145.571 113.318 145.274 113.59C144.959 113.903 144.776 114.326 144.764 114.77H147.854Z" fill="#A4B1CD"/>
<path d="M151.664 111.53H154.504V112.84C154.717 112.37 155.065 111.973 155.504 111.7C156.029 111.377 156.638 111.217 157.254 111.24C157.623 111.216 157.993 111.273 158.339 111.406C158.684 111.539 158.996 111.745 159.254 112.01C159.796 112.677 160.071 113.522 160.024 114.38V119.84H157.184V115C157.207 114.617 157.101 114.237 156.884 113.92C156.761 113.801 156.615 113.708 156.456 113.646C156.296 113.584 156.125 113.555 155.954 113.56C155.586 113.544 155.227 113.673 154.954 113.92C154.667 114.244 154.52 114.668 154.544 115.1V119.79H151.704L151.664 111.53Z" fill="#A4B1CD"/>
<path d="M164.803 120.08C164.018 120.121 163.247 119.864 162.643 119.36C162.366 119.075 162.152 118.734 162.018 118.36C161.883 117.985 161.83 117.586 161.863 117.19V113.49H160.863V111.49H161.863V109.74H164.703V111.49H166.343V113.49H164.703V116.94C164.69 117.059 164.701 117.18 164.736 117.295C164.77 117.41 164.827 117.517 164.903 117.61C164.988 117.682 165.087 117.737 165.193 117.772C165.3 117.806 165.412 117.819 165.523 117.81C165.658 117.838 165.798 117.838 165.933 117.81C166.043 117.81 166.193 117.81 166.293 117.71V119.84C166.093 119.84 165.883 119.95 165.623 120C165.355 120.065 165.08 120.098 164.803 120.1V120.08Z" fill="#A4B1CD"/>
<path d="M170.213 120.08C169.823 120.092 169.434 120.02 169.073 119.87C168.749 119.743 168.453 119.553 168.203 119.31C167.927 119.026 167.715 118.684 167.583 118.31C167.429 117.864 167.358 117.392 167.373 116.92V111.46H170.213V116.46C170.184 116.821 170.295 117.179 170.523 117.46C170.636 117.576 170.772 117.667 170.921 117.729C171.071 117.791 171.231 117.822 171.393 117.82C171.576 117.834 171.759 117.809 171.932 117.747C172.104 117.685 172.261 117.587 172.393 117.46C172.528 117.297 172.629 117.109 172.691 116.906C172.752 116.704 172.774 116.491 172.753 116.28V111.49H175.593V119.84H172.753V118.56C172.523 119.003 172.177 119.376 171.753 119.64C171.3 119.947 170.76 120.101 170.213 120.08V120.08Z" fill="#A4B1CD"/>
<path d="M177.215 111.53H180.055V113.18C180.253 112.624 180.634 112.152 181.135 111.84C181.638 111.558 182.208 111.417 182.785 111.43V114.1C182.092 114.046 181.398 114.191 180.785 114.52C180.549 114.676 180.358 114.891 180.232 115.144C180.106 115.396 180.048 115.678 180.065 115.96V119.96H177.225L177.215 111.53Z" fill="#A4B1CD"/>
<path d="M187.883 120.08C187.27 120.083 186.66 119.995 186.073 119.82C185.545 119.642 185.056 119.364 184.633 119C184.218 118.621 183.878 118.166 183.633 117.66C183.403 117.087 183.281 116.477 183.273 115.86V115.75C183.256 115.131 183.379 114.515 183.633 113.95C183.888 113.435 184.226 112.965 184.633 112.56C185.042 112.164 185.534 111.864 186.073 111.68C186.638 111.476 187.233 111.372 187.833 111.37C188.389 111.379 188.941 111.467 189.473 111.63C189.976 111.773 190.436 112.037 190.813 112.4C191.25 112.827 191.591 113.342 191.814 113.911C192.036 114.48 192.135 115.09 192.103 115.7V116.47H186.233C186.244 116.947 186.425 117.405 186.743 117.76C186.907 117.918 187.102 118.041 187.315 118.122C187.528 118.203 187.755 118.239 187.983 118.23C188.343 118.253 188.699 118.143 188.983 117.92C189.198 117.73 189.342 117.473 189.393 117.19H192.073C192.029 117.624 191.89 118.043 191.667 118.417C191.445 118.792 191.143 119.114 190.783 119.36C189.909 119.882 188.9 120.133 187.883 120.08ZM189.323 114.77C189.347 114.338 189.2 113.914 188.913 113.59C188.77 113.452 188.601 113.345 188.415 113.275C188.229 113.204 188.031 113.172 187.833 113.18C187.43 113.171 187.04 113.318 186.743 113.59C186.428 113.903 186.245 114.326 186.233 114.77H189.323Z" fill="#A4B1CD"/>
<path d="M200.455 120.08C199.171 120.181 197.893 119.827 196.845 119.08C196.444 118.725 196.122 118.289 195.899 117.802C195.677 117.314 195.56 116.786 195.555 116.25H198.645C198.652 116.441 198.689 116.63 198.755 116.81C198.806 116.995 198.914 117.16 199.065 117.28C199.194 117.439 199.374 117.548 199.575 117.59C199.847 117.654 200.125 117.688 200.405 117.69C200.79 117.714 201.171 117.605 201.485 117.38C201.604 117.281 201.699 117.155 201.762 117.013C201.824 116.87 201.853 116.715 201.845 116.56C201.836 116.399 201.802 116.241 201.745 116.09C201.685 115.94 201.585 115.89 201.435 115.78C201.251 115.698 201.06 115.631 200.865 115.58C200.605 115.53 200.345 115.47 199.985 115.42C199.288 115.337 198.6 115.2 197.925 115.01C197.428 114.877 196.969 114.631 196.585 114.29C196.262 114.024 196.014 113.68 195.865 113.29C195.715 112.808 195.647 112.304 195.665 111.8C195.661 111.3 195.767 110.805 195.975 110.35C196.174 109.912 196.472 109.525 196.845 109.22C197.248 108.879 197.723 108.633 198.235 108.5C198.84 108.328 199.466 108.241 200.095 108.24C201.226 108.17 202.349 108.48 203.285 109.12C203.674 109.452 203.99 109.862 204.213 110.324C204.435 110.785 204.558 111.288 204.575 111.8H201.575C201.564 111.622 201.517 111.448 201.438 111.289C201.359 111.129 201.249 110.987 201.115 110.87C200.813 110.686 200.467 110.589 200.115 110.589C199.762 110.589 199.416 110.686 199.115 110.87C199.013 110.959 198.932 111.07 198.878 111.195C198.825 111.319 198.799 111.454 198.805 111.59C198.783 111.734 198.819 111.882 198.905 112C198.981 112.127 199.088 112.233 199.215 112.31C199.378 112.415 199.553 112.502 199.735 112.57C199.935 112.57 200.245 112.67 200.605 112.72C201.248 112.802 201.886 112.922 202.515 113.08C203.003 113.225 203.47 113.434 203.905 113.7C204.256 113.961 204.537 114.305 204.725 114.7C204.93 115.19 205.019 115.72 204.985 116.25C204.988 116.763 204.882 117.271 204.675 117.74C204.475 118.195 204.174 118.599 203.795 118.92C203.374 119.289 202.885 119.571 202.355 119.75C201.776 120.016 201.141 120.139 200.505 120.11L200.455 120.08Z" fill="#A4B1CD"/>
<path d="M210.294 120.08C209.681 120.083 209.071 119.995 208.484 119.82C207.952 119.65 207.461 119.371 207.044 119C206.635 118.63 206.317 118.172 206.114 117.66C205.86 117.095 205.737 116.479 205.754 115.86V115.75C205.736 115.131 205.859 114.515 206.114 113.95C206.368 113.435 206.706 112.965 207.114 112.56C207.526 112.164 208.022 111.864 208.564 111.68C209.124 111.475 209.717 111.37 210.314 111.37C210.873 111.38 211.428 111.468 211.964 111.63C212.465 111.778 212.924 112.042 213.304 112.4C213.688 112.788 214 113.242 214.224 113.74C214.497 114.37 214.62 115.055 214.584 115.74V116.51H208.714C208.727 116.988 208.911 117.446 209.234 117.8C209.395 117.959 209.588 118.082 209.8 118.163C210.011 118.244 210.237 118.28 210.464 118.27C210.824 118.294 211.18 118.184 211.464 117.96C211.678 117.77 211.823 117.513 211.874 117.23H214.554C214.51 117.663 214.373 118.081 214.152 118.456C213.931 118.831 213.631 119.153 213.274 119.4C212.363 119.921 211.322 120.171 210.274 120.12L210.294 120.08ZM211.734 114.77C211.758 114.338 211.611 113.914 211.324 113.59C211.181 113.452 211.011 113.345 210.826 113.275C210.64 113.204 210.442 113.172 210.244 113.18C209.841 113.171 209.45 113.318 209.154 113.59C208.835 113.901 208.651 114.325 208.644 114.77H211.734Z" fill="#A4B1CD"/>
<path d="M219.515 120.08C218.922 120.08 218.332 119.993 217.765 119.82C217.247 119.652 216.772 119.372 216.375 119C215.947 118.648 215.625 118.184 215.445 117.66C215.223 117.066 215.117 116.434 215.135 115.8V115.7C215.118 115.064 215.241 114.433 215.495 113.85C215.749 113.335 216.087 112.865 216.495 112.46C216.902 112.087 217.373 111.789 217.885 111.58C218.443 111.367 219.037 111.262 219.635 111.27C220.139 111.266 220.642 111.32 221.135 111.43C221.591 111.539 222.025 111.729 222.415 111.99C222.799 112.278 223.117 112.647 223.345 113.07C223.596 113.567 223.736 114.113 223.755 114.67H221.075C221.046 114.323 220.902 113.995 220.665 113.74C220.538 113.629 220.39 113.545 220.231 113.492C220.071 113.438 219.902 113.417 219.735 113.43C219.512 113.424 219.29 113.468 219.086 113.558C218.882 113.648 218.701 113.782 218.555 113.95C218.254 114.427 218.11 114.987 218.145 115.55V115.65C218.111 116.229 218.254 116.804 218.555 117.3C218.699 117.489 218.887 117.639 219.104 117.737C219.32 117.835 219.558 117.877 219.795 117.86C219.978 117.877 220.162 117.854 220.335 117.792C220.508 117.729 220.665 117.63 220.795 117.5C221.068 117.235 221.235 116.879 221.265 116.5H223.835C223.833 116.977 223.731 117.449 223.537 117.884C223.342 118.32 223.059 118.71 222.705 119.03C222.283 119.415 221.787 119.709 221.246 119.895C220.706 120.081 220.134 120.154 219.565 120.11L219.515 120.08Z" fill="#A4B1CD"/>
<path d="M227.444 120.08C226.703 120.09 225.987 119.815 225.444 119.31C225.171 119.023 224.96 118.683 224.824 118.31C224.673 117.863 224.606 117.392 224.624 116.92V111.46H227.454V116.46C227.43 116.82 227.541 117.177 227.764 117.46C227.88 117.575 228.017 117.666 228.168 117.728C228.319 117.79 228.481 117.821 228.644 117.82C228.827 117.832 229.01 117.806 229.182 117.744C229.354 117.682 229.511 117.586 229.644 117.46C229.912 117.128 230.041 116.705 230.004 116.28V111.49H232.834V119.84H230.004V118.56C229.77 119 229.425 119.373 229.004 119.64C228.546 119.953 227.998 120.107 227.444 120.08V120.08Z" fill="#A4B1CD"/>
<path d="M234.453 111.53H237.283V113.18C237.481 112.624 237.862 112.152 238.363 111.84C238.867 111.56 239.436 111.418 240.013 111.43V114.1C239.32 114.048 238.627 114.194 238.013 114.52C237.777 114.676 237.587 114.891 237.46 115.144C237.334 115.396 237.276 115.678 237.293 115.96V119.96H234.463L234.453 111.53Z" fill="#A4B1CD"/>
<path d="M242.594 110.76C242.175 110.765 241.769 110.616 241.454 110.34C241.309 110.217 241.193 110.064 241.113 109.891C241.034 109.718 240.993 109.53 240.994 109.34C240.995 109.138 241.037 108.939 241.116 108.754C241.195 108.568 241.31 108.401 241.454 108.26C241.605 108.115 241.784 108.004 241.98 107.933C242.177 107.862 242.386 107.834 242.594 107.85C243.009 107.843 243.411 107.989 243.724 108.26C243.878 108.393 244 108.559 244.08 108.747C244.16 108.934 244.195 109.137 244.184 109.34C244.187 109.531 244.148 109.719 244.068 109.892C243.989 110.066 243.871 110.219 243.724 110.34C243.407 110.606 243.008 110.755 242.594 110.76ZM241.154 111.53H244.004V119.84H241.174L241.154 111.53Z" fill="#A4B1CD"/>
<path d="M248.924 120.08C248.14 120.117 247.37 119.86 246.764 119.36C246.49 119.073 246.279 118.732 246.147 118.357C246.014 117.983 245.962 117.586 245.994 117.19V113.49H244.994V111.49H245.994V109.74H248.824V111.49H250.474V113.49H248.824V116.94C248.81 117.06 248.821 117.182 248.858 117.297C248.894 117.413 248.954 117.519 249.034 117.61C249.119 117.683 249.217 117.739 249.324 117.773C249.43 117.808 249.543 117.82 249.654 117.81C249.789 117.837 249.929 117.837 250.064 117.81C250.164 117.81 250.324 117.81 250.424 117.71V119.84C250.204 119.905 249.98 119.958 249.754 120C249.483 120.067 249.204 120.101 248.924 120.1V120.08Z" fill="#A4B1CD"/>
<path d="M254.235 119.05L250.885 111.53H254.005L255.705 115.96L257.305 111.53H260.005L255.525 122.66H252.795L254.235 119.05Z" fill="#A4B1CD"/>
</g>
<defs>
<clipPath id="clip0_4730_44547">
<rect width="260" height="180" fill="white"/>
</clipPath>
</defs>
</svg>
