<svg width="260" height="180" fill="none" xmlns="http://www.w3.org/2000/svg"><g clip-path="url(#clip0_4730_44545)"><path fill-rule="evenodd" clip-rule="evenodd" d="M.8 109.1v-7.82a39.975 39.975 0 0011.82 2.1c4.727 0 7.09-1.25 7.09-3.75a3 3 0 00-1-2.34c-.71-.68-2.51-1.61-5.42-2.8C8.057 92.343 4.65 90.513 3.07 89a11 11 0 011.41-16.5c2.94-2 6.79-3.05 11.52-3.05 3.815.148 7.61.633 11.34 1.45v7.52a27.78 27.78 0 00-10.25-2.2c-4.44 0-6.66 1.22-6.66 3.66a2.59 2.59 0 001.34 2.24c.753.467 2.807 1.467 6.16 3 4.833 2.14 8.05 4.003 9.65 5.59A9.85 9.85 0 0130.43 98a10.797 10.797 0 01-5.6 9.81c-3.02 1.827-6.937 2.74-11.75 2.74A54.023 54.023 0 01.8 109.1zm35.88-38.95h11.06v39.59H36.68V70.15zm21.2 39.59V70.15h28.37v7.16H68.54v8.94h15.41v6.53H68.54v9.4H86.7v7.56H57.88zm36.04 0V70.15h14.34l9.97 25.3 10.21-25.3h13.62v39.59h-10.49V81.71l-11.61 28.43h-6.85l-11.39-28.43v28.03h-7.8zm58.29 0V70.15h28.36v7.16h-17.7v8.94h15.41v6.53h-15.41v9.4h18.16v7.56h-28.82zm36.1 0V70.15h12.82l13.6 26.5v-26.5h7.79v39.59h-12.46L196.1 82.88v26.86h-7.79zm42.06-.64v-7.82a39.64 39.64 0 0011.82 2.1c4.733 0 7.097-1.25 7.09-3.75a3.082 3.082 0 00-1-2.34c-.707-.667-2.52-1.6-5.44-2.8-5.227-2.127-8.627-3.957-10.2-5.49a10.125 10.125 0 01-3.07-7.58 10.14 10.14 0 014.48-8.92c2.94-2.04 6.783-3.057 11.53-3.05 3.482.095 6.948.52 10.35 1.27l1 .17v7.52a27.842 27.842 0 00-10.28-2.2c-4.42 0-6.63 1.22-6.63 3.66a2.593 2.593 0 001.34 2.24c.713.447 2.773 1.447 6.18 3 4.8 2.14 8.01 4.003 9.63 5.59A9.852 9.852 0 01260 98a10.806 10.806 0 01-5.57 9.81c-3.033 1.827-6.957 2.74-11.77 2.74a53.994 53.994 0 01-12.29-1.44v-.01z" fill="#A4B1CD"/></g><defs><clipPath id="clip0_4730_44545"><path fill="#fff" d="M0 0h260v180H0z"/></clipPath></defs></svg>