<svg width="260" height="180" viewBox="0 0 260 180" fill="none" xmlns="http://www.w3.org/2000/svg">
<path fill-rule="evenodd" clip-rule="evenodd" d="M36.5924 50.9628C43.3331 50.722 51.2776 52.1665 52.722 56.7406C55.1294 64.4443 42.8516 75.7591 32.259 81.2961C29.6109 82.7406 28.1665 82.9813 27.4442 82.9813C26.722 82.9813 26.722 82.2591 26.9627 81.7776C27.4442 81.0554 29.1294 79.3702 31.2961 77.4443C43.3331 68.0554 47.185 61.0739 45.0183 58.4258C43.5739 56.7406 37.5553 55.2961 31.0553 55.2961C29.3702 55.2961 24.7961 55.7776 24.3146 54.0924C24.0739 52.8887 30.0924 51.2035 36.5924 50.9628Z" fill="#a4b1cd"/>
<path fill-rule="evenodd" clip-rule="evenodd" d="M22.6295 86.5925C28.4073 86.3518 35.3888 87.3148 39.2406 90.2037C41.1666 91.6481 42.611 94.537 41.6481 97.6666C39.4814 106.574 31.0555 117.407 12.2777 125.593C6.25917 128.241 1.68509 129.204 0.722131 128.481C-0.240832 127.759 2.64806 121.741 3.61102 119.815C6.49991 113.556 10.3518 107.296 13.9629 101.759C15.4073 99.5925 17.3332 95.9814 19.2592 96.4629C20.9444 96.7037 19.0184 100.556 17.574 102.963C15.4073 107.056 9.3888 118.37 11.3147 119.093C15.6481 120.537 36.111 104.889 33.2221 96.2222C31.7777 92.1296 22.8703 91.8888 17.3332 91.8888C14.6851 91.8888 9.14806 92.6111 8.90732 90.4444C8.66658 88.7592 17.3332 86.8333 22.6295 86.5925Z" fill="#a4b1cd"/>
<path fill-rule="evenodd" clip-rule="evenodd" d="M66.926 76.9626C70.2964 77.6849 73.1853 78.1663 73.9075 79.6108C74.6297 81.296 70.7779 81.296 69.0927 81.296C59.9445 81.5367 54.6482 81.5367 54.1667 84.6663C53.926 88.5182 58.0186 92.6108 62.1112 98.1478C65.963 103.203 70.2964 108.259 69.0927 113.074C67.6482 118.852 60.426 120.296 53.4445 120.296C46.9445 120.296 40.6853 119.333 38.0371 118.852C34.6667 118.129 35.389 116.685 36.1112 116.203C37.0741 115.722 42.6112 115.722 46.463 115.481C49.5927 115 58.7408 115 60.1853 112.592C61.8704 109.703 57.5371 104.889 53.6853 99.5923C48.8704 93.0923 43.3334 86.5923 46.2223 81.5367C50.0741 75.5182 60.9075 75.7589 66.926 76.9626Z" fill="#a4b1cd"/>
<path fill-rule="evenodd" clip-rule="evenodd" d="M208.481 94.537C215.703 94.537 218.592 92.1296 219.796 86.3518L221.481 77.4444C221.481 76.9629 221.24 76.7222 220.759 76.7222H217.148L216.185 81.7778L215.703 84.4259L215.222 86.8333C214.5 90.2037 212.574 91.6481 208.963 91.6481C205.111 91.6481 203.907 90.2037 204.629 86.8333C204.629 86.8333 204.87 86.1111 204.87 85.8704L205.592 81.7778L206.555 76.7222H202.944C202.463 76.7222 201.981 76.9629 201.981 77.4444L200.296 86.3518C199.092 92.6111 202.222 94.537 208.481 94.537ZM84.4997 104.407C84.0182 106.815 85.9442 108.019 89.796 110.426C94.1293 113.074 95.0923 113.315 94.6108 114.759C94.3701 115.963 93.1664 115.963 91.2405 115.963H83.5367C82.5738 115.963 82.0923 116.204 82.0923 117.167L81.8516 118.611H91.4812C95.8145 118.611 98.7034 118.37 99.6664 115.722C100.148 114.518 100.148 113.074 98.9442 111.63C98.2219 110.907 97.4997 110.426 96.296 109.704C90.759 106.574 89.3145 106.333 89.5553 104.648C89.796 103.685 90.2775 103.685 92.4442 103.685H98.9442C99.9071 103.685 100.389 103.444 100.389 102.481L100.629 100.796H92.4442C88.1108 101.037 85.2219 101.037 84.4997 104.407ZM127.352 104.407C126.87 106.815 128.796 108.019 132.648 110.426C136.981 113.074 137.944 113.315 137.463 114.759C137.222 115.963 136.018 115.963 134.092 115.963H126.389C125.426 115.963 124.944 116.204 124.944 117.167L124.703 118.852H134.333C138.666 118.852 141.555 118.611 142.518 115.963C143 114.759 143 113.315 141.796 111.87C141.074 111.148 140.352 110.667 139.148 109.944C133.611 106.815 132.166 106.574 132.407 104.889C132.648 103.926 133.129 103.926 135.296 103.926H141.796C142.759 103.926 143.24 103.685 143.24 102.722L143.481 101.037H135.296C130.722 101.037 128.074 101.037 127.352 104.407ZM235.444 104.407C234.963 106.815 236.889 108.019 240.74 110.426C245.074 113.074 246.037 113.315 245.555 114.759C245.315 115.963 244.111 115.963 242.185 115.963H234.481C233.518 115.963 233.037 116.204 233.037 117.167L232.796 118.852H242.426C246.759 118.852 249.648 118.611 250.611 115.963C251.092 114.759 251.092 113.315 249.889 111.87C249.166 111.148 248.444 110.667 247.24 109.944C241.703 106.815 240.259 106.574 240.5 104.889C240.74 103.926 241.222 103.926 243.389 103.926H249.889C250.852 103.926 251.333 103.685 251.333 102.722L251.574 101.037H243.389C238.815 101.037 236.166 101.037 235.444 104.407ZM171.648 91.1666C172.129 89.9629 172.129 88.5185 170.926 87.0741C170.203 86.3518 169.481 85.8704 168.277 85.1481C162.74 82.0185 161.296 81.7778 161.537 80.0926C161.777 79.1296 162.259 79.1296 164.426 79.1296H170.926C171.889 79.1296 172.37 78.8889 172.37 77.9259L172.611 76.2407H164.426C159.852 76.2407 156.963 76.2407 156.24 79.6111C155.759 82.0185 157.685 83.2222 161.537 85.6296C165.87 88.2778 166.833 88.5185 166.352 89.9629C166.111 91.1666 164.907 91.1666 162.981 91.1666H155.277C154.315 91.1666 153.833 91.4074 153.833 92.3704L153.592 94.0555H163.222C167.796 94.2963 170.444 93.8148 171.648 91.1666ZM150.944 91.1666C151.426 89.9629 151.426 88.5185 150.222 87.0741C149.5 86.3518 148.777 85.8704 147.574 85.1481C142.037 82.0185 140.592 81.7778 140.833 80.0926C141.074 79.1296 141.555 79.1296 143.722 79.1296H150.222C151.185 79.1296 151.666 78.8889 151.666 77.9259L151.907 76.2407H143.722C139.148 76.2407 136.259 76.2407 135.537 79.6111C135.055 82.0185 136.981 83.2222 140.833 85.6296C145.166 88.2778 146.129 88.5185 145.648 89.9629C145.407 91.1666 144.203 91.1666 142.277 91.1666H134.815C133.852 91.1666 133.37 91.4074 133.37 92.3704L133.129 94.0555H142.759C147.092 94.2963 149.981 93.8148 150.944 91.1666ZM240.981 76.4815C240.018 76.4815 239.537 76.7222 239.537 77.4444L239.296 79.1296H246.277L243.389 94.0555H246.518C247.481 94.0555 247.963 93.8148 247.963 92.8518L250.611 79.1296H256.389C257.111 79.1296 257.592 78.6481 257.592 78.1666L257.833 76.4815H240.981V76.4815ZM89.796 81.537C89.3145 81.537 89.0738 81.7778 89.0738 82.0185L86.6664 94.0555H97.0182C102.796 94.0555 106.889 91.8889 108.092 85.1481C109.055 80.0926 106.889 76.4815 100.87 76.4815H88.3516V76.7222C88.1108 77.9259 88.1108 79.1296 90.2775 79.1296H99.4256C103.759 79.1296 104.481 81.2963 103.518 85.1481C102.555 89 101.111 90.9259 97.7404 91.1666H91.4812L93.4071 81.0555H89.796V81.537ZM238.574 92.6111C238.815 91.8889 238.333 91.6481 237.852 91.6481H228.463L231.352 77.4444C231.352 77.2037 231.111 76.9629 230.87 76.9629H227.018L223.648 94.537H238.574V92.6111ZM210.407 101.037H206.315L198.611 107.778L193.555 100.796H189.463C188.74 100.796 188.5 101.278 188.259 102L185.129 118.37H188.5C189.222 118.37 189.703 118.13 189.703 117.407L192.111 105.13L195.963 110.667C195.963 110.907 196.444 111.148 196.926 111.148H198.611C199.092 111.148 199.574 110.907 199.815 110.667L205.833 105.13L203.426 117.407C203.185 118.13 203.666 118.37 204.389 118.37H207.759L210.889 102C211.129 101.519 210.889 101.037 210.407 101.037ZM168.037 102.241L164.907 118.611H181.277L181.518 116.926C181.759 116.204 181.518 115.963 180.555 115.963H169.722L170.685 111.148H180.315C180.555 111.148 180.796 110.907 180.796 110.667L181.277 108.741C181.277 108.5 181.277 108.259 181.037 108.259H171.407L172.37 103.444H182.722C183.203 103.444 183.685 103.444 183.926 102.722L184.407 100.556H169.722C168.759 101.037 168.277 101.278 168.037 102.241ZM216.426 102.241L213.296 118.611H229.666L229.907 116.926C230.148 116.204 229.907 115.963 228.944 115.963H218.111L219.074 111.148H228.703C228.944 111.148 229.185 110.907 229.185 110.667L229.666 108.741C229.666 108.5 229.666 108.259 229.426 108.259H219.796L220.759 103.444H231.111C231.592 103.444 232.074 103.444 232.315 102.722L232.796 100.556H218.111C217.148 101.037 216.666 101.278 216.426 102.241ZM118.685 101.518L117.24 109.463C114.592 110.185 107.37 111.87 108.574 106.093L109.537 100.796H105.926C105.444 100.796 105.203 101.037 105.203 101.278L104.24 106.093C102.555 115.241 111.222 114.037 116.759 112.352L115.555 118.611H118.685C119.648 118.611 120.129 118.37 120.129 117.407L123.259 101.037H119.407C119.166 101.037 118.926 101.278 118.685 101.518ZM165.389 102.722L165.629 101.037H148.777C147.815 101.037 147.333 101.278 147.333 102L146.852 103.685H153.833L150.944 118.611H154.074C155.037 118.611 155.518 118.37 155.518 117.407L158.166 103.685H163.944C164.907 103.685 165.148 103.444 165.389 102.722ZM116.759 83.9444C117.481 80.5741 119.407 79.3704 123.018 79.3704C126.87 79.3704 127.833 80.8148 127.111 83.9444C127.111 83.9444 126.87 84.6666 126.87 84.9074C126.87 85.3889 126.629 86.1111 125.666 86.1111H116.277L116.759 83.9444ZM111.463 94.2963H114.833L115.796 89.2407H126.148L125.185 94.2963H128.555C129.037 94.2963 129.518 94.0555 129.518 93.5741L131.203 84.6666C132.407 77.9259 128.555 76.4815 123.5 76.4815C117.24 76.4815 113.87 77.9259 112.426 84.6666L110.74 93.3333C110.74 94.0555 110.981 94.2963 111.463 94.2963ZM181.518 83.9444C182.24 80.5741 184.166 79.3704 187.777 79.3704C191.629 79.3704 192.592 80.8148 191.87 83.9444C191.87 83.9444 191.629 84.6666 191.629 84.9074C191.629 85.3889 191.389 86.1111 190.426 86.1111H181.037L181.518 83.9444ZM176.222 94.2963H179.592L180.555 89.2407H190.907L189.944 94.2963H193.315C193.796 94.2963 194.277 94.0555 194.277 93.5741L195.963 84.6666C197.166 77.9259 193.315 76.4815 188.259 76.4815C182 76.4815 178.629 77.9259 177.185 84.6666L175.5 93.3333C175.5 94.0555 175.74 94.2963 176.222 94.2963Z" fill="#a4b1cd"/>
</svg>
