<svg id="Layer_1" data-name="Layer 1" xmlns="http://www.w3.org/2000/svg" viewBox="0 0 380 180"><defs><style>.cls-1{fill:#a4b1cd;fill-rule:evenodd}</style></defs><g id="NLL-Components"><g id="Footer"><g id="FOOTER---Desktop"><g id="FOOTER-2" data-name="FOOTER"><g id="Copyright"><g id="logo_norton_lifelock_179x34" data-name="logo norton lifelock 179x34"><path id="Fill-1" class="cls-1" d="M65 106.71a17.89 17.89 0 115.25-12.66A17.87 17.87 0 0165 106.71zM52.26 67.85a26.2 26.2 0 1026.26 26.2 26.27 26.27 0 00-26.26-26.2z"/><path id="Fill-3" class="cls-1" d="M80.86 65.86h2.05v-2.04h-2.05v2.04z"/><path id="Fill-4" class="cls-1" d="M80.86 61.8h2.05v-2.05h-2.05v2.05z"/><path id="Fill-5" class="cls-1" d="M75.11 67.84h1.91v-1.99h-1.91v1.99z"/><path id="Fill-6" class="cls-1" d="M71.31 71.67h1.93v-1.9h-1.93v1.9z"/><path id="Fill-7" class="cls-1" d="M77.02 69.77h2.14v-1.93h-2.14v1.93z"/><path id="Fill-8" class="cls-1" d="M69.4 69.77h1.91v-1.83H69.4v1.83z"/><path id="Fill-9" class="cls-1" d="M75.11 71.67h1.91v-1.9h-1.91v1.9z"/><path id="Fill-10" class="cls-1" d="M78.84 63.82h2.02V61.8h-2.02v2.02z"/><path id="Fill-11" class="cls-1" d="M75.11 65.85h3.73v-2.03h-3.73v2.03z"/><path id="Fill-12" class="cls-1" d="M73.24 69.77h1.86v-3.92h-1.86v3.92z"/><path id="Fill-13" class="cls-1" d="M73.24 73.6h-1.93v-1.93h-3.19v1.39H66.4v1.71h1.92v1.9H66.4v-1.9h-2v3h-1.96v1.91h-1.28v1.91h-1.4A107.06 107.06 0 0053 94.18c-4.3-6-7.65-8.35-10.28-9.21-1.42-.43-3.13 1.11-.77 3.54 5.42 5.95 7.12 10.87 8.77 14.8.87 2.07 4.78 2.39 5.56.29A63.87 63.87 0 0163.26 90v-2.12h1.53V86h1.61v-2.26h1.92v-2.15h-1.94v-2h1.94v2h1.9v-1.93h1.52v-2.33h1.71v-1.61h1.66v-4h-1.87v1.88"/><path id="Fill-14" class="cls-1" d="M176.43 100.38a6.7 6.7 0 01-.84 2.15 4.54 4.54 0 01-1.62 1.55 5.09 5.09 0 01-2.51.57 4.94 4.94 0 01-2.48-.57 4.66 4.66 0 01-1.6-1.55 6.48 6.48 0 01-.84-2.15 12 12 0 01-.24-2.38 12.39 12.39 0 01.24-2.44 6.31 6.31 0 01.84-2.15 4.57 4.57 0 014.08-2.14 4.88 4.88 0 012.51.6 4.61 4.61 0 011.62 1.54 6.53 6.53 0 01.84 2.15 12.31 12.31 0 01.24 2.44 12 12 0 01-.24 2.38zM179 90.32a9.18 9.18 0 00-3.28-2.11 11.72 11.72 0 00-4.3-.75 11.56 11.56 0 00-4.27.75 9.09 9.09 0 00-5.35 5.41 12.29 12.29 0 00-.7 4.38 12 12 0 00.74 4.32 9.1 9.1 0 005.34 5.38 13 13 0 008.58 0 9.15 9.15 0 003.28-2.1 9.41 9.41 0 002.09-3.28 12.08 12.08 0 00.74-4.32 12.29 12.29 0 00-.74-4.35 9.49 9.49 0 00-2.09-3.3z"/><path id="Fill-15" class="cls-1" d="M201.56 89.67a5.25 5.25 0 00-2.19-1.62 9.51 9.51 0 00-3.62-.59 7.88 7.88 0 00-3.39.78 6.9 6.9 0 00-2.94 2.49l-.06.1a.16.16 0 01-.13.08s-.07 0-.07-.08V88h-4.92v19.88h5.2V97.46a7.74 7.74 0 011.07-4.59 4.15 4.15 0 013.5-1.44 3.28 3.28 0 013 1.34 7.23 7.23 0 01.83 3.86v11.26H203V95.61a16.11 16.11 0 00-.33-3.39 6.27 6.27 0 00-1.13-2.55"/><path id="Fill-16" class="cls-1" d="M105.31 99.64L93.1 80.32h-5.61v27.62h5.16V88.53l.41.64 11.76 18.77h5.65V80.32h-5.16v19.32"/><path id="Fill-17" class="cls-1" d="M128.17 100.38a6.27 6.27 0 01-.84 2.15 4.46 4.46 0 01-1.62 1.55 5.08 5.08 0 01-2.5.57 5 5 0 01-2.49-.57 4.66 4.66 0 01-1.6-1.55 6.7 6.7 0 01-.84-2.15A12 12 0 01118 98a12.39 12.39 0 01.24-2.44 6.53 6.53 0 01.84-2.15 4.72 4.72 0 011.6-1.54 4.78 4.78 0 012.49-.6 4.87 4.87 0 012.5.6 4.61 4.61 0 011.62 1.54 6.12 6.12 0 01.84 2.15 12.31 12.31 0 01.24 2.44 12 12 0 01-.2 2.38zm2.61-10.06a9.18 9.18 0 00-3.28-2.11 11.7 11.7 0 00-4.29-.75 11.58 11.58 0 00-4.28.75 9.14 9.14 0 00-3.25 2.11 9.28 9.28 0 00-2.1 3.3 12.29 12.29 0 00-.74 4.35 12 12 0 00.74 4.32 9.29 9.29 0 002.1 3.28 9.12 9.12 0 003.25 2.1 12 12 0 004.28.73 12.24 12.24 0 004.3-.73 9.2 9.2 0 003.27-2.1 9.36 9.36 0 002.09-3.28 12 12 0 00.74-4.32 12.29 12.29 0 00-.74-4.35 9.35 9.35 0 00-2.09-3.3z"/><path id="Fill-18" class="cls-1" d="M155.84 82h-5.19l-.06 5.76h-1.35a13.76 13.76 0 00-4.62.69 5.76 5.76 0 00-3.13 2.62 6 6 0 00-.37.81.12.12 0 01-.12.12c-.06 0-.1 0-.1-.09V88.1H136V108h5.2v-9a11.27 11.27 0 01.28-2.6A6.5 6.5 0 01142 95c.94-1.5 3-3 7.36-3h1.2l-.11 11.6a5 5 0 00.47 2.38 3.36 3.36 0 001.31 1.38 5.67 5.67 0 002 .68 17.23 17.23 0 002.45.2h1.69a11.36 11.36 0 001.38-.11v-3.88a5.8 5.8 0 01-.6.06h-.93a2.94 2.94 0 01-2.05-.56 2.85 2.85 0 01-.52-2l.1-9.72h4v-4.28h-4l.05-5.71"/><path id="Fill-19" class="cls-1" d="M214.73 82.42h-6.05v25.39h18.41v-4.67h-12.36V82.42"/><path id="Fill-20" class="cls-1" d="M229.69 107.81h5.61V87.87h-5.61v19.94z"/><path id="Fill-21" class="cls-1" d="M229.69 85.1h5.61v-4.78h-5.61v4.78z"/><path id="Fill-22" class="cls-1" d="M242.42 82.28c-.85.83-1.18 2.14-1.18 4.64v1h-3.09v4.35h3.09v15.59H247V92.22h4.16V87.9h-4.19v-.8c0-1 .07-1.38.26-1.59s.44-.26 1.19-.26h2.74v-4.2h-4.67c-2.19 0-3.16.4-4 1.23"/><path id="Fill-23" class="cls-1" d="M258.17 96c0-2.79.22-3.41.48-3.66s.85-.37 1.82-.37h3.08c1.15 0 1.49.11 1.71.33s.44 1 .44 3.7zm7.28-8.12h-6.91c-2.08 0-3.19.32-4.05 1.19-1.33 1.34-1.85 2.9-1.85 8.78s.52 7.43 1.85 8.74c.89.91 2 1.23 4.05 1.23h7.57c2.19 0 3-.54 3.64-1.16 1-1 1.34-2.13 1.38-5.1h-5.24c0 1.42-.11 1.58-.3 1.8s-.52.37-1.67.37h-3.45c-1 0-1.56-.08-1.82-.37s-.45-.8-.48-4h12.14c.67 0 .82-.21.82-.79v-.94c0-5.73-.3-7.29-1.64-8.6-.85-.87-2-1.19-4-1.19z"/><path id="Fill-24" class="cls-1" d="M277.34 82.43h-2.94v25.38h16.16v-2.46h-13.22V82.43"/><path id="Fill-25" class="cls-1" d="M305.35 104.88c-.41.4-1 .54-2.37.54h-4.61c-1.41 0-2-.14-2.41-.54-.59-.59-.89-1.53-.89-6.79s.3-6.16.89-6.74 1-.55 2.41-.55H303c1.41 0 2 .11 2.37.55.6.58.93 1.52.93 6.74s-.3 6.2-.95 6.79zm-2.08-16.47h-5.2c-2 0-3.19.26-4 1.09-1.26 1.23-1.71 2.79-1.71 8.59s.45 7.4 1.71 8.63c.85.84 2 1.09 4 1.09h5.2c2 0 3.19-.25 4-1.09 1.3-1.23 1.75-2.79 1.75-8.63s-.45-7.36-1.75-8.59c-.82-.83-2-1.09-4-1.09z"/><path id="Fill-26" class="cls-1" d="M324.38 104.91c-.45.4-.93.51-2.15.51h-4.35c-1.41 0-2-.15-2.41-.54-.59-.58-.89-1.53-.89-6.79s.3-6.16.89-6.74 1-.55 2.41-.55h4.35c1.22 0 1.67.11 2.08.51s.63 1 .74 3.45h2.67c-.07-3.23-.45-4.46-1.37-5.37-.74-.73-1.6-1-3.57-1h-5.19c-2 0-3.2.25-4 1.09-1.26 1.23-1.71 2.79-1.71 8.59s.45 7.4 1.71 8.64c.85.83 2 1.08 4 1.08h5.23c1.89 0 2.82-.29 3.53-1 1-.94 1.33-2.06 1.45-5.58h-2.68c-.07 2.46-.29 3.23-.74 3.66"/><path id="Fill-27" class="cls-1" d="M346.27 88.41h-3.31l-7.31 8.49h-2.04V81.7h-2.75v26.11h2.75v-8.67h1.96l7.54 8.67h3.45l-8.76-9.93 8.47-9.47"/><path id="Fill-28" class="cls-1" d="M352.94 87.55l-.64 2.4-.68-2.4h-1.06v3.29h.67v-2.52l.72 2.52h.63l.73-2.52v2.52h.69v-3.29h-1.06"/><path id="Fill-29" class="cls-1" d="M347.42 88.09h.88v2.75h.71v-2.75h.87v-.54h-2.46v.54"/></g></g></g></g></g></g></svg>