<svg width="86" height="60" viewBox="0 0 86 60" fill="none" xmlns="http://www.w3.org/2000/svg">
<path d="M45.805 12.1217C45.5695 12.158 45.343 13.0253 44.8878 13.4772C44.5549 13.8033 44.1393 13.7829 43.9185 14.186C43.8347 14.3366 43.8619 14.5937 43.7668 14.8406C43.581 15.3343 42.9266 15.3784 42.9266 15.9163C42.9243 16.4972 43.4724 16.6082 43.9468 17.0203C44.3171 17.3521 44.3534 17.5808 44.8017 17.7416C45.1845 17.8719 45.7541 17.4461 46.267 17.599C46.6883 17.7247 47.0914 17.8152 47.1865 18.2478C47.2703 18.6464 47.1809 19.2646 46.6702 19.1934C46.498 19.1741 45.7518 18.9227 44.8346 19.0201C43.7282 19.1458 42.4656 19.5069 42.3423 20.7402C42.2743 21.4298 43.1269 22.2428 43.9502 22.0775C44.5197 21.9653 44.2503 21.294 44.5605 20.9678C44.967 20.55 47.2703 22.4263 49.4116 22.4263C50.313 22.4263 50.9833 22.1987 51.6492 21.5011C51.7114 21.4479 51.7873 21.3335 51.8836 21.3267C51.9742 21.3335 52.1327 21.4229 52.1848 21.4615C53.9094 22.8475 55.2127 25.6275 61.5506 25.6603C62.4418 25.6648 63.4574 26.0906 64.2863 26.847C65.0258 27.531 65.4584 28.5942 65.8784 29.6734C66.5126 31.2927 67.6495 32.8678 69.3729 34.6207C69.4669 34.7147 70.8858 35.8176 70.999 35.9003C71.0171 35.9116 71.1213 36.1607 71.0851 36.3C71.0432 37.3508 70.8903 40.407 73.1686 40.5452C73.7258 40.5735 73.5796 40.1817 73.5796 39.9122C73.5786 39.38 73.4811 38.8512 73.762 38.3065C74.1458 37.5569 72.9478 37.2115 72.983 35.5911C73.0078 34.3829 71.9932 34.5889 71.478 33.6683C71.1813 33.135 70.9175 32.852 70.9367 32.1996C71.0522 28.5286 70.1554 26.1166 69.7081 25.5244C69.3594 25.0771 69.0706 24.8994 69.3899 24.6921C71.2912 23.4363 71.7226 22.2677 71.7226 22.2677C72.7337 19.8909 73.6431 17.7201 74.8966 16.7645C75.1492 16.5674 75.7969 16.0839 76.1943 15.8936C77.364 15.3421 77.98 15.0082 78.3198 14.6774C78.8576 14.1532 79.2822 13.0604 78.767 12.398C78.1261 11.5804 77.0175 12.2293 76.5284 12.5191C73.0328 14.5937 72.5175 18.2534 71.307 20.3552C70.3411 22.0344 68.7705 23.2676 67.3664 23.3684C66.3133 23.4465 65.1787 23.2336 64.0486 22.7376C61.3003 21.5328 59.7965 19.977 59.4421 19.7018C58.7038 19.1322 52.9717 13.5055 48.3279 13.2756C48.3279 13.2756 47.7516 12.1217 47.6066 12.1025C47.2669 12.0594 46.9193 12.7921 46.6702 12.8771C46.4358 12.9551 46.0417 12.0831 45.805 12.1217ZM25.3613 45.7043C24.9242 45.6941 24.5528 45.3351 24.5528 44.8913L24.554 30.406H19.7799V46.3735C19.7799 47.156 20.414 47.7947 21.1919 47.7947H29.5363C30.3199 47.7947 30.9461 47.156 30.9461 46.3735V30.406H26.1766L26.1721 44.8913C26.1721 45.3351 25.8006 45.6941 25.3613 45.7043ZM41.3458 30.406H34.1201C33.2652 30.406 32.5688 31.1013 32.5688 31.9653V47.7946H37.3473V33.2744C37.3507 32.8294 37.7108 32.4772 38.1547 32.4772C38.6009 32.4772 38.9587 32.8214 38.9688 33.2619V47.7947H43.7282V33.2618C43.7339 32.8213 44.0916 32.4771 44.5367 32.4771C44.9783 32.4771 45.343 32.8293 45.3464 33.2743V47.7947H50.1249V31.9653C50.1249 31.1013 49.4274 30.406 48.5725 30.406H41.3458ZM13.391 33.3049C13.3945 32.8213 13.0004 32.4771 12.5826 32.4771H11.7718V41.2722H12.5826C13.0038 41.2722 13.3945 40.937 13.391 40.4558V33.3049ZM16.5945 43.4248H11.7718V47.7947H7V30.406H16.6252C17.4868 30.406 18.1594 31.1058 18.1594 31.9721V41.8588C18.1594 42.7262 17.4608 43.4248 16.5945 43.4248ZM66.5001 43.9061C65.541 43.9061 64.7359 44.7349 64.7359 45.7394C64.7359 46.7472 65.541 47.5693 66.5307 47.5693C67.5125 47.5693 68.3074 46.7472 68.3074 45.7394C68.3074 44.7327 67.5125 43.9061 66.5306 43.9061H66.5001ZM68.6493 45.7337C68.6493 46.9147 67.7027 47.875 66.5307 47.875C65.3462 47.875 64.3951 46.9216 64.3951 45.7337C64.3951 44.5685 65.3462 43.5947 66.4956 43.5947C67.7027 43.5947 68.6493 44.5391 68.6493 45.7337Z" fill="#A4B1CD"/>
<path d="M66.3099 45.5978C66.6417 45.5978 66.8161 45.4801 66.8161 45.2446C66.8161 45.035 66.6474 44.9275 66.3246 44.9275H66.2295V45.5978H66.3099ZM67.5318 46.9725H66.9622L66.2295 45.9976V46.9725H65.7641V44.5074H66.2533C66.918 44.5074 67.2713 44.7588 67.2713 45.2389C67.2713 45.5593 67.0629 45.8436 66.7719 45.9285L66.7379 45.941L67.5318 46.9725ZM58.1365 41.2756V33.2687C58.1252 32.8259 57.7685 32.4862 57.3235 32.4862C56.883 32.4862 56.5183 32.8395 56.515 33.2811V41.2756H58.1365ZM58.1365 47.7947V43.4294H56.515V47.7947H51.7455V31.9653C51.7455 31.1013 52.4418 30.406 53.2968 30.406H61.3547C62.2119 30.406 62.9083 31.1013 62.9083 31.9653V47.7946L58.1365 47.7947Z" fill="#A4B1CD"/>
</svg>
