<svg width="260" height="260" viewBox="0 0 260 260" fill="none" xmlns="http://www.w3.org/2000/svg">
<path fill-rule="evenodd" clip-rule="evenodd" d="M106.556 84.1489L101.91 72.9766C101.91 72.9766 100.568 70.5777 99.2088 70.0241C97.8667 69.4538 88.9423 66.7194 88.9423 66.7194C88.9423 66.7194 87.6841 66.4845 86.1072 67.1388C84.5471 67.793 67.235 75.2748 67.235 75.2748C66.6479 75.5264 66.3795 75.4425 66.3795 75.4425C66.3795 75.4425 62.7728 73.4798 61.4643 73.2282C60.1558 72.9598 58.4951 73.4966 58.4951 73.4966C58.0086 73.7986 37.9956 82.723 37.9956 82.723C37.9956 82.723 37.0395 83.0753 36.5194 84.6857C35.9994 86.2962 35.3787 88.9467 35.3787 88.9467C35.3787 88.9467 35.3116 89.668 34.0702 90.6578C32.8288 91.6643 24.0218 99.1293 22.2772 111.66C20.5325 124.192 27.5446 132.546 28.8028 134.592C30.0609 136.639 28.7524 150.395 31.2016 174.937C33.6341 199.479 48.7822 205.401 59.4848 203.74C70.1875 202.079 76.193 190.941 76.3776 179.013C76.5453 167.086 76.646 159.168 78.2061 157.071C79.7662 154.974 80.8398 156.031 81.8128 156.501C82.7857 156.987 84.6646 156.551 88.4893 155.109C92.3141 153.666 103.805 148.969 103.805 148.969C103.805 148.969 106.372 147.962 107.513 144.305C108.636 140.648 109.609 134.391 109.609 134.391C109.609 134.391 109.609 134.274 109.677 134.19C115.397 138.685 122.594 141.37 130.428 141.37C133.313 141.37 136.131 141 138.798 140.313L146.029 150.445L142.606 139.088C145.71 137.88 148.595 136.219 151.162 134.19C151.212 134.274 151.229 134.391 151.229 134.391C151.229 134.391 152.185 140.665 153.326 144.305C154.45 147.962 157.016 148.969 157.016 148.969C157.016 148.969 168.508 153.666 172.332 155.109C176.157 156.551 178.036 156.987 179.009 156.501C179.982 156.014 181.056 154.974 182.616 157.071C184.176 159.168 184.276 167.086 184.444 179.013C184.612 190.941 190.617 202.079 201.337 203.74C212.04 205.401 227.188 199.479 229.62 174.937C232.052 150.395 230.744 136.639 232.019 134.592C233.277 132.546 240.289 124.192 238.545 111.66C236.8 99.1293 227.993 91.6643 226.751 90.6578C225.51 89.6512 225.443 88.9467 225.443 88.9467C225.443 88.9467 224.822 86.2962 224.302 84.6857C223.782 83.0753 222.826 82.723 222.826 82.723C222.826 82.723 202.813 73.7986 202.327 73.4966C201.84 73.1947 202.41 72.6243 202.41 72.6243L207.326 67.3568L193.57 75.2748C193.57 75.2748 176.275 67.793 174.698 67.1388C173.138 66.4845 171.863 66.7194 171.863 66.7194C171.863 66.7194 162.938 69.4538 161.596 70.0241C160.254 70.5945 158.895 72.9766 158.895 72.9766L154.249 84.1489C148.159 78.0092 139.721 74.2012 130.394 74.2012C126.435 74.2012 122.627 74.889 119.088 76.1471L110.163 61.7874L102.077 58.3317L105.349 68.8666L102.077 69.0008L109.911 81.1461C108.72 82.0688 107.596 83.0585 106.54 84.1322L106.556 84.1489Z" fill="#111927"/>
<path fill-rule="evenodd" clip-rule="evenodd" d="M157.419 89.8693L162.988 76.5497C162.988 76.5497 163.257 76.0633 164.649 75.6439C166.041 75.2077 173.708 72.8088 173.708 72.8088C173.708 72.8088 174.312 72.5404 175.1 72.8927C175.536 73.094 181.089 75.5768 185.937 77.7408L178.002 83.9477C177.197 81.7501 176.375 79.5525 175.939 78.7976C174.983 77.1369 173.59 76.9691 173.238 76.9691C172.886 76.9691 164.616 79.6699 164.23 79.8041C163.844 79.9384 160.875 86.8498 159.835 88.0744C158.795 89.299 157.436 89.8526 157.436 89.8526L157.419 89.8693ZM193.15 80.9952L196.539 78.9989C196.539 78.9989 197.361 78.6467 198.149 78.9989C198.938 79.3512 216.3 87.5208 216.3 87.5208C216.3 87.5208 217.005 87.8899 216.753 88.628C216.518 89.3661 216.032 89.4332 215.344 89.45C214.64 89.4667 208.265 88.9299 202.477 94.147C196.69 99.3642 195.952 106.46 195.381 107.03C194.811 107.601 189.477 106.796 187.547 105.437C185.618 104.095 185.266 103.021 185.266 102.35C185.266 101.679 185.383 96.9485 185.266 95.0194C185.149 93.0902 185.115 92.8721 185.115 92.8721C185.115 92.8721 180.787 90.1377 180.217 89.5674C180.166 89.5171 180.099 89.3996 180.015 89.2319L193.134 80.9952H193.15Z" fill="#2F3B53"/>
<path fill-rule="evenodd" clip-rule="evenodd" d="M187.295 115.787C187.513 115.703 187.714 115.636 187.932 115.569C183.453 119.176 181.91 126.138 184.544 132.714C187.714 140.615 195.75 144.96 202.477 142.426C203.886 141.89 205.127 141.101 206.184 140.111C204.758 142.645 202.544 144.641 199.692 145.681C192.428 148.331 183.755 143.785 180.333 135.532C176.911 127.278 180.031 118.438 187.295 115.787Z" fill="#1A2332"/>
<path fill-rule="evenodd" clip-rule="evenodd" d="M196.54 137.159C193.386 137.109 190.216 134.894 188.773 131.455C187.532 128.453 187.934 125.316 189.578 123.202C189.025 125.5 189.226 128.1 190.333 130.617C191.625 133.552 193.89 135.834 196.54 137.159Z" fill="#1A2332"/>
<path d="M205.979 135.778C209.686 133.638 210.449 128.02 207.683 123.23C204.918 118.44 199.671 116.291 195.964 118.432C192.257 120.572 191.494 126.19 194.259 130.98C197.025 135.77 202.272 137.918 205.979 135.778Z" fill="#1A2332"/>
<path fill-rule="evenodd" clip-rule="evenodd" d="M205.984 120.921C206.621 121.592 207.191 122.363 207.678 123.219C208.617 124.846 209.154 126.557 209.288 128.201C209.137 129.912 208.349 131.372 206.973 132.16C204.39 133.653 200.733 132.16 198.82 128.822C196.891 125.483 197.428 121.575 200.012 120.082C201.806 119.058 204.105 119.444 205.984 120.904V120.921Z" fill="#2F3B53"/>
<path fill-rule="evenodd" clip-rule="evenodd" d="M178.455 95.271L181.458 93.7948C181.458 93.7948 181.592 102.585 180.937 106.98C180.283 111.375 177.113 116.341 176.979 116.039C176.844 115.737 178.287 111.291 178.539 104.766C178.807 98.2403 178.455 95.271 178.455 95.271Z" fill="#9CEA00"/>
<path fill-rule="evenodd" clip-rule="evenodd" d="M193.537 156.451L199.492 153.297C199.492 153.297 200.935 152.777 200.448 154.119C199.962 155.461 193.487 160.426 193.218 167.908C192.95 175.39 193.386 184.012 193.738 188.441C194.091 192.887 197.345 196.107 196.741 196.057C196.137 196.007 191.172 193.96 190.652 184.314C190.299 177.906 190.048 168.613 189.93 163.077C189.846 159.621 190.551 158.044 193.537 156.451Z" fill="#9CEA00"/>
<path fill-rule="evenodd" clip-rule="evenodd" d="M207.359 196.795C207.359 196.795 213.533 189.833 214.405 173.813C214.506 172.068 214.59 170.424 214.657 168.831C217.794 166.533 221.367 162.725 224.554 156.417C223.732 171.381 220.998 195.52 207.359 196.778V196.795Z" fill="#2F3B53"/>
<path fill-rule="evenodd" clip-rule="evenodd" d="M185.283 102.367C185.283 103.038 185.635 104.112 187.565 105.454C189.494 106.796 194.828 107.601 195.399 107.047C195.969 106.477 196.707 99.381 202.495 94.1638C208.282 88.9467 214.657 89.4835 215.361 89.4667C216.066 89.45 216.536 89.3829 216.77 88.6448C217.005 87.9066 216.318 87.5376 216.318 87.5376C216.318 87.5376 208.148 83.6793 202.763 81.163C200.884 81.834 198.922 82.8069 197.747 84.1825C194.963 87.4873 188.034 101.411 186.642 101.897C185.384 102.333 185.317 99.8171 185.317 99.3642C185.3 100.807 185.283 102.065 185.283 102.384V102.367Z" fill="#1A2332"/>
<path fill-rule="evenodd" clip-rule="evenodd" d="M187.295 115.787C180.031 118.438 176.911 127.278 180.333 135.532C180.384 135.666 180.434 135.783 180.501 135.918C180.971 134.29 181.759 132.344 183.034 130.264C183.219 129.962 183.403 129.677 183.571 129.409C182.514 123.923 184.208 118.589 187.932 115.586C187.714 115.653 187.496 115.72 187.295 115.804V115.787Z" fill="#9CEA00"/>
<path fill-rule="evenodd" clip-rule="evenodd" d="M223.597 95.6065C227.623 98.2402 230.743 102.702 232.287 107.903C231.549 107.651 230.76 107.5 229.972 107.5C225.912 107.5 222.976 111.174 223.429 115.703C223.882 120.233 227.539 123.906 231.599 123.906C231.666 123.906 231.733 123.906 231.783 123.906C229.888 128.738 226.432 132.277 222.255 133.72C223.933 132.311 224.906 129.962 224.637 127.295C224.201 122.984 220.728 119.478 216.853 119.478C214.371 119.478 212.341 120.904 211.318 123.068C211.083 122.564 210.831 122.061 210.546 121.575C208.432 117.918 205.329 115.351 202.074 114.21C200.984 113.825 199.994 113.17 200.011 111.828C200.011 111.342 200.045 110.855 200.078 110.369C200.128 109.614 200.229 108.876 200.346 108.154C200.95 112.013 204.121 115.049 207.644 115.049C211.301 115.049 213.934 111.744 213.532 107.668C213.129 103.592 209.841 100.287 206.184 100.287C204.758 100.287 203.483 100.79 202.477 101.662C204.758 97.2673 208.449 94.2309 212.743 93.3251C212.257 94.3316 212.039 95.5394 212.173 96.8311C212.525 100.421 215.444 103.34 218.665 103.34C221.886 103.34 224.218 100.421 223.865 96.8311C223.815 96.4117 223.748 95.9923 223.631 95.5897L223.597 95.6065Z" fill="#1A2332"/>
<path fill-rule="evenodd" clip-rule="evenodd" d="M223.598 95.6065C227.607 98.2402 230.744 102.702 232.287 107.903C231.549 107.651 230.761 107.5 229.972 107.5C225.913 107.5 222.977 111.174 223.43 115.703C223.883 120.233 227.54 123.906 231.6 123.906C231.667 123.906 231.734 123.906 231.784 123.906C230.425 127.362 228.278 130.147 225.644 131.992C225.124 131.741 224.604 131.472 224.101 131.187C224.571 130.046 224.772 128.721 224.638 127.312C224.202 123.001 220.729 119.495 216.854 119.495C216.351 119.495 215.864 119.562 215.395 119.662C215.16 118.79 214.959 117.884 214.824 116.911C214.204 112.868 214.036 107.299 214.673 101.78C215.797 102.77 217.19 103.357 218.649 103.357C221.87 103.357 224.202 100.438 223.849 96.8479C223.799 96.4285 223.732 96.0091 223.615 95.6065H223.598Z" fill="#2F3B53"/>
<path fill-rule="evenodd" clip-rule="evenodd" d="M230.475 109.916C233.159 109.916 235.592 112.348 235.877 115.351C236.179 118.354 234.233 120.786 231.549 120.786C228.865 120.786 226.432 118.354 226.147 115.351C225.845 112.348 227.791 109.916 230.475 109.916ZM220.578 92.4192C223.631 92.4192 226.382 95.1871 226.718 98.5925C227.053 101.998 224.855 104.766 221.802 104.766C218.749 104.766 215.998 101.998 215.663 98.5925C215.327 95.1871 217.525 92.4192 220.578 92.4192ZM207.862 99.8674C210.915 99.8674 213.666 102.635 214.002 106.041C214.337 109.446 212.14 112.214 209.087 112.214C206.034 112.214 203.282 109.446 202.947 106.041C202.611 102.635 204.809 99.8674 207.862 99.8674ZM217.776 115.838C220.829 115.838 223.581 118.605 223.916 122.011C224.252 125.416 222.054 128.184 219.001 128.184C215.948 128.184 213.197 125.416 212.861 122.011C212.526 118.605 214.723 115.838 217.776 115.838Z" fill="#1A2332"/>
<path fill-rule="evenodd" clip-rule="evenodd" d="M230.476 109.916C233.16 109.916 235.592 112.348 235.877 115.351C236.079 117.347 235.29 119.092 233.931 120.031C233.797 120.048 233.663 120.048 233.529 120.048C230.845 120.048 228.412 117.616 228.127 114.613C227.926 112.617 228.731 110.872 230.073 109.933C230.207 109.916 230.341 109.916 230.476 109.916ZM224.386 103.977C224.185 103.994 223.984 104.011 223.782 104.011C220.729 104.011 217.978 101.243 217.643 97.8377C217.408 95.5059 218.364 93.4761 219.974 92.436C220.176 92.4192 220.377 92.4025 220.578 92.4025C223.631 92.4025 226.382 95.1704 226.718 98.5758C226.953 100.908 225.997 102.937 224.386 103.977ZM211.671 111.426C211.469 111.442 211.268 111.459 211.067 111.459C208.014 111.459 205.262 108.691 204.927 105.286C204.692 102.954 205.648 100.924 207.259 99.8843C207.46 99.8675 207.661 99.8507 207.863 99.8507C210.916 99.8507 213.667 102.619 214.002 106.024C214.237 108.356 213.281 110.386 211.671 111.426ZM221.585 127.396C221.383 127.413 221.182 127.429 220.981 127.429C217.928 127.429 215.177 124.661 214.841 121.256C214.606 118.924 215.562 116.894 217.173 115.854C217.374 115.838 217.575 115.821 217.777 115.821C220.83 115.821 223.581 118.589 223.917 121.994C224.151 124.326 223.195 126.356 221.585 127.396Z" fill="#2F3B53"/>
<path fill-rule="evenodd" clip-rule="evenodd" d="M220.075 117.599C220.544 117.364 221.064 117.297 221.568 117.347C222.843 118.471 223.732 120.132 223.916 121.994C223.983 122.665 223.95 123.303 223.832 123.906C223.664 124.041 223.497 124.158 223.295 124.242C221.752 124.997 219.789 124.108 218.884 122.279C217.994 120.451 218.514 118.354 220.041 117.599H220.075Z" fill="white"/>
<path fill-rule="evenodd" clip-rule="evenodd" d="M233.445 110.956C234.753 111.946 235.71 113.539 235.877 115.351C235.961 116.274 235.844 117.146 235.559 117.901C234.032 118.605 232.086 117.733 231.197 115.905C230.308 114.076 230.828 111.979 232.355 111.224C232.69 111.057 233.059 110.973 233.428 110.956H233.445Z" fill="white"/>
<path fill-rule="evenodd" clip-rule="evenodd" d="M222.542 93.9122C223.012 93.6773 223.515 93.6102 224.035 93.6605C225.478 94.7845 226.518 96.5627 226.719 98.5757C226.753 98.9951 226.769 99.3977 226.736 99.7835C226.484 100.102 226.165 100.371 225.796 100.555C224.253 101.31 222.29 100.421 221.385 98.5925C220.495 96.764 221.015 94.6671 222.542 93.9122Z" fill="white"/>
<path fill-rule="evenodd" clip-rule="evenodd" d="M209.54 101.646C210.278 101.277 211.134 101.293 211.906 101.629C213.046 102.753 213.835 104.313 214.002 106.041C214.036 106.376 214.053 106.712 214.036 107.031C213.768 107.584 213.348 108.02 212.778 108.305C211.235 109.06 209.272 108.171 208.366 106.343C207.477 104.514 207.997 102.417 209.523 101.662L209.54 101.646Z" fill="white"/>
<path fill-rule="evenodd" clip-rule="evenodd" d="M216.921 144.49C215.562 147.979 215.31 155.83 214.656 168.848C217.793 166.549 221.366 162.741 224.554 156.434C224.705 153.649 224.789 151.183 224.872 149.237C225.007 145.748 224.94 142.577 223.681 141.319C222.021 139.659 218.464 140.581 216.938 144.49H216.921Z" fill="#1A2332"/>
<path fill-rule="evenodd" clip-rule="evenodd" d="M103.402 89.8693L97.833 76.5497C97.833 76.5497 97.5646 76.0633 96.1723 75.6439C94.7799 75.2077 87.1136 72.8088 87.1136 72.8088C87.1136 72.8088 86.5097 72.5404 85.7212 72.8927C84.9328 73.245 67.6542 80.9952 67.6542 80.9952L64.2656 78.9989C64.2656 78.9989 63.4436 78.6467 62.6552 78.9989C61.8668 79.3512 44.5043 87.5208 44.5043 87.5208C44.5043 87.5208 43.7997 87.8899 44.0514 88.628C44.2862 89.3661 44.7727 89.4332 45.4605 89.45C46.1651 89.4667 52.5229 88.9299 58.3272 94.147C64.1146 99.3642 64.8528 106.46 65.4231 107.03C65.9935 107.601 71.328 106.796 73.2572 105.437C75.1863 104.095 75.5386 103.021 75.5386 102.35C75.5386 101.679 75.4212 96.9485 75.5386 95.0194C75.6393 93.0902 75.6896 92.8721 75.6896 92.8721C75.6896 92.8721 80.0176 90.1377 80.588 89.5674C81.1584 88.997 83.9431 80.4752 84.8993 78.8144C85.8555 77.1537 87.2478 76.9859 87.6001 76.9859C87.9524 76.9859 96.2226 79.6867 96.6084 79.8209C96.9943 79.9551 99.9635 86.8666 101.004 88.0912C102.044 89.3158 103.402 89.8693 103.402 89.8693Z" fill="#2F3B53"/>
<path fill-rule="evenodd" clip-rule="evenodd" d="M73.5423 115.787C73.3242 115.703 73.1229 115.636 72.9049 115.569C77.3839 119.176 78.9272 126.138 76.2935 132.714C73.1229 140.615 65.0876 144.96 58.3607 142.426C56.9515 141.89 55.7102 141.101 54.6533 140.111C56.0792 142.645 58.2936 144.641 61.1454 145.681C68.4091 148.331 77.0819 143.785 80.5041 135.532C83.9262 127.278 80.806 118.438 73.5423 115.787Z" fill="#1A2332"/>
<path fill-rule="evenodd" clip-rule="evenodd" d="M64.2988 137.159C67.4526 137.109 70.6231 134.894 72.0658 131.455C73.3072 128.453 72.9046 125.316 71.2606 123.202C71.8142 125.5 71.6129 128.1 70.5057 130.617C69.214 133.552 66.9493 135.834 64.2988 137.159Z" fill="#1A2332"/>
<path d="M54.8573 135.778C51.1504 133.638 50.3873 128.02 53.1528 123.23C55.9184 118.44 61.1653 116.291 64.8721 118.432C68.579 120.572 69.3421 126.19 66.5766 130.98C63.811 135.77 58.5641 137.918 54.8573 135.778Z" fill="#1A2332"/>
<path fill-rule="evenodd" clip-rule="evenodd" d="M54.8545 120.921C54.2171 121.592 53.6467 122.363 53.1602 123.219C52.2208 124.846 51.684 126.557 51.5498 128.201C51.7008 129.912 52.4892 131.372 53.8648 132.16C56.4482 133.653 60.1052 132.16 62.0176 128.822C63.9468 125.483 63.4099 121.575 60.8266 120.082C59.0316 119.058 56.7334 119.444 54.8545 120.904V120.921Z" fill="#2F3B53"/>
<path fill-rule="evenodd" clip-rule="evenodd" d="M104.073 129.677C103.435 128.721 103.351 128.469 102.982 129.644C102.177 132.227 100.214 140.212 99.9292 140.799C99.5769 141.487 98.4865 141.705 97.4464 141.118C96.4064 140.531 91.1221 136.991 90.2163 136.572C89.3272 136.152 88.371 137.427 88.6226 138.568C88.891 139.726 90.9879 140.732 92.1622 141.453C93.3533 142.175 86.9619 149.841 87.0457 150.411C87.1128 150.848 93.5378 148.6 98 146.369C101.691 144.54 101.355 144.507 102.445 140.497C103.418 136.891 104.308 132.529 104.593 131.12C104.744 130.398 104.459 130.264 104.056 129.66L104.073 129.677Z" fill="#1A2332"/>
<path fill-rule="evenodd" clip-rule="evenodd" d="M82.3843 95.271L79.3815 93.7948C79.3815 93.7948 79.2473 102.585 79.9015 106.98C80.5557 111.375 83.7263 116.341 83.8605 116.039C83.9947 115.737 82.552 111.291 82.3004 104.766C82.032 98.2403 82.3843 95.271 82.3843 95.271Z" fill="#9CEA00"/>
<path fill-rule="evenodd" clip-rule="evenodd" d="M67.3027 156.451L61.3474 153.297C61.3474 153.297 59.9048 152.777 60.3912 154.119C60.8777 155.461 67.353 160.426 67.6214 167.908C67.8898 175.39 67.4536 184.012 67.1014 188.441C66.7491 192.887 63.4947 196.107 64.0986 196.057C64.7025 196.007 69.668 193.96 70.188 184.314C70.5403 177.906 70.7919 168.613 70.9094 163.077C70.9932 159.621 70.2887 158.044 67.3027 156.451Z" fill="#9CEA00"/>
<path fill-rule="evenodd" clip-rule="evenodd" d="M53.4799 196.795C53.4799 196.795 47.3065 189.833 46.4342 173.813C46.3336 172.068 46.2497 170.424 46.1826 168.831C43.0456 166.533 39.4725 162.725 36.2852 156.417C37.1071 171.381 39.8415 195.52 53.4799 196.778V196.795Z" fill="#2F3B53"/>
<path fill-rule="evenodd" clip-rule="evenodd" d="M75.5557 102.367C75.5557 103.038 75.2034 104.112 73.2742 105.454C71.3451 106.796 66.0105 107.601 65.4402 107.047C64.8698 106.477 64.1317 99.381 58.3442 94.1638C52.5567 88.9467 46.1821 89.4835 45.4775 89.4667C44.773 89.45 44.3033 89.3829 44.0684 88.6448C43.8336 87.9066 44.5213 87.5376 44.5213 87.5376C44.5213 87.5376 52.6909 83.6793 58.0758 81.163C59.9546 81.834 61.9173 82.8069 63.0916 84.1825C65.8763 87.4873 72.8045 101.411 74.1969 101.897C75.455 102.333 75.5221 99.8171 75.5221 99.3642C75.5389 100.807 75.5557 102.065 75.5557 102.384V102.367Z" fill="#1A2332"/>
<path fill-rule="evenodd" clip-rule="evenodd" d="M73.5427 115.787C80.8064 118.438 83.9267 127.278 80.5045 135.532C80.4542 135.666 80.4038 135.783 80.3367 135.918C79.867 134.29 79.0786 132.344 77.8037 130.264C77.6191 129.962 77.4346 129.677 77.2669 129.409C78.3237 123.923 76.6294 118.589 72.9053 115.586C73.1234 115.653 73.3414 115.72 73.5427 115.804V115.787Z" fill="#9CEA00"/>
<path fill-rule="evenodd" clip-rule="evenodd" d="M43.9007 144.49C45.2595 147.979 45.5111 155.83 46.1654 168.848C43.0284 166.549 39.4552 162.741 36.2679 156.434C36.117 153.649 36.0331 151.183 35.9492 149.237C35.815 145.748 35.8821 142.577 37.1403 141.319C38.801 139.659 42.3574 140.581 43.8839 144.49H43.9007Z" fill="#1A2332"/>
<path fill-rule="evenodd" clip-rule="evenodd" d="M41.9214 93.3922C32.8795 95.4052 26.2365 105.957 27.0417 117.146C27.4779 123.168 29.9941 128.151 33.6344 131.204L33.5337 131.12C38.5328 127.731 43.3305 122.497 44.7397 114.579C46.6688 103.692 44.2196 97.0325 41.8878 93.4258H41.9046L41.9214 93.3922ZM40.5123 134.324L40.5626 134.341H40.5458H40.4955L40.5123 134.324Z" fill="white"/>
<path fill-rule="evenodd" clip-rule="evenodd" d="M42.0884 93.3586C38.6159 94.08 35.4957 96.0762 33.013 98.8609C30.2954 104.346 28.8192 111.325 29.2218 118.505C29.4398 122.263 30.1907 125.715 31.2811 128.701C31.9376 130.499 34.9757 132.445 37.2907 133.418C35.9487 132.848 35.0167 132.269 33.8592 131.279C38.8582 127.89 43.3298 122.464 44.7389 114.546C46.6681 103.659 44.2189 96.9989 41.8871 93.3922L42.0716 93.3586H42.0884ZM37.5591 133.552C37.6094 133.569 37.6597 133.586 37.7101 133.619C37.6597 133.603 37.6094 133.586 37.5591 133.552Z" fill="#2F3B53"/>
<path fill-rule="evenodd" clip-rule="evenodd" d="M42.1724 93.3418L41.9879 93.3754C44.3197 96.9821 46.7689 103.642 44.8397 114.529C43.4306 122.447 38.6328 127.681 33.6338 131.07C34.7745 132.042 36.0494 132.831 37.3915 133.401L37.4082 133.418C39.9078 134.458 42.5918 134.693 45.2423 134.156C46.1649 133.972 47.054 133.686 47.9264 133.334C47.0205 129.795 47.6244 125.483 49.8891 121.558C52.0028 117.901 55.1062 115.334 58.3606 114.194C59.451 113.808 60.4407 113.153 60.424 111.811C60.424 111.325 60.3904 110.838 60.3569 110.352C59.5349 99.079 51.4324 91.4462 42.2563 93.3083L42.1724 93.3418Z" fill="#1A2332"/>
<path fill-rule="evenodd" clip-rule="evenodd" d="M26.304 109.111C28.1325 108.507 29.961 107.903 31.7895 107.282C32.2424 107.131 33.0309 107.299 33.3832 107.601C34.5742 108.641 35.7653 109.664 36.9563 110.704C37.7783 111.426 37.9293 111.778 37.2583 112.835C36.1511 114.579 35.0439 116.307 33.92 118.052C33.6851 118.438 33.3664 118.656 32.9302 118.756C31.0514 119.226 29.1726 119.696 27.2937 120.166L25.2807 120.669L25.2639 118.589C25.2471 117.263 25.2304 115.921 25.2136 114.596C25.1968 113.288 25.18 111.996 25.1633 110.688L25.1465 109.48L26.2872 109.094L26.304 109.111ZM45.2098 118.606C45.3943 121.524 45.562 124.427 45.7466 127.345C45.8137 128.352 45.344 128.939 44.3207 129.073C42.9283 129.258 41.5527 129.442 40.1604 129.627L37.6273 129.962L40.5798 126.255L39.8584 119.948L39.2881 114.948L39.0868 113.489C38.9861 112.751 39.0868 112.583 39.7746 113.187L40.3617 113.707C41.7876 114.965 43.1967 116.207 44.6226 117.465C45.0085 117.8 45.1427 118.085 45.1762 118.606H45.2098ZM55.8621 113.086C53.0774 113.774 50.2759 114.462 47.4912 115.15C46.8537 115.301 46.6021 115.25 46.0821 114.848C44.5723 113.674 43.0457 112.483 41.536 111.308C41.2172 111.057 40.1604 110.402 41.1837 110.235L42.5593 110.017L52.8761 106.779L54.4865 101.511L54.9227 100.84C55.6272 99.7501 55.8956 100.84 56.0634 101.847C56.6002 104.95 56.835 108.205 57.1035 111.325C57.1706 112.164 56.6841 112.885 55.8621 113.086ZM43.7839 95.3381C43.9013 97.3512 44.0355 99.381 44.1529 101.394C44.1865 101.998 44.22 101.864 43.9013 102.384C42.7102 104.263 41.5024 106.158 40.3114 108.037C39.4726 109.362 39.3216 109.53 39.0868 108.154L38.919 107.165L34.96 97.1331L33.2993 98.5255L33.249 97.2002L33.1986 96.0763L34.2219 95.6233C35.3794 95.1201 36.5201 94.6168 37.6776 94.1135C38.9022 93.5767 40.1436 93.0399 41.3682 92.5031L42.4418 93.1574C43.3812 93.7445 43.6832 94.1303 43.7671 95.3214L43.7839 95.3381Z" fill="#111927"/>
<path fill-rule="evenodd" clip-rule="evenodd" d="M78.7941 92.5534L58.6805 82.7231L53.6144 80.1061L51.4839 76.6672L55.5268 74.8387L47.4746 69.0009L62.6898 71.6681L77.0495 80.9784L73.5602 82.7231L84.6152 89.4332L78.7941 92.5534Z" fill="#111927"/>
<path fill-rule="evenodd" clip-rule="evenodd" d="M26.8242 110.671C26.841 111.962 26.8578 113.271 26.8745 114.579C26.8913 115.905 26.9081 117.23 26.9249 118.572C28.4346 118.203 29.978 117.8 31.5884 117.414C32.4439 117.196 32.7627 116.844 33.2324 116.123C33.786 115.267 34.3396 114.395 34.8931 113.523C35.6984 112.264 36.0171 112.08 34.9938 111.208C34.2054 110.52 33.4169 109.849 32.662 109.178C32.4775 109.01 32.2091 108.909 31.9575 108.993C30.1793 109.58 28.4682 110.151 26.8242 110.704V110.671ZM42.593 127.647C41.7039 127.765 40.8148 127.882 39.9593 128C38.8689 128.151 37.7953 128.285 36.7552 128.419C36.1177 128.503 36.0842 128.218 36.0674 127.714C35.9668 125.232 35.8829 122.766 35.7822 120.35C36.9397 118.572 38.114 116.777 39.3051 114.948C40.5129 116.005 41.7375 117.096 43.0124 118.22C43.6163 118.756 43.5492 118.572 43.5995 119.36C43.7337 121.558 43.8679 123.772 44.0189 126.02C44.1028 127.312 43.8176 127.48 42.593 127.631V127.647ZM54.4867 101.511C54.6545 103.139 54.8054 104.766 54.9732 106.427C55.0906 107.551 55.1913 108.674 55.3087 109.798C55.4429 111.157 55.2248 111.543 53.8325 111.879C51.7356 112.399 49.7057 112.902 47.7598 113.372C47.2733 113.489 46.9881 113.455 46.5855 113.137C45.1932 112.063 43.8512 111.006 42.5427 109.983C43.8008 108.071 45.0925 106.125 46.401 104.145C48.9676 103.306 51.6685 102.417 54.4699 101.478L54.4867 101.511ZM40.6974 94.6C39.909 94.9523 39.1205 95.2878 38.3489 95.6233C37.1746 96.1433 36.0171 96.6466 34.8931 97.1331C34.977 99.4481 35.0609 101.797 35.1615 104.195C36.3694 105.152 37.6275 106.141 38.9192 107.165C39.8754 105.672 40.8316 104.162 41.7878 102.635C42.4085 101.662 42.4924 101.344 42.4085 100.186C42.3078 98.71 42.224 97.2505 42.1569 95.8078C42.1065 94.7845 41.7039 94.1806 40.6974 94.6168V94.6Z" fill="#1A2332"/>
<path fill-rule="evenodd" clip-rule="evenodd" d="M26.8242 110.671C26.841 111.962 26.8578 113.271 26.8745 114.579L26.9081 117.196L30.0115 116.425C30.7664 116.24 31.1019 115.905 31.5213 115.267C32.1923 114.227 32.8466 113.187 33.5343 112.13C34.1215 111.224 34.306 111.04 33.5511 110.386L31.9575 108.993C30.1961 109.58 28.485 110.151 26.841 110.704L26.8242 110.671ZM41.3349 126.624C40.3116 126.758 39.3218 126.892 38.3321 127.027L36.0506 127.329C35.9668 124.98 35.8661 122.648 35.7822 120.35C36.8726 118.673 37.9966 116.978 39.1205 115.25C39.7915 115.854 40.4793 116.458 41.1839 117.079C41.9388 117.75 41.9556 117.884 42.0059 118.891C42.1401 121.055 42.2743 123.252 42.4085 125.467C42.4588 126.272 42.073 126.523 41.3181 126.624H41.3349ZM53.1111 103.088L53.346 105.437C53.4802 106.762 53.6144 108.087 53.7486 109.429C53.8157 110.151 53.4634 110.587 52.7589 110.755C50.3264 111.359 47.9947 111.929 45.7468 112.483C44.6564 111.627 43.5828 110.805 42.5595 109.983C43.8176 108.071 45.1093 106.125 46.4178 104.145C48.196 103.558 50.0245 102.954 51.9033 102.333C52.524 102.132 53.044 102.384 53.1111 103.055V103.088ZM37.4262 105.974C38.3992 104.447 39.3722 102.904 40.3619 101.344C40.7142 100.79 40.8484 100.086 40.8148 99.4313L40.5296 94.6839L38.3656 95.6233C37.1914 96.1433 36.0339 96.6466 34.9099 97.1331C34.9938 99.4481 35.0777 101.797 35.1783 104.195L37.4262 105.974Z" fill="#2F3B53"/>
<path fill-rule="evenodd" clip-rule="evenodd" d="M26.8242 110.671C26.841 111.962 26.8578 113.271 26.8745 114.579L26.8913 115.318C27.6965 115.116 28.1327 114.764 28.5856 114.059C29.2231 113.07 29.8606 112.08 30.498 111.073C30.8671 110.503 31.1355 110.1 31.1522 109.866C31.169 109.698 31.0684 109.681 30.7496 109.396C29.4076 109.849 28.1159 110.268 26.841 110.688L26.8242 110.671ZM37.9798 125.534L35.9835 125.802C35.9332 124.359 35.8661 122.95 35.8158 121.524C35.7655 120.3 35.6648 120.518 36.319 119.511C37.0404 118.421 37.7617 117.314 38.4831 116.207C38.8353 116.509 38.936 116.743 38.9695 117.213C39.1037 119.344 39.2379 121.508 39.3722 123.688C39.456 125.014 39.3218 125.349 37.963 125.534H37.9798ZM50.3432 104.313C50.4439 105.336 50.5445 106.376 50.6452 107.416C50.7794 108.809 50.4774 109.463 49.0851 109.798C47.3069 110.235 45.579 110.654 43.9015 111.073L42.5427 110.017C43.8008 108.104 45.0925 106.158 46.401 104.179C47.4411 103.843 48.4979 103.491 49.5715 103.139C50.3935 102.87 50.3097 103.894 50.3432 104.313ZM35.1448 103.709C35.9164 102.501 36.6881 101.26 37.4765 100.035C37.9127 99.3474 37.8959 99.5152 37.8456 98.6932L37.6778 95.942C36.7384 96.3446 35.8158 96.7472 34.8931 97.1498C34.977 99.3138 35.0609 101.495 35.1448 103.709Z" fill="white"/>
<path fill-rule="evenodd" clip-rule="evenodd" d="M130.411 80.2571C141.197 80.2571 150.524 86.464 155.037 95.4891L153.561 100.404L167.031 91.4295L162.938 89.9029L195.75 65.5787L207.325 67.3401L172.08 88.6448L177.818 90.3055L157.285 101.864C157.704 103.776 157.922 105.756 157.922 107.802C157.922 118.505 151.816 127.798 142.875 132.344L149.786 148.767L145.995 150.462L140.124 130.969L138.798 134.022C136.148 134.878 133.33 135.33 130.394 135.33C115.195 135.33 102.866 123.001 102.866 107.802C102.866 105.655 103.117 103.541 103.587 101.545L67.0167 82.5721L73.0223 81.012L45.5107 68.1285L62.219 67.424L84.5804 82.656L78.1387 83.0083L104.342 98.8609C106.422 92.805 110.565 87.7053 115.917 84.3838L107.244 72.574L110.079 72.1379L100.685 56L109.307 59.3886L115.044 75.6607L111.991 75.1406L117.427 83.5283C121.285 81.4649 125.697 80.2906 130.377 80.2906L130.411 80.2571Z" fill="#9CEA00"/>
<path fill-rule="evenodd" clip-rule="evenodd" d="M87.9697 99.4313L88.4059 101.964L98.6724 103.608L87.9697 99.4313Z" fill="#9CEA00"/>
<path fill-rule="evenodd" clip-rule="evenodd" d="M101.155 115.016L93.0192 120.635L96.8104 121.373C96.8104 121.373 86.5775 127.899 86.9298 127.899C87.2821 127.899 91.2746 128.805 91.2746 128.805L101.944 119.713L98.035 118.924L101.172 115.016H101.155Z" fill="#9CEA00"/>
<path fill-rule="evenodd" clip-rule="evenodd" d="M161.345 104.917L168.273 101.092L167.35 103.743L175.235 99.6997L174.312 104.917L163.609 108.138L164.901 104.346L161.345 104.917Z" fill="#9CEA00"/>
<path fill-rule="evenodd" clip-rule="evenodd" d="M159.583 118.32L166.763 124.158L169.849 120.803L159.583 118.32Z" fill="#9CEA00"/>
<path d="M95.2673 112.935C96.2401 112.935 97.0287 112.147 97.0287 111.174C97.0287 110.201 96.2401 109.413 95.2673 109.413C94.2945 109.413 93.5059 110.201 93.5059 111.174C93.5059 112.147 94.2945 112.935 95.2673 112.935Z" fill="#9CEA00"/>
<path d="M130.411 131.824C143.826 131.824 154.701 120.949 154.701 107.534C154.701 94.1184 143.826 83.2431 130.411 83.2431C116.995 83.2431 106.12 94.1184 106.12 107.534C106.12 120.949 116.995 131.824 130.411 131.824Z" fill="#BEFF3D"/>
<path d="M167.87 115.804C168.796 115.804 169.547 115.053 169.547 114.126C169.547 113.2 168.796 112.449 167.87 112.449C166.943 112.449 166.192 113.2 166.192 114.126C166.192 115.053 166.943 115.804 167.87 115.804Z" fill="#9CEA00"/>
<path d="M166.628 133.502C167.36 133.502 167.953 132.909 167.953 132.177C167.953 131.445 167.36 130.851 166.628 130.851C165.896 130.851 165.303 131.445 165.303 132.177C165.303 132.909 165.896 133.502 166.628 133.502Z" fill="#BEFF3D"/>
<path fill-rule="evenodd" clip-rule="evenodd" d="M90.9561 84.6019L92.3987 81.8508L99.3102 88.9467L90.9561 84.6019Z" fill="#9CEA00"/>
<path fill-rule="evenodd" clip-rule="evenodd" d="M134.773 86.162C143.462 87.9066 150.307 94.7509 152.051 103.441H149.25C147.606 96.2775 141.953 90.6242 134.79 88.9802V86.1788L134.773 86.162ZM152.051 112.13C150.307 120.82 143.462 127.664 134.773 129.409V126.607C141.936 124.963 147.589 119.31 149.233 112.147H152.035L152.051 112.13ZM126.083 129.409C117.394 127.664 110.549 120.82 108.805 112.13H111.606C113.25 119.293 118.903 124.947 126.066 126.59V129.392L126.083 129.409ZM108.805 103.441C110.549 94.7509 117.394 87.9066 126.083 86.162V88.9635C118.92 90.6074 113.267 96.2607 111.623 103.424H108.821L108.805 103.441Z" fill="#598500"/>
<path fill-rule="evenodd" clip-rule="evenodd" d="M154.383 106.175C154.383 106.628 154.383 107.081 154.383 107.534C154.383 107.987 154.383 108.44 154.383 108.893C154.383 109.144 154.215 109.329 154.014 109.295C153.158 109.195 152.303 109.094 151.447 108.993C150.592 108.893 149.736 108.792 148.881 108.691C148.679 108.674 148.512 108.524 148.512 108.373C148.512 108.087 148.512 107.802 148.512 107.534C148.512 107.249 148.512 106.963 148.512 106.695C148.512 106.544 148.679 106.393 148.881 106.376C149.736 106.276 150.592 106.175 151.447 106.074C152.303 105.974 153.158 105.873 154.014 105.772C154.215 105.756 154.383 105.94 154.383 106.175ZM129.069 83.5786C129.522 83.5786 129.975 83.5786 130.428 83.5786C130.881 83.5786 131.334 83.5786 131.787 83.5786C132.038 83.5786 132.223 83.7464 132.189 83.9477C132.089 84.8032 131.988 85.6588 131.887 86.5143C131.787 87.3698 131.686 88.2254 131.585 89.0809C131.569 89.2822 131.418 89.45 131.267 89.45C130.981 89.45 130.696 89.45 130.428 89.45C130.143 89.45 129.857 89.45 129.589 89.45C129.438 89.45 129.287 89.2822 129.27 89.0809C129.17 88.2254 129.069 87.3698 128.968 86.5143C128.868 85.6588 128.767 84.8032 128.666 83.9477C128.65 83.7464 128.834 83.5786 129.069 83.5786ZM106.473 106.175C106.473 106.628 106.473 107.081 106.473 107.534C106.473 107.987 106.473 108.44 106.473 108.893C106.473 109.144 106.64 109.329 106.842 109.295C107.697 109.195 108.553 109.094 109.408 108.993C110.264 108.893 111.119 108.792 111.975 108.691C112.176 108.674 112.344 108.524 112.344 108.373C112.344 108.087 112.344 107.802 112.344 107.534C112.344 107.249 112.344 106.963 112.344 106.695C112.344 106.544 112.176 106.393 111.975 106.376C111.119 106.276 110.264 106.175 109.408 106.074C108.553 105.974 107.697 105.873 106.842 105.772C106.64 105.756 106.473 105.94 106.473 106.175ZM129.069 131.489C129.522 131.489 129.975 131.489 130.428 131.489C130.881 131.489 131.334 131.489 131.787 131.489C132.038 131.489 132.223 131.321 132.189 131.12C132.089 130.264 131.988 129.409 131.887 128.553C131.787 127.698 131.686 126.842 131.585 125.987C131.569 125.785 131.418 125.618 131.267 125.618C130.981 125.618 130.696 125.618 130.428 125.618C130.143 125.618 129.857 125.618 129.589 125.618C129.438 125.618 129.287 125.785 129.27 125.987C129.17 126.842 129.069 127.698 128.968 128.553C128.868 129.409 128.767 130.264 128.666 131.12C128.65 131.321 128.834 131.489 129.069 131.489Z" fill="#598500"/>
<path fill-rule="evenodd" clip-rule="evenodd" d="M91.6436 83.2767L96.9781 87.7389L99.3099 88.9467L92.3984 81.8508L91.6436 83.2767Z" fill="#9CEA00"/>
<path fill-rule="evenodd" clip-rule="evenodd" d="M99.3085 120.249L89.6963 127.53C90.4009 127.698 90.9544 127.815 90.9544 127.815L100.198 120.384L99.2918 120.249L96.1548 119.662L98.5537 120.803L99.3085 120.233V120.249Z" fill="white"/>
<path fill-rule="evenodd" clip-rule="evenodd" d="M161.227 118.723L168.188 122.615L169.849 120.803L161.227 118.723Z" fill="#9CEA00"/>
<path fill-rule="evenodd" clip-rule="evenodd" d="M165.118 106.947L173.321 103.558L173.657 101.662L166.242 105.454L166.695 103.055L165.118 106.947Z" fill="white"/>
<path fill-rule="evenodd" clip-rule="evenodd" d="M156.631 100.337L173.607 90.792L168.021 89.1816L202.595 68.2795L196.204 67.3066L166.361 89.4164L170.638 91.0101L156.631 100.337Z" fill="#1A2332"/>
<path fill-rule="evenodd" clip-rule="evenodd" d="M87.6001 76.9859C87.9524 76.9859 96.2226 79.6867 96.6084 79.8209C96.9943 79.9551 99.9635 86.8666 101.004 88.0912C102.044 89.3158 103.402 89.8693 103.402 89.8693L97.833 76.5497C97.833 76.5497 97.5646 76.0633 96.1723 75.6439C94.7799 75.2077 87.1136 72.8088 87.1136 72.8088C87.1136 72.8088 86.5097 72.5404 85.7213 72.8927C85.3354 73.0605 80.8396 75.0903 76.4277 77.053L83.5908 81.9178C84.1276 80.5087 84.5973 79.3177 84.8993 78.7976C85.8555 77.1369 87.2478 76.9691 87.6001 76.9691V76.9859Z" fill="#1A2332"/>
<path fill-rule="evenodd" clip-rule="evenodd" d="M83.3051 82.7063L78.1719 82.9915L82.2818 85.4742C82.6173 84.5684 82.9696 83.6122 83.3051 82.7063Z" fill="#2F3B53"/>
<path fill-rule="evenodd" clip-rule="evenodd" d="M173.222 76.9859C173.575 76.9859 174.967 77.1537 175.923 78.8144C176.057 79.0493 176.242 79.4351 176.427 79.9048L181.811 75.9123C178.372 74.3689 175.403 73.0437 175.085 72.8927C174.296 72.5404 173.692 72.8088 173.692 72.8088C173.692 72.8088 166.026 75.2077 164.633 75.6439C163.241 76.08 162.973 76.5497 162.973 76.5497L157.403 89.8693C157.403 89.8693 158.762 89.299 159.802 88.0912C160.842 86.8666 163.811 79.9551 164.197 79.8209C164.583 79.6867 172.853 76.9859 173.206 76.9859H173.222Z" fill="#1A2332"/>
<path d="M130.411 124.46C139.759 124.46 147.337 116.882 147.337 107.534C147.337 98.1856 139.759 90.6075 130.411 90.6075C121.063 90.6075 113.484 98.1856 113.484 107.534C113.484 116.882 121.063 124.46 130.411 124.46Z" fill="#D5FF80"/>
<path fill-rule="evenodd" clip-rule="evenodd" d="M96.6246 79.8209C97.0104 79.9551 99.9797 86.8666 101.02 88.0911C102.06 89.3157 103.419 89.8693 103.419 89.8693L97.8492 76.5497C97.8492 76.5497 97.5808 76.0632 96.1885 75.6439C95.8865 75.5432 95.2658 75.3587 94.4941 75.1071L96.6246 79.8209Z" fill="#9CEA00"/>
<path fill-rule="evenodd" clip-rule="evenodd" d="M164.213 79.8209C163.827 79.9551 160.858 86.8666 159.818 88.0911C158.778 89.3157 157.419 89.8693 157.419 89.8693L162.988 76.5497C162.988 76.5497 163.257 76.0632 164.649 75.6439C164.951 75.5432 165.572 75.3587 166.343 75.1071L164.213 79.8209Z" fill="#9CEA00"/>
<path d="M130.412 121.44C138.092 121.44 144.318 115.214 144.318 107.534C144.318 99.8533 138.092 93.627 130.412 93.627C122.731 93.627 116.505 99.8533 116.505 107.534C116.505 115.214 122.731 121.44 130.412 121.44Z" fill="#1A2332"/>
<path fill-rule="evenodd" clip-rule="evenodd" d="M95.5684 95.4052L75.2871 83.1424L79.7996 81.3139L62.0178 69.2189L52.7578 69.6048L77.2833 81.0791L71.9655 83.176L95.5684 95.4052Z" fill="#1A2332"/>
<path fill-rule="evenodd" clip-rule="evenodd" d="M122.105 103.684V111.986C122.105 112.824 122.651 112.978 123.516 113.45C123.765 113.58 123.884 113.71 124.109 113.816C125.271 114.348 127.748 115.918 129.1 116.627C130.368 117.3 130.25 117.406 131.85 116.485L136.794 113.639C137.244 113.273 138.382 112.907 138.513 112.482C138.619 112.139 138.572 109.305 138.572 108.644C138.572 108.242 138.643 108.018 138.643 107.687V103.684C138.643 103.046 138.347 102.999 138.157 102.881C137.718 102.621 137.552 102.456 136.853 102.09L133.119 99.917C132.478 99.5745 132.644 99.5509 132.336 99.4564C132.147 99.3974 132.182 99.4092 132.028 99.3265L130.688 98.5708C130.333 98.4173 130.534 98.3818 130.06 98.559C129.776 98.6652 130.06 98.5353 129.74 98.7597L127.144 100.248C126.966 100.342 126.812 100.484 126.646 100.578L122.9 102.716C122.675 102.834 122.544 102.881 122.378 103.046C122.188 103.235 122.117 103.33 122.117 103.684H122.105ZM131.293 108.88V114.324C131.293 114.56 131.234 114.643 131.435 114.737C131.732 114.867 131.969 114.631 132.301 114.442L134.968 112.907C135.146 112.789 135.181 112.801 135.347 112.694C135.454 112.635 135.596 112.517 135.703 112.458C135.987 112.293 136.189 112.175 136.462 112.021C136.722 111.868 136.995 111.773 136.995 111.336V105.833C136.995 105.573 136.948 105.408 136.675 105.408C136.533 105.408 135.395 106.034 135.193 106.164L132.395 107.794C131.625 108.254 131.269 108.301 131.269 108.88H131.293ZM135.774 103.684C135.786 103.294 135.347 103.2 134.612 102.763L130.499 100.401C130.309 100.354 130.179 100.389 130.036 100.472L125.591 103.035C124.334 103.613 125.283 103.967 126.184 104.428L128.223 105.621C128.72 105.845 130.013 106.731 130.297 106.79C130.605 106.849 131.222 106.329 131.72 106.081L132.384 105.656C132.585 105.503 133.095 105.314 133.569 104.983C133.83 104.806 134.008 104.782 134.577 104.369L134.755 104.263C135.039 104.109 135.49 103.956 135.786 103.672L135.774 103.684ZM123.73 105.833V111.277C123.73 111.667 123.896 111.75 124.168 111.915L125.235 112.529C125.354 112.6 125.449 112.682 125.567 112.742C125.863 112.883 126.029 112.966 126.314 113.143L127.002 113.533C127.12 113.592 127.203 113.663 127.333 113.745C127.63 113.922 129.005 114.773 129.195 114.737L129.444 114.525C129.562 114.288 129.491 109.494 129.491 108.833C129.491 108.738 129.372 108.526 129.301 108.431C129.195 108.29 129.135 108.29 128.946 108.183C128.602 108.006 128.507 107.923 128.211 107.723L126.67 106.861C126.373 106.707 126.207 106.554 125.946 106.4L124.417 105.526C124.062 105.314 123.741 105.361 123.741 105.845L123.73 105.833Z" fill="#9FEF00"/>
<path fill-rule="evenodd" clip-rule="evenodd" d="M113.418 74.0167L107.546 60.328L105.517 59.6738L111.942 72.943L109.408 73.5134L113.418 74.0167Z" fill="#1A2332"/>
<path fill-rule="evenodd" clip-rule="evenodd" d="M142.656 135.112L146.162 147.241L146.666 144.976L146.85 143.97L142.656 135.112Z" fill="white"/>
<path fill-rule="evenodd" clip-rule="evenodd" d="M90.7373 140.581L92.1296 141.42C92.1464 141.437 92.1632 141.437 92.1799 141.453L97.9674 144.959C97.9674 144.959 99.4436 145.664 100.551 144.943C100.735 144.792 100.903 144.641 101.037 144.49C101.071 144.439 101.104 144.406 101.138 144.372C101.708 143.617 101.893 142.611 102.446 140.514C103.419 136.907 104.308 132.546 104.594 131.137C104.745 130.415 104.459 130.281 104.057 129.677C103.419 128.721 103.336 128.469 102.966 129.644C102.161 132.227 100.199 140.212 99.9134 140.799C99.5611 141.487 98.4707 141.705 97.4306 141.118C96.3905 140.531 91.1063 136.991 90.2005 136.572C89.5294 136.253 88.8081 136.907 88.6236 137.729C88.5565 137.998 88.5565 138.283 88.6236 138.568C88.7913 139.323 89.7475 140.011 90.7037 140.598L90.7205 140.581H90.7373Z" fill="#9CEA00"/>
<path fill-rule="evenodd" clip-rule="evenodd" d="M156.764 129.677C157.402 128.721 157.486 128.469 157.855 129.644C158.66 132.227 160.623 140.212 160.908 140.799C161.26 141.487 162.35 141.705 163.39 141.118C164.431 140.531 169.715 136.991 170.621 136.572C171.51 136.152 172.466 137.427 172.214 138.568C171.946 139.726 169.849 140.732 168.675 141.453C167.484 142.175 173.875 149.841 173.791 150.411C173.724 150.848 167.299 148.6 162.837 146.369C159.146 144.54 159.482 144.507 158.391 140.497C157.418 136.891 156.529 132.529 156.244 131.12C156.093 130.398 156.378 130.264 156.781 129.66L156.764 129.677Z" fill="#1A2332"/>
<path fill-rule="evenodd" clip-rule="evenodd" d="M170.101 140.581L168.708 141.42C168.691 141.437 168.675 141.437 168.658 141.453L162.87 144.959C162.87 144.959 161.394 145.664 160.287 144.943C160.102 144.792 159.935 144.641 159.801 144.49C159.767 144.439 159.733 144.406 159.7 144.372C159.13 143.617 158.945 142.611 158.391 140.514C157.418 136.907 156.529 132.546 156.244 131.137C156.093 130.415 156.378 130.281 156.781 129.677C157.418 128.721 157.502 128.469 157.871 129.644C158.677 132.227 160.639 140.212 160.924 140.799C161.277 141.487 162.367 141.705 163.407 141.118C164.447 140.531 169.732 136.991 170.637 136.572C171.308 136.253 172.03 136.907 172.214 137.729C172.281 137.998 172.281 138.283 172.214 138.568C172.047 139.323 171.09 140.011 170.134 140.598L170.117 140.581H170.101Z" fill="#9CEA00"/>
</svg>
