<svg width="260" height="260" viewBox="0 0 260 260" fill="none" xmlns="http://www.w3.org/2000/svg">
<path fill-rule="evenodd" clip-rule="evenodd" d="M100.777 122.239C101.64 117.34 104.33 105.026 110.919 95.9193C119.335 84.2946 136.548 79.4998 136.548 79.4998C136.548 79.4998 150.518 92.0559 162.937 100.335C175.355 108.613 206.917 130.621 206.917 130.621C206.917 130.621 205.227 135.174 204.123 137.175C203.019 139.176 202.64 139.555 202.64 139.555C202.64 139.555 204.951 142.211 206.848 145.005C208.745 147.799 209.297 149.49 209.297 149.49C209.297 149.49 206.538 150.766 205.641 151.214C204.744 151.663 204.675 151.697 204.675 151.697C204.675 151.697 208.814 154.733 210.988 156.768C213.195 158.803 213.782 159.596 213.782 159.596C213.782 159.596 201.778 158.976 186.703 171.463C171.629 183.95 168.904 189.262 168.904 189.262C168.904 189.262 161.074 187.572 145.931 202.439C130.788 217.306 127.442 230 127.442 230C127.442 230 113.333 215.374 91.3601 202.853C69.387 190.297 57.7278 187.089 57.7278 187.089C57.7278 187.089 58.2453 185.295 59.2801 183.363C60.3149 181.432 60.9703 180.845 60.9703 180.845L51.5188 177.81C51.5188 177.81 51.8637 175.912 54.9683 170.531C58.0728 165.15 59.625 163.943 59.625 163.943L47 159.596C47 159.596 51.6568 147.903 67.4553 138.175C83.2194 128.482 98.5005 127.068 99.5354 126.654C100.536 126.275 100.605 123.239 100.777 122.239Z" fill="#111927"/>
<path fill-rule="evenodd" clip-rule="evenodd" d="M54.8643 157.492C79.4934 165.564 105.951 184.088 116.437 196.437C116.437 196.437 126.786 185.329 138.824 180.259C150.863 175.222 158.417 176.326 158.417 176.326C158.417 176.326 143.791 158.872 126.337 146.454C108.883 134.036 102.674 131.69 102.674 131.69C102.674 131.69 77.6997 129.897 54.8643 157.492Z" fill="#1A2332"/>
<path fill-rule="evenodd" clip-rule="evenodd" d="M109.057 189.02C111.989 191.642 114.507 194.126 116.438 196.437C116.438 196.437 126.787 185.329 138.826 180.259C150.864 175.222 158.418 176.326 158.418 176.326C158.418 176.326 143.793 158.872 126.338 146.454C125.304 145.695 124.269 145.005 123.303 144.315C131.616 150.283 150.726 173.291 150.726 173.291C150.726 173.291 141.792 174.326 131.858 180.155C121.889 185.985 116.266 191.331 115.438 191.331C114.576 191.331 109.057 189.02 109.057 189.02ZM122.82 143.97C122.406 143.694 122.027 143.418 121.613 143.142C121.958 143.384 122.372 143.66 122.82 143.97Z" fill="#111927"/>
<path fill-rule="evenodd" clip-rule="evenodd" d="M106.228 129.31C106.228 129.31 126.097 139.452 139.929 150.973C153.762 162.494 162.178 174.257 162.178 174.257C162.178 174.257 166.594 167.806 172.527 162.218C178.46 156.664 185.324 151.628 192.189 145.523C199.053 139.452 200.985 134.139 200.985 134.139C189.429 125.309 141.447 92.5043 135.272 85.0535C135.272 85.0535 116.956 92.4353 111.471 106.716C105.952 121.031 106.228 129.31 106.228 129.31Z" fill="#1A2332"/>
<path fill-rule="evenodd" clip-rule="evenodd" d="M106.228 129.31C106.228 129.31 107.159 129.793 108.746 130.655C109.229 126.206 111.264 110.269 116.404 102.749C117.715 100.852 117.784 99.1963 117.128 97.782C114.817 100.369 112.782 103.37 111.471 106.751C105.952 121.031 106.228 129.31 106.228 129.31Z" fill="#1A2332"/>
<path opacity="0.5" fill-rule="evenodd" clip-rule="evenodd" d="M136.445 148.213C137.618 149.11 138.791 150.041 139.929 150.973C153.761 162.494 162.178 174.257 162.178 174.257C162.178 174.257 166.593 167.806 172.526 162.218C178.46 156.664 185.324 151.628 192.188 145.523C199.053 139.452 200.985 134.139 200.985 134.139C199.777 133.208 198.122 132.001 196.19 130.586C196.121 132.277 195.534 134.898 193.361 137.692C189.601 142.487 181.53 148.282 169.698 150.559C157.866 152.835 136.445 148.213 136.445 148.213ZM156.452 102.059C147.311 95.3329 139.55 89.3653 136.273 86.1228C135.755 99.5757 134.789 128.793 136.169 128.896C137.963 129 143.172 126.447 146.518 122.446C149.864 118.444 150.001 112.615 150.001 112.615C150.001 112.615 150.898 112.477 151.692 111.062C152.451 109.648 151.554 108.234 153.899 104.612C154.382 103.853 155.314 102.956 156.452 102.059Z" fill="#0B1320"/>
<path fill-rule="evenodd" clip-rule="evenodd" d="M199.293 142.418C199.293 142.418 200.845 144.35 201.914 145.695C202.949 147.04 203.398 147.765 203.398 147.765C203.398 147.765 187.634 154.94 177.285 164.771C166.937 174.602 164.66 179.051 164.66 179.051C164.66 179.051 166.523 172.532 173.249 166.426C179.976 160.355 185.667 155.699 190.98 151.421C196.292 147.144 199.293 142.418 199.293 142.418Z" fill="#111927"/>
<path fill-rule="evenodd" clip-rule="evenodd" d="M201.951 154.353L204.227 156.009C204.227 156.009 195.638 157.354 184.876 165.771C174.148 174.188 167.663 183.743 167.663 183.743C167.663 183.743 167.525 179.224 178.908 168.737C190.292 158.251 201.951 154.353 201.951 154.353Z" fill="#1A2332"/>
<path fill-rule="evenodd" clip-rule="evenodd" d="M163.178 185.053C163.178 185.053 148.173 187.192 136.927 202.853C125.682 218.513 125.544 220.824 125.544 220.824C125.544 220.824 114.954 211.787 94.3609 199.231C73.7676 186.675 64.3506 184.364 64.3506 184.364C64.3506 184.364 75.8718 186.813 92.9467 196.54C110.022 206.233 124.509 217.099 124.509 217.099C124.509 217.099 143.24 182.777 163.178 185.053Z" fill="#1A2332"/>
<path opacity="0.5" fill-rule="evenodd" clip-rule="evenodd" d="M161.212 181.087C161.212 181.087 154.106 181.087 143.481 187.951C132.892 194.815 123.544 210.58 123.544 210.58C123.544 210.58 105.675 198.161 88.083 187.675C70.4907 177.189 57.1758 174.878 57.1758 174.878C57.1758 174.878 59.7284 168.841 61.2117 167.599C62.6949 166.357 65.144 166.219 65.696 166.323C66.2479 166.461 81.3565 172.566 94.0161 181.88C106.71 191.194 116.127 202.439 116.127 202.439C116.127 202.439 126.338 189.262 139.79 184.329C153.347 179.431 161.212 181.087 161.212 181.087Z" fill="#0B1320"/>
<path fill-rule="evenodd" clip-rule="evenodd" d="M103.399 193.298C104.469 195.609 104.4 196.851 103.917 197.506C115.024 204.646 123.579 210.614 123.579 210.614C123.579 210.614 132.892 194.85 143.517 187.986C154.141 181.121 161.247 181.121 161.247 181.121C161.247 181.121 153.348 179.465 139.895 184.398C126.442 189.331 116.231 202.508 116.231 202.508C116.231 202.508 106.78 191.263 94.1203 181.949C92.2231 180.569 90.2914 179.258 88.3252 178.017C88.3252 177.948 100.778 187.71 103.399 193.298Z" fill="#1A2332"/>
<path fill-rule="evenodd" clip-rule="evenodd" d="M69.7662 158.562C69.7662 158.562 78.8383 163.08 85.4958 166.909C93.947 171.808 94.4989 173.843 97.8449 171.394C107.745 164.253 114.885 159.838 127.786 155.25C128.994 154.836 129.269 153.387 127.855 152.077C126.441 150.8 114.54 142.453 110.47 140.107C106.4 137.761 105.503 137.071 103.605 136.864C101.743 136.657 97.9828 137.106 89.9111 140.348C81.8393 143.591 73.2847 148.869 70.1111 151.663C66.9376 154.457 67.0066 155.733 67.5241 156.768C68.0415 157.803 69.7662 158.562 69.7662 158.562Z" fill="#2F3B53"/>
<path fill-rule="evenodd" clip-rule="evenodd" d="M110.781 142.797C113.299 144.419 116.058 146.281 118.231 147.73C121.025 149.593 122.785 150.766 123.854 151.559C125.441 152.732 126.303 153.387 123.992 154.353C123.44 154.595 122.681 154.836 121.681 155.181C117.162 156.664 111.126 159.976 106.607 162.425C102.088 164.874 97.2932 168.772 96.4653 169.082C95.6374 169.393 94.982 169.669 93.7402 168.944C92.5674 168.289 84.9441 163.425 75.5615 158.837C78.6315 156.595 85.22 151.939 92.5329 148.455C100.95 144.453 108.607 143.108 110.781 142.797Z" fill="#1A2332"/>
<path fill-rule="evenodd" clip-rule="evenodd" d="M73.492 157.837L70.8015 156.526C70.8015 156.526 70.1116 156.078 70.353 155.216C70.5945 154.319 75.4237 149.593 85.7721 144.626C92.3951 141.452 97.7418 139.969 100.95 139.348C102.916 138.969 104.296 138.796 106.089 139.865C106.71 140.245 107.469 140.693 108.263 141.211C104.744 141.901 98.3972 143.418 91.6362 146.661C83.461 150.524 76.0791 155.871 73.492 157.837Z" fill="#1A2332"/>
<path d="M74.6294 155.664C75.4867 155.664 76.1817 155.123 76.1817 154.457C76.1817 153.79 75.4867 153.249 74.6294 153.249C73.7721 153.249 73.0771 153.79 73.0771 154.457C73.0771 155.123 73.7721 155.664 74.6294 155.664Z" fill="#FF2F3E"/>
<path d="M77.7691 153.18C78.5692 153.18 79.2179 152.671 79.2179 152.042C79.2179 151.413 78.5692 150.904 77.7691 150.904C76.969 150.904 76.3203 151.413 76.3203 152.042C76.3203 152.671 76.969 153.18 77.7691 153.18Z" fill="#F3BD01"/>
<path d="M81.0458 151.145C81.865 151.145 82.529 150.636 82.529 150.007C82.529 149.378 81.865 148.869 81.0458 148.869C80.2266 148.869 79.5625 149.378 79.5625 150.007C79.5625 150.636 80.2266 151.145 81.0458 151.145Z" fill="#9FEF00"/>
<path d="M82.598 158.872C82.1495 159.182 81.5631 159.079 81.2527 158.631C80.9422 158.182 81.0457 157.596 81.4941 157.285C81.5286 157.285 87.4617 153.146 95.8439 149.558C101.742 147.04 105.847 145.799 107.469 145.385C109.711 144.798 110.401 146.109 108.952 146.626C107.055 147.282 102.743 148.731 96.6373 151.352C88.3931 154.871 82.6325 158.872 82.598 158.872Z" fill="#2F3B53"/>
<path d="M86.7728 160.7C86.3243 161.011 85.7379 160.907 85.4275 160.459C85.117 160.01 85.2205 159.424 85.6689 159.113C85.7034 159.113 91.6365 154.974 100.019 151.387C105.917 148.869 110.022 147.627 111.643 147.213C113.886 146.626 114.575 147.937 113.127 148.455C111.229 149.11 106.918 150.559 100.812 153.18C92.5679 156.699 86.8073 160.7 86.7728 160.7Z" fill="#2F3B53"/>
<path d="M90.7728 162.735C90.3243 163.046 89.7379 162.942 89.4275 162.494C89.117 162.046 89.2205 161.459 89.6689 161.149C89.7034 161.149 95.6365 157.009 104.019 153.422C109.917 150.904 114.022 149.662 115.643 149.248C117.886 148.662 118.575 149.972 117.127 150.49C115.229 151.145 110.918 152.594 104.812 155.216C96.6024 158.7 90.8073 162.701 90.7728 162.735Z" fill="#2F3B53"/>
<path fill-rule="evenodd" clip-rule="evenodd" d="M94.2247 162.701C94.2247 162.701 96.1219 161.597 97.1912 161.045C97.7087 160.769 98.1571 160.735 98.709 161.011C99.3989 161.356 100.296 161.942 100.71 162.494C101.055 162.908 100.744 163.46 100.33 163.667C99.6748 164.081 98.6055 164.702 97.8466 165.116C96.9843 165.564 96.9153 165.633 96.0184 165.185C95.3975 164.874 94.6731 164.426 94.1902 164.081C93.5348 163.632 93.1899 163.287 94.2247 162.701Z" fill="#1A2332"/>
<path d="M103.02 158.769C104.297 158.113 105.676 157.423 107.091 156.733C112.989 153.974 117.094 152.629 118.715 152.111C120.958 151.421 121.647 152.732 120.199 153.284C118.301 154.008 113.99 155.63 107.884 158.458C106.849 158.941 105.849 159.424 104.883 159.907C103.538 160.597 102.399 160.148 102.399 159.596C102.399 159.148 102.986 158.803 103.02 158.769Z" fill="#2F3B53"/>
<path d="M101.294 174.015C102.398 173.187 103.605 172.325 104.882 171.497C107.503 169.772 109.745 168.427 111.505 167.427C113.298 166.426 114.609 165.771 115.333 165.426C117.403 164.46 118.3 165.599 116.989 166.357C116.127 166.84 114.713 167.634 112.85 168.738C110.987 169.841 108.641 171.29 105.951 173.084C105.02 173.705 104.157 174.326 103.329 174.912C102.122 175.774 100.949 175.498 100.846 174.981C100.742 174.429 101.26 174.05 101.294 174.015ZM116.058 187.365C115.678 187.71 115.057 187.675 114.713 187.296C114.368 186.916 114.402 186.295 114.782 185.95C114.782 185.95 116.092 184.743 118.403 183.018C120.68 181.294 123.923 178.982 127.752 176.844C130.442 175.36 132.753 174.291 134.581 173.463C136.41 172.67 137.755 172.152 138.514 171.877C140.618 171.083 141.48 172.256 140.101 172.877C139.204 173.291 137.755 173.946 135.858 174.843C133.926 175.74 131.511 176.947 128.717 178.465C124.957 180.569 121.784 182.811 119.576 184.502C117.334 186.226 116.058 187.365 116.058 187.365ZM110.987 183.191C110.608 183.536 109.987 183.501 109.642 183.122C109.297 182.742 109.331 182.121 109.711 181.777C109.711 181.777 111.056 180.569 113.333 178.844C115.609 177.12 118.852 174.809 122.681 172.566C125.371 171.049 127.717 169.945 129.545 169.151C131.373 168.358 132.719 167.91 133.512 167.634C135.616 166.909 136.479 168.117 135.099 168.703C134.202 169.082 132.753 169.669 130.822 170.566C128.89 171.463 126.475 172.635 123.681 174.222C119.921 176.395 116.748 178.672 114.54 180.362C112.263 182.052 110.987 183.191 110.987 183.191ZM106.917 179.224C106.537 179.569 105.916 179.534 105.571 179.155C105.227 178.775 105.261 178.155 105.64 177.81C105.64 177.81 106.986 176.602 109.262 174.878C111.539 173.118 114.782 170.807 118.645 168.565C121.37 166.978 123.681 165.771 125.509 164.978C127.338 164.184 128.683 163.701 129.442 163.425C131.546 162.735 132.408 163.943 131.029 164.529C130.132 164.909 128.683 165.495 126.751 166.392C124.819 167.289 122.405 168.565 119.576 170.186C115.816 172.394 112.643 174.671 110.401 176.361C108.228 178.086 106.951 179.224 106.917 179.224Z" fill="#2F3B53"/>
<path d="M138.549 143.867C138.273 144.315 137.686 144.488 137.203 144.212C136.755 143.936 136.583 143.349 136.858 142.867C136.858 142.832 140.929 135.899 148.104 127.965C155.313 119.997 164.178 114.098 164.213 114.098C164.661 113.788 165.282 113.926 165.558 114.374C165.868 114.822 165.731 115.443 165.282 115.719C165.248 115.754 156.589 121.48 149.553 129.276C142.516 137.106 138.549 143.832 138.549 143.867Z" fill="#2F3B53"/>
<path d="M144.344 148.317C144.033 148.765 143.412 148.869 142.999 148.558C142.585 148.248 142.447 147.627 142.757 147.213C142.757 147.213 145.862 142.729 149.208 138.555C152.554 134.346 156.072 131.069 156.107 131.069C156.486 130.69 157.107 130.724 157.486 131.104C157.866 131.483 157.831 132.104 157.452 132.484C157.452 132.484 154.002 135.657 150.76 139.762C147.414 143.867 144.344 148.317 144.344 148.317Z" fill="#2F3B53"/>
<path d="M151.07 152.767C150.794 153.215 150.173 153.353 149.725 153.077C149.277 152.801 149.139 152.18 149.415 151.732C149.415 151.732 152.692 146.557 155.796 143.074C158.901 139.59 162.074 136.83 162.109 136.83C162.523 136.485 163.143 136.52 163.488 136.933C163.833 137.347 163.799 137.968 163.385 138.313C163.385 138.313 160.246 141.004 157.279 144.35C154.278 147.696 151.07 152.732 151.07 152.767Z" fill="#2F3B53"/>
<path fill-rule="evenodd" clip-rule="evenodd" d="M177.976 125.24C178.218 125.102 178.597 125.171 178.873 125.412C180.253 126.551 181.667 127.689 183.116 128.793C184.599 129.931 186.083 131.035 187.566 132.173C187.876 132.415 188.014 132.794 187.876 133.07C187.359 134.174 186.738 135.278 186.083 136.347C185.427 137.451 184.703 138.52 183.978 139.624C183.909 139.693 183.84 139.796 183.771 139.831C183.702 139.9 183.599 139.934 183.496 140.003C182.219 140.521 180.977 141.004 179.736 141.521C178.494 142.039 177.286 142.556 176.079 143.073C175.734 143.211 175.389 143.142 175.182 142.901C174.182 141.797 173.044 140.659 171.802 139.59C170.526 138.486 169.146 137.382 167.766 136.278C167.455 136.037 167.352 135.657 167.524 135.381C168.076 134.277 168.697 133.139 169.353 132.035C170.008 130.931 170.664 129.828 171.284 128.689C171.319 128.62 171.388 128.517 171.457 128.482C171.526 128.413 171.595 128.379 171.698 128.31C172.802 127.827 173.872 127.309 174.906 126.826C175.907 126.344 176.873 125.826 177.804 125.343C177.838 125.309 177.907 125.274 177.976 125.24ZM175.7 133.967C174.044 134.657 172.423 135.312 170.801 136.002C171.767 136.795 172.733 137.589 173.63 138.382C174.561 139.176 175.424 139.969 176.252 140.762C177.838 140.072 179.425 139.417 181.081 138.762C180.253 137.968 179.356 137.14 178.459 136.347C177.562 135.554 176.631 134.76 175.7 133.967ZM176.631 128.448C175.458 128.965 174.285 129.517 173.044 130.034C172.423 131.173 171.802 132.311 171.146 133.484C172.457 132.967 173.768 132.415 175.079 131.897C175.631 130.724 176.183 129.586 176.631 128.448ZM179.08 128.034C178.632 129.483 178.08 130.966 177.39 132.415C178.321 133.208 179.253 134.001 180.15 134.829C181.046 135.623 181.978 136.45 182.84 137.244C183.668 135.83 184.461 134.381 185.186 132.967C184.185 132.139 183.151 131.311 182.116 130.483C181.115 129.69 180.081 128.862 179.08 128.034Z" fill="#9FEF00"/>
<path fill-rule="evenodd" clip-rule="evenodd" d="M133.443 122.825C134.616 122.687 135.651 122.48 136.582 122.239C135.271 123.619 133.443 124.446 131.408 124.446H127.613C125.578 124.446 123.75 123.584 122.439 122.239C123.336 122.48 124.405 122.687 125.544 122.825C126.751 122.963 128.096 123.067 129.476 123.067C130.925 123.032 132.236 122.963 133.443 122.825ZM138.617 116.651V117.272C138.617 117.547 138.583 117.858 138.548 118.134C138.514 118.168 138.479 118.168 138.445 118.203C137.962 118.479 137.341 118.72 136.616 118.927C135.685 119.203 134.616 119.41 133.374 119.548C132.201 119.686 130.89 119.755 129.545 119.755C128.2 119.755 126.889 119.686 125.716 119.548C124.509 119.41 123.405 119.203 122.474 118.927C121.749 118.72 121.128 118.479 120.645 118.203C120.611 118.168 120.576 118.168 120.542 118.134C120.507 117.858 120.473 117.547 120.473 117.272V116.651C120.956 116.892 121.542 117.099 122.232 117.306C123.198 117.582 124.336 117.789 125.613 117.961C126.82 118.099 128.165 118.203 129.545 118.203C130.925 118.203 132.27 118.134 133.477 117.996C134.754 117.858 135.892 117.616 136.858 117.34C137.513 117.099 138.1 116.892 138.617 116.651ZM138.617 114.201V115.65C138.548 115.685 138.514 115.719 138.445 115.754C137.962 116.03 137.341 116.271 136.616 116.478C135.685 116.754 134.616 116.961 133.374 117.099C132.201 117.237 130.89 117.306 129.545 117.306C128.2 117.306 126.889 117.237 125.716 117.099C124.474 116.961 123.405 116.754 122.474 116.478C121.749 116.271 121.128 116.03 120.645 115.754C120.576 115.719 120.542 115.685 120.473 115.65V114.201C120.956 114.443 121.542 114.65 122.232 114.857C123.198 115.133 124.336 115.34 125.613 115.512C126.82 115.65 128.165 115.754 129.545 115.754C130.925 115.754 132.27 115.685 133.477 115.547C134.754 115.409 135.892 115.167 136.858 114.891C137.513 114.684 138.1 114.443 138.617 114.201ZM138.548 111.545C138.583 111.821 138.583 112.097 138.583 112.373V113.201C138.514 113.236 138.479 113.27 138.41 113.305C137.927 113.581 137.306 113.822 136.582 114.029C135.651 114.305 134.581 114.512 133.339 114.65C132.167 114.788 130.856 114.857 129.511 114.857C128.165 114.857 126.854 114.788 125.682 114.65C124.44 114.512 123.371 114.305 122.439 114.029C121.715 113.822 121.094 113.581 120.611 113.305C120.542 113.27 120.507 113.236 120.438 113.201V112.339C120.438 112.063 120.473 111.787 120.473 111.511C122.681 113.65 134.581 114.029 138.548 111.545ZM138.341 119.203C138.169 119.859 137.893 120.48 137.548 121.031C137.272 121.135 136.961 121.238 136.616 121.342C135.685 121.618 134.616 121.825 133.374 121.963C132.201 122.101 130.89 122.17 129.545 122.17C128.2 122.17 126.889 122.101 125.716 121.963C124.509 121.825 123.405 121.618 122.474 121.342C122.129 121.238 121.853 121.135 121.542 121.031C121.197 120.48 120.921 119.859 120.749 119.203C121.163 119.41 121.68 119.583 122.232 119.721C123.198 119.997 124.336 120.204 125.613 120.376C126.82 120.514 128.165 120.583 129.545 120.583C130.925 120.583 132.27 120.514 133.477 120.376C134.754 120.238 135.892 119.997 136.858 119.721C137.41 119.583 137.893 119.41 138.341 119.203Z" fill="#111927"/>
<path fill-rule="evenodd" clip-rule="evenodd" d="M127.13 124.446C125.302 124.308 123.681 123.515 122.474 122.239C123.371 122.48 124.44 122.687 125.578 122.825C125.751 122.86 125.923 122.86 126.096 122.894C126.441 123.515 126.785 124.032 127.13 124.446ZM125.302 113.063C125.233 113.512 125.199 114.029 125.13 114.615C124.129 114.477 123.198 114.305 122.439 114.063C121.715 113.857 121.094 113.615 120.611 113.339C120.542 113.305 120.507 113.27 120.438 113.236V112.373C120.438 112.097 120.473 111.821 120.473 111.545C121.232 112.27 123.06 112.787 125.302 113.063ZM125.095 115.478C125.061 115.961 125.061 116.513 125.026 117.03C124.06 116.892 123.198 116.72 122.439 116.513C121.715 116.306 121.094 116.064 120.611 115.788C120.542 115.754 120.507 115.719 120.438 115.685V114.236C120.921 114.477 121.508 114.684 122.198 114.891C123.06 115.098 124.026 115.305 125.095 115.478ZM125.061 117.892C125.061 118.41 125.095 118.962 125.164 119.479C124.164 119.341 123.267 119.169 122.474 118.927C121.749 118.72 121.128 118.479 120.645 118.203C120.611 118.168 120.576 118.168 120.542 118.134C120.507 117.858 120.473 117.547 120.473 117.271V116.651C120.956 116.892 121.542 117.099 122.232 117.306C123.026 117.547 123.991 117.754 125.061 117.892ZM125.268 120.342C125.371 120.928 125.509 121.48 125.716 121.963C124.509 121.825 123.405 121.618 122.474 121.342C122.129 121.238 121.853 121.135 121.542 121.031C121.197 120.479 120.921 119.859 120.749 119.203C121.163 119.41 121.68 119.583 122.232 119.721C123.095 119.997 124.129 120.204 125.268 120.342Z" fill="#FEFEFE"/>
<path fill-rule="evenodd" clip-rule="evenodd" d="M145.207 60.4933C148.967 64.3567 151.002 69.8069 150.553 75.7399C150.174 80.7417 148.725 83.9842 147.035 86.9162C145.345 89.8483 143.344 92.5043 141.826 96.4367C139.412 102.68 139.412 107.096 139.412 107.096C139.377 107.889 138.239 108.613 136.445 109.165C134.651 109.683 132.202 110.028 129.512 110.028C126.821 110.028 124.372 109.717 122.578 109.165C120.785 108.648 119.646 107.923 119.646 107.096C119.646 107.096 119.646 102.68 117.232 96.4367C115.714 92.5388 113.748 89.8483 112.023 86.9162C110.333 83.9497 108.884 80.7417 108.505 75.7399C108.056 69.7724 110.057 64.3567 113.817 60.4933C117.646 56.5609 123.234 54.1808 129.512 54.1808C135.79 54.1463 141.378 56.5609 145.207 60.4933Z" fill="#FFDB60"/>
<path fill-rule="evenodd" clip-rule="evenodd" d="M145.206 60.4933C148.966 64.3567 151.001 69.8068 150.553 75.7399C150.173 80.7416 148.725 83.9841 147.034 86.9162C145.344 89.8482 143.343 92.5043 141.826 96.4367C139.411 102.68 139.411 107.096 139.411 107.096C139.377 107.889 138.238 108.613 136.445 109.165C134.927 109.614 132.961 109.924 130.753 109.993C130.891 107.82 131.167 105.612 131.615 103.439C133.719 93.5736 139.618 89.1583 140.963 73.9462C142.309 58.7685 133.65 54.5602 133.616 54.5257C138.204 55.3191 142.24 57.4232 145.206 60.4933Z" fill="#F3BD01"/>
<path d="M126.337 111.166C126.337 111.131 126.751 102.025 126.233 98.3684C125.474 98.2994 124.647 98.0234 123.888 97.4025C122.611 96.3677 121.853 95.2294 121.508 94.2635C121.335 93.7806 121.266 93.3667 121.301 92.9872C121.335 92.5388 121.508 92.1938 121.818 91.9869C122.025 91.8489 122.266 91.7454 122.577 91.7454C123.474 91.7454 124.543 92.4353 125.44 93.6771C126.13 94.6085 126.716 95.8848 127.061 97.368C128.234 97.2301 129.2 96.5747 129.579 96.2987V97.4715C129.027 97.8165 128.165 98.1959 127.234 98.3339C127.751 102.163 127.337 111.2 127.337 111.2L126.337 111.166ZM125.992 97.3335C125.681 96.0917 125.164 95.0224 124.578 94.229C123.888 93.2632 123.129 92.7113 122.508 92.7113C122.404 92.7113 122.37 92.7458 122.301 92.7458C122.232 92.7803 122.197 92.8837 122.197 93.0562C122.163 93.2977 122.232 93.5736 122.335 93.9186C122.611 94.712 123.301 95.7123 124.44 96.6437C124.957 97.0576 125.474 97.2646 125.992 97.3335Z" fill="#111927"/>
<path d="M132.719 111.166C132.719 111.131 132.305 102.025 132.823 98.3684C133.581 98.2994 134.409 98.0234 135.168 97.4025C136.444 96.3677 137.203 95.2294 137.548 94.2635C137.721 93.7806 137.79 93.3667 137.755 92.9872C137.721 92.5388 137.548 92.1938 137.238 91.9869C137.031 91.8489 136.789 91.7454 136.479 91.7454C135.582 91.7454 134.513 92.4353 133.616 93.6771C132.926 94.6085 132.34 95.8848 131.995 97.368C130.822 97.2301 129.856 96.5747 129.477 96.2987V97.4715C130.028 97.8165 130.891 98.1959 131.822 98.3339C131.305 102.163 131.719 111.2 131.719 111.2L132.719 111.166ZM133.064 97.3335C133.374 96.0917 133.892 95.0224 134.478 94.229C135.168 93.2632 135.927 92.7113 136.548 92.7113C136.651 92.7113 136.686 92.7458 136.755 92.7458C136.824 92.7803 136.858 92.8837 136.858 93.0562C136.893 93.2977 136.824 93.5736 136.72 93.9186C136.444 94.712 135.755 95.7123 134.616 96.6437C134.099 97.0576 133.581 97.2646 133.064 97.3335Z" fill="#111927"/>
<path fill-rule="evenodd" clip-rule="evenodd" d="M58.2115 158.665C60.9711 155.285 68.9049 146.385 80.0122 140.245C90.2571 134.553 101.433 133.725 106.642 133.691C103.848 132.139 102.641 131.69 102.641 131.69C102.641 131.69 77.6665 129.862 54.8311 157.492C56.0039 157.872 57.1077 158.251 58.2115 158.665Z" fill="#1A2332"/>
<path fill-rule="evenodd" clip-rule="evenodd" d="M111.056 71.9455C112.505 62.356 122.543 55.2156 122.543 55.2156C119.162 56.2849 116.161 58.1131 113.85 60.4933C110.09 64.3567 108.055 69.8068 108.538 75.7399C108.917 80.7416 110.332 83.9841 112.056 86.9162C112.953 88.4339 113.919 89.9172 114.85 91.504C115.713 92.9527 116.541 94.5395 117.265 96.4367C117.369 96.7126 117.472 96.9886 117.576 97.2646C117.886 98.1269 118.162 98.9548 118.369 99.7482C118.369 99.7482 118.403 98.5064 118.093 96.7126C117.886 95.4019 117.472 93.7806 116.782 92.1249C116.575 91.6419 116.299 91.09 115.954 90.5036C113.781 86.5022 109.78 80.3277 111.056 71.9455Z" fill="white"/>
<path fill-rule="evenodd" clip-rule="evenodd" d="M148.173 74.2911C148.208 79.3963 146.621 82.9493 144.793 85.9848C144.724 86.1228 144.62 86.2608 144.551 86.3988C140.205 93.4012 136.894 100.335 137.032 108.993C138.48 108.475 139.377 107.82 139.412 107.13C139.412 107.13 139.412 102.715 141.826 96.4712C142.413 94.9879 143.034 93.6771 143.723 92.4698C144.62 90.8486 145.552 89.3998 146.449 87.951C146.656 87.6061 146.828 87.2956 147.035 86.9507C148.725 83.9841 150.174 80.7761 150.553 75.7744C151.002 69.8068 149.001 64.3912 145.207 60.5278C144.655 59.9414 144.068 59.4239 143.447 58.9065C143.413 58.872 148.104 63.9772 148.173 74.2911Z" fill="white"/>
<path fill-rule="evenodd" clip-rule="evenodd" d="M115.714 71.0142C113.782 84.7775 127.132 83.2943 128.27 67.9097C129.064 57.3888 117.163 60.7003 115.714 71.0142Z" fill="#FEFEFE"/>
<path fill-rule="evenodd" clip-rule="evenodd" d="M119.612 88.1235C124.269 88.7099 124.856 83.7771 119.543 83.4667C115.921 83.2942 116.094 87.675 119.612 88.1235Z" fill="#FEFEFE"/>
<path fill-rule="evenodd" clip-rule="evenodd" d="M66.386 138.037L65.4547 138.658L61.0049 133.036L66.3516 128.793L72.2156 127.24L76.9069 144.936L68.8007 147.075L66.386 138.037Z" fill="#111927"/>
<path d="M70.5603 144.039L67.9042 134.001L65.9725 135.312L64.4893 133.449L67.4903 131.069L70.4568 130.276L73.8718 143.177L70.5603 144.039Z" fill="white"/>
<path fill-rule="evenodd" clip-rule="evenodd" d="M168.973 158.32C168.386 159.907 167.455 161.425 165.868 162.149C164.281 162.908 162.522 162.701 160.935 162.115L157.52 160.907C155.934 160.321 154.416 159.389 153.691 157.803C152.933 156.216 153.14 154.457 153.726 152.87L155.796 147.109C156.382 145.523 157.313 144.005 158.9 143.28C160.487 142.522 162.246 142.729 163.833 143.315L167.248 144.522C168.835 145.109 170.352 146.04 171.077 147.627C171.836 149.214 171.629 150.973 171.042 152.559L168.973 158.32Z" fill="#111927"/>
<path d="M165.455 150.593C165.697 149.869 165.49 149.386 164.765 149.145L162.799 148.42C162.075 148.179 161.592 148.386 161.35 149.11L159.281 154.871C159.039 155.595 159.246 156.078 159.971 156.319L161.937 157.044C162.661 157.285 163.144 157.078 163.386 156.354L165.455 150.593ZM166.628 157.492C166.18 158.734 165.559 159.562 164.8 159.907C164.041 160.286 163.006 160.217 161.764 159.769L158.349 158.562C157.108 158.113 156.28 157.492 155.935 156.733C155.555 155.974 155.624 154.94 156.073 153.698L158.142 147.937C158.591 146.695 159.212 145.868 159.971 145.523C160.73 145.143 161.764 145.212 163.006 145.661L166.421 146.868C167.663 147.316 168.491 147.937 168.836 148.696C169.215 149.455 169.146 150.49 168.698 151.732L166.628 157.492Z" fill="white"/>
<path fill-rule="evenodd" clip-rule="evenodd" d="M170.594 97.6785C171.215 99.2652 171.491 100.99 170.766 102.611C170.076 104.232 168.593 105.198 167.006 105.819L163.626 107.13C162.039 107.751 160.314 108.027 158.693 107.302C157.072 106.613 156.106 105.129 155.485 103.543L153.243 97.851C152.622 96.2642 152.346 94.5395 153.071 92.9182C153.76 91.297 155.244 90.3311 156.83 89.7102L160.211 88.3994C161.798 87.7785 163.522 87.5026 165.144 88.2269C166.765 88.9168 167.731 90.4001 168.352 91.9869L170.594 97.6785Z" fill="#111927"/>
<path d="M162.867 94.1601C162.591 93.4357 162.108 93.2287 161.384 93.5047L159.417 94.2635C158.693 94.5395 158.486 95.0224 158.762 95.7468L161.004 101.438C161.28 102.163 161.763 102.37 162.488 102.094L164.454 101.335C165.178 101.059 165.385 100.576 165.109 99.8517L162.867 94.1601ZM168.283 98.5754C168.766 99.8172 168.835 100.818 168.49 101.611C168.145 102.404 167.351 103.025 166.109 103.508L162.729 104.819C161.487 105.302 160.487 105.371 159.693 105.026C158.9 104.681 158.279 103.888 157.796 102.646L155.589 97.0231C155.106 95.7813 155.037 94.781 155.382 93.9876C155.727 93.1942 156.52 92.5733 157.762 92.0904L161.142 90.7796C162.384 90.2967 163.384 90.2277 164.178 90.5726C164.971 90.9176 165.592 91.7109 166.075 92.9528L168.283 98.5754Z" fill="white"/>
<path fill-rule="evenodd" clip-rule="evenodd" d="M100.432 104.784L99.2939 104.888L98.0176 97.8165L104.779 96.6092L110.643 97.9889L106.469 115.823L98.2935 113.925L100.432 104.784Z" fill="#111927"/>
<path d="M101.261 112.063L103.641 101.956L101.33 102.197L100.916 99.8517L104.71 99.1618L107.677 99.8517L104.607 112.856L101.261 112.063Z" fill="white"/>
<path fill-rule="evenodd" clip-rule="evenodd" d="M113.15 188.949C111.46 188.673 109.838 187.983 108.838 186.534C107.838 185.085 107.734 183.326 108.045 181.67L108.666 178.117C108.942 176.427 109.631 174.806 111.08 173.806C112.529 172.805 114.288 172.702 115.944 173.012L121.946 174.047C123.636 174.323 125.258 175.013 126.258 176.462C127.258 177.91 127.362 179.67 127.051 181.325L126.43 184.878C126.154 186.569 125.465 188.19 124.016 189.19C122.567 190.191 120.808 190.294 119.152 189.984L113.15 188.949Z" fill="#111927"/>
<path d="M120.187 184.154C120.946 184.292 121.394 183.982 121.498 183.223L121.843 181.153C121.981 180.394 121.67 179.946 120.911 179.842L114.909 178.807C114.15 178.669 113.702 178.98 113.599 179.739L113.254 181.808C113.116 182.567 113.426 183.016 114.185 183.119L120.187 184.154ZM113.599 186.5C112.288 186.258 111.391 185.81 110.908 185.12C110.425 184.43 110.287 183.43 110.528 182.084L111.149 178.531C111.391 177.221 111.839 176.324 112.529 175.841C113.219 175.358 114.219 175.22 115.565 175.461L121.567 176.496C122.878 176.738 123.774 177.186 124.257 177.876C124.74 178.566 124.878 179.566 124.637 180.912L124.016 184.464C123.774 185.775 123.326 186.672 122.636 187.155C121.946 187.638 120.946 187.776 119.601 187.534L113.599 186.5Z" fill="white"/>
<path fill-rule="evenodd" clip-rule="evenodd" d="M120.577 142.591L119.508 142.936L116.817 136.278L123.164 133.725L129.235 133.863L128.753 152.18L120.336 151.973L120.577 142.591Z" fill="#111927"/>
<path d="M122.887 149.524L123.163 139.141L120.955 139.865L120.059 137.658L123.612 136.209L126.682 136.278L126.337 149.627L122.887 149.524Z" fill="white"/>
<path fill-rule="evenodd" clip-rule="evenodd" d="M86.3579 82.1904C86.4614 82.9148 87.1513 83.4322 87.9102 83.2942L99.6039 81.4315C100.328 81.328 100.846 80.6382 100.708 79.8793C100.604 79.1549 99.9143 78.6375 99.1555 78.7754L87.4618 80.6382C86.7719 80.7761 86.2544 81.466 86.3579 82.1904ZM149.38 33.415C148.724 33.1045 147.896 33.3805 147.586 34.0704L142.515 44.7637C142.205 45.4191 142.481 46.247 143.171 46.5574C143.826 46.8679 144.654 46.5919 144.964 45.902L150.035 35.2087C150.346 34.5188 150.035 33.7254 149.38 33.415ZM165.696 46.4195C165.247 45.833 164.419 45.6951 163.833 46.109L154.209 53.0079C153.623 53.4564 153.485 54.2842 153.898 54.8706C154.347 55.4571 155.175 55.595 155.761 55.1811L165.385 48.2822C166.006 47.8682 166.144 47.0059 165.696 46.4195ZM172.629 63.7013C172.526 62.9769 171.836 62.4595 171.077 62.563L159.349 64.3567C158.624 64.4602 158.107 65.1501 158.21 65.9089C158.314 66.6333 159.004 67.1507 159.763 67.0473L171.491 65.2535C172.25 65.1501 172.733 64.4602 172.629 63.7013ZM172.94 82.1904C173.043 81.466 172.56 80.7761 171.836 80.6382L160.142 78.7754C159.418 78.672 158.728 79.1549 158.59 79.8793C158.486 80.6037 158.969 81.2936 159.694 81.4315L171.387 83.2942C172.146 83.4322 172.836 82.9148 172.94 82.1904ZM129.683 30C128.959 30 128.338 30.5864 128.338 31.3453L128.303 43.2115C128.303 43.9358 128.89 44.5567 129.649 44.5567C130.373 44.5567 130.994 43.9703 130.994 43.2115L131.029 31.3453C131.029 30.6209 130.408 30 129.683 30ZM109.918 33.415C109.262 33.7254 108.952 34.5533 109.262 35.2087L114.333 45.902C114.644 46.5574 115.471 46.8679 116.127 46.5574C116.782 46.247 117.093 45.4191 116.782 44.7637L111.712 34.0704C111.401 33.3805 110.608 33.1045 109.918 33.415ZM93.6018 46.4195C93.1534 47.0059 93.3259 47.8682 93.9123 48.2822L103.536 55.1811C104.123 55.6295 104.985 55.4571 105.399 54.8706C105.847 54.2842 105.675 53.4219 105.089 53.0079L95.4645 46.109C94.8781 45.6606 94.0502 45.833 93.6018 46.4195ZM86.6684 63.7013C86.5649 64.4257 87.0478 65.1156 87.8067 65.2535L99.5349 67.0473C100.259 67.1507 100.949 66.6678 101.087 65.9089C101.191 65.1845 100.708 64.4947 99.9488 64.3567L88.2207 62.563C87.4963 62.4595 86.8064 62.9769 86.6684 63.7013Z" fill="#FFDB60"/>
</svg>
