<svg width="195" height="92" viewBox="0 0 195 92" fill="none" xmlns="http://www.w3.org/2000/svg">
<path d="M159.666 55.3208C159.666 53.3095 161.334 51.6415 163.345 51.6415C165.357 51.6415 167.024 53.3095 167.024 55.3208C167.024 57.3321 165.357 59 163.345 59C161.334 59 159.666 57.3321 159.666 55.3208Z" fill="white"/>
<path d="M49.1434 45.3131C49.1434 49.5811 48.0151 52.8188 45.7094 55.1244C43.4037 57.4301 40.2151 58.5584 36.0453 58.5584H28V33.049H36.6339C40.6075 33.049 43.6981 34.0792 45.9056 36.1886C48.0151 38.3471 49.1434 41.3396 49.1434 45.3131ZM42.1283 45.5584C42.1283 43.2037 41.6868 41.4867 40.7547 40.3584C39.8717 39.2301 38.4981 38.6905 36.6339 38.6905H34.6717V52.966H36.1924C38.2528 52.966 39.7245 52.3773 40.7056 51.1509C41.6868 49.9245 42.1283 48.0603 42.1283 45.5584Z" fill="white"/>
<path d="M77.8405 33H71.4141V58.6075H77.8405V33Z" fill="white"/>
<path d="M98.8354 49.0414C98.8354 52.132 98.0014 54.5848 96.3825 56.3018C94.7637 58.0188 92.458 58.9018 89.5146 58.9018C86.7184 58.9018 84.4618 58.0188 82.7939 56.2527C81.126 54.4867 80.292 52.0829 80.292 49.0414C80.292 45.9509 81.126 43.5471 82.7448 41.8301C84.3637 40.1131 86.6693 39.2792 89.6127 39.2792C91.4278 39.2792 93.0467 39.6716 94.4693 40.4565C95.892 41.2414 96.9222 42.3697 97.7071 43.8905C98.492 45.3131 98.8354 47.0792 98.8354 49.0414ZM86.8165 49.0414C86.8165 50.6603 87.0127 51.9358 87.4542 52.7697C87.8958 53.6037 88.5825 54.0452 89.6127 54.0452C90.5939 54.0452 91.3297 53.6037 91.7222 52.7697C92.1146 51.9358 92.3599 50.6603 92.3599 49.0414C92.3599 47.4226 92.1637 46.1961 91.7222 45.3622C91.3297 44.5282 90.5939 44.1358 89.6127 44.1358C88.6316 44.1358 87.9448 44.5282 87.5033 45.3622C87.0618 46.1961 86.8165 47.4226 86.8165 49.0414Z" fill="white"/>
<path d="M107.817 39.5737H101.391V58.6076H107.817V39.5737Z" fill="white"/>
<path d="M107.817 33H101.391V37.2679H107.817V33Z" fill="white"/>
<path d="M120.766 53.7509C121.649 53.7509 122.68 53.5546 123.857 53.1131V57.9207C122.974 58.3131 122.189 58.5584 121.404 58.7546C120.619 58.9018 119.687 58.9999 118.657 58.9999C116.499 58.9999 114.978 58.4603 113.997 57.381C113.065 56.3018 112.574 54.6339 112.574 52.4263V44.5773H110.317V39.6716H112.574V34.7169L119.049 33.5886V39.5735H123.121V44.4792H119.049V51.8867C119.049 53.1131 119.638 53.7509 120.766 53.7509Z" fill="white"/>
<path d="M135.631 53.7508C136.514 53.7508 137.544 53.5545 138.721 53.113V57.9206C137.838 58.313 137.053 58.5583 136.268 58.7545C135.484 58.9017 134.551 58.9998 133.521 58.9998C131.363 58.9998 129.842 58.4602 128.861 57.381C127.929 56.3017 127.438 54.6338 127.438 52.4262V44.5772H125.182V39.6716H127.438V34.7659L133.914 33.7357V39.7206H137.985V44.6263H133.914V52.0338C133.865 53.113 134.453 53.7508 135.631 53.7508Z" fill="white"/>
<path d="M155.839 41.4868C154.318 40.0151 152.16 39.2302 149.364 39.2302C146.42 39.2302 144.164 40.0641 142.594 41.8302C141.024 43.5471 140.239 46 140.239 49.2377C140.239 52.3283 141.073 54.732 142.79 56.449C144.507 58.1169 146.911 58.9509 150.002 58.9509C151.473 58.9509 152.749 58.8528 153.828 58.6565C154.907 58.4603 155.937 58.1169 156.918 57.5773L155.937 53.3094C155.201 53.6037 154.515 53.849 153.877 53.9962C152.945 54.1924 151.915 54.3396 150.786 54.3396C149.56 54.3396 148.579 54.0452 147.843 53.4566C147.107 52.8679 146.764 52.0339 146.715 50.9547H158.145V48.0603C158.096 45.1169 157.36 42.9585 155.839 41.4868ZM146.813 46.7358C146.911 45.7056 147.205 44.9207 147.696 44.4302C148.186 43.9396 148.824 43.6943 149.609 43.6943C150.443 43.6943 151.081 43.9886 151.571 44.5283C152.062 45.0679 152.307 45.8037 152.356 46.7358H146.813Z" fill="white"/>
<path d="M66.6566 41.4868C65.1359 40.0151 62.9774 39.2302 60.1812 39.2302C57.2378 39.2302 54.9812 40.0641 53.4114 41.8302C51.8415 43.5471 51.0566 46 51.0566 49.2377C51.0566 52.3283 51.8906 54.732 53.6076 56.449C55.3246 58.1169 57.7283 58.9509 60.8189 58.9509C62.2906 58.9509 63.5661 58.8528 64.6453 58.6565C65.7245 58.4603 66.7547 58.1169 67.7359 57.5773L66.7547 53.3094C66.0189 53.6037 65.3321 53.849 64.6944 53.9962C63.7623 54.1924 62.7321 54.3396 61.6038 54.3396C60.3774 54.3396 59.3962 54.0452 58.6604 53.4566C57.9246 52.8679 57.5812 52.0339 57.5321 50.9547H68.9623V48.0603C68.9623 45.1169 68.1774 42.9585 66.6566 41.4868ZM57.6302 46.7358C57.7283 45.7056 58.0227 44.9207 58.5132 44.4302C59.0038 43.9396 59.6415 43.6943 60.4264 43.6943C61.2604 43.6943 61.8981 43.9886 62.3887 44.5283C62.8793 45.0679 63.1245 45.8037 63.1736 46.7358H57.6302Z" fill="white"/>
</svg>
