<svg width="195" height="92" viewBox="0 0 195 92" fill="none" xmlns="http://www.w3.org/2000/svg">
<path fill-rule="evenodd" clip-rule="evenodd" d="M106.967 22L90.8674 47.4399H73.4002L77.3602 41.152H88.2754L92.2306 34.8592H67.9426L63.9874 41.152H69.853L61.957 53.7183H94.549L106.967 33.8944L111.469 41.1424H107.514L103.554 47.4399H115.424L119.384 53.7279H126.886L106.967 22Z" fill="white"/>
<path fill-rule="evenodd" clip-rule="evenodd" d="M101.646 22.2733H75.88L71.9248 28.5613H97.7104L101.646 22.2733Z" fill="white"/>
<path fill-rule="evenodd" clip-rule="evenodd" d="M68.8991 59.0511V60.8271H70.6751V60.0063C70.6751 57.8223 69.8543 57.2751 67.6703 57.2751H64.1232C61.9392 57.2751 61.2432 57.9567 61.2432 60.2799V61.3599C61.2432 63.6831 61.9248 64.2399 64.1232 64.2399H68.9231V67.9311H63.168V66.0111H61.248V66.8319C61.248 69.0159 61.9296 69.7119 64.128 69.7119H67.9679C70.1519 69.7119 70.8479 69.0255 70.8479 66.8319V65.3247C70.8479 63.1407 70.1663 62.4447 67.9679 62.4447H63.168V59.0271L68.8991 59.0511ZM113.515 59.0511H117.744V57.2751H107.376V59.0511H111.47V69.7167H113.515V59.0511ZM126.614 59.0511V60.8271H128.39V60.0063C128.39 57.8223 127.569 57.2751 125.51 57.2751H121.958C119.635 57.2751 119.078 57.9567 119.078 60.2799V61.3599C119.078 63.6831 119.621 64.2399 121.958 64.2399H126.758V67.9311H120.475V66.0111H118.555V66.8319C118.555 69.0159 119.237 69.7119 121.435 69.7119H125.664C127.982 69.7119 128.544 69.0255 128.544 66.8319V65.3247C128.544 63.1407 127.997 62.4447 125.664 62.4447H120.864V59.0271L126.614 59.0511Z" fill="white"/>
<path d="M113.8 70H111.189V59.3344H107.08V56.9872H118.019V59.3344H113.8V70ZM111.755 69.4288H113.234V58.768H117.462V57.5584H107.661V58.768H111.755V69.4288ZM125.675 70H121.432C120.218 70 119.459 69.784 118.979 69.2992C118.499 68.8144 118.283 68.0608 118.283 66.8464V65.7376H120.76V67.6576H126.467V64.5376H121.96C120.64 64.5376 119.915 64.3504 119.454 63.8896C118.994 63.4288 118.806 62.704 118.806 61.3792V60.2848C118.806 58.9504 118.994 58.2064 119.445 57.7168C119.896 57.2272 120.664 56.992 121.96 56.992H125.507C126.693 56.992 127.427 57.1792 127.907 57.6112C128.387 58.0432 128.67 58.8208 128.67 60.0112V61.12H126.328V59.3392H121.168V62.1904H125.661C126.947 62.1904 127.696 62.4016 128.166 62.8912C128.637 63.3808 128.81 64.0768 128.81 65.344V66.8512C128.81 68.1136 128.622 68.824 128.166 69.304C127.71 69.784 126.947 70 125.661 70H125.675ZM118.864 66.3088V66.8464C118.864 68.8768 119.421 69.4288 121.446 69.4288H125.675C127.773 69.4288 128.258 68.9488 128.258 66.8464V65.3392C128.258 63.2368 127.778 62.752 125.675 62.752H120.602V58.768H126.616V59.0512H126.899V60.544H128.104V60.0064C128.104 58.9936 127.931 58.384 127.538 58.0336C127.144 57.6832 126.549 57.5536 125.526 57.5536H121.96C120.842 57.5536 120.213 57.7168 119.862 58.096C119.512 58.4752 119.382 59.1184 119.382 60.2752V61.36C119.382 62.5168 119.522 63.1264 119.862 63.4672C120.203 63.808 120.822 63.9472 121.965 63.9472H127.024V68.2096H120.194V66.2896L118.864 66.3088ZM67.984 70H64.144C62.9296 70 62.176 69.784 61.6912 69.2992C61.2064 68.8144 61 68.08 61 66.8464V65.7376H63.4816V67.6576H68.6416V64.5376H64.1488C62.8864 64.5376 62.176 64.3504 61.7008 63.8944C61.2256 63.4384 61 62.6608 61 61.36V60.2656C61 58.9696 61.2064 58.2016 61.696 57.6928C62.1856 57.184 62.9152 56.9728 64.1488 56.9728H67.696C68.9536 56.9728 69.7024 57.16 70.2016 57.592C70.7008 58.024 70.984 58.7968 70.984 59.992V61.1008H68.6416V59.32H63.4576V62.1712H67.9456C69.16 62.1712 69.9184 62.3872 70.3984 62.8672C70.8784 63.3472 71.0944 64.1104 71.0944 65.3248V66.832C71.0944 68.0464 70.8832 68.8048 70.3984 69.2848C69.9136 69.7648 69.16 70 67.9456 70H67.984ZM61.5856 66.3088V66.8464C61.5856 68.8768 62.1376 69.4288 64.1632 69.4288H68.0032C70.0288 69.4288 70.5856 68.8768 70.5856 66.8464V65.3392C70.5856 63.3088 70.0288 62.752 68.0032 62.752H62.8864V58.768H68.9008V59.0512H69.1888V60.544H70.3888V60.0064C70.3888 58.9888 70.2112 58.384 69.808 58.0384C69.4048 57.6928 68.7808 57.5584 67.672 57.5584H64.1248C63.0736 57.5584 62.4448 57.7264 62.08 58.1056C61.7152 58.4848 61.5472 59.1616 61.5472 60.28V61.36C61.5472 63.4624 62.0272 63.9472 64.1248 63.9472H69.1888V68.2096H62.8864V66.2896L61.5856 66.3088Z" fill="white"/>
<path fill-rule="evenodd" clip-rule="evenodd" d="M72.585 69.7168H74.6298V64.9168H79.5402C81.3161 64.9168 82.1321 64.2304 82.1321 62.4544V59.7185C82.1321 57.9425 81.3161 57.2609 79.5402 57.2609H72.585V69.7168ZM78.7241 58.9121C79.6841 58.9121 80.0874 59.1857 80.0874 60.1457V61.9216C80.0874 63.016 79.6793 63.2896 78.7241 63.2896H74.6298V58.9121H78.7241Z" fill="white"/>
<path d="M74.9197 70.0001H72.3037V56.9873H79.5469C80.3209 56.9206 81.0913 57.1505 81.7021 57.6305C81.9644 57.91 82.1646 58.2418 82.2895 58.6041C82.4144 58.9665 82.4612 59.3511 82.4269 59.7329V62.4689C82.4613 62.8513 82.4145 63.2368 82.2896 63.5999C82.1647 63.963 81.9645 64.2957 81.7021 64.5761C81.0895 65.0522 80.32 65.2801 79.5469 65.2145H74.9197V70.0001ZM72.8749 69.4289H74.3533V64.6289H79.5469C80.1762 64.6911 80.8064 64.5203 81.3181 64.1489C81.5194 63.9195 81.671 63.651 81.7635 63.3603C81.856 63.0695 81.8874 62.7627 81.8557 62.4593V59.7233C81.887 59.4206 81.8555 59.1146 81.7629 58.8247C81.6704 58.5348 81.519 58.2671 81.3181 58.0385C80.8076 57.6645 80.1764 57.4935 79.5469 57.5585H72.8749V69.4289ZM78.7309 63.5729H74.3533V58.6289H78.7309C79.1649 58.5862 79.5997 58.7022 79.9549 58.9553C80.1111 59.1085 80.2304 59.2954 80.3036 59.5017C80.3768 59.708 80.402 59.9282 80.3773 60.1457V61.9217C80.3725 63.2801 79.7197 63.5729 78.7261 63.5729H78.7309ZM74.9197 63.0065H78.7309C79.5421 63.0065 79.8109 62.8481 79.8109 61.9217V60.1457C79.8109 59.3921 79.5853 59.1857 78.7309 59.1857H74.9197V63.0065Z" fill="white"/>
<path fill-rule="evenodd" clip-rule="evenodd" d="M83.7741 60.2798V66.8414C83.7741 69.0302 84.4557 69.7214 86.6541 69.7214H91.6989C93.8829 69.7214 94.5789 69.035 94.5789 66.8414V60.2798C94.5789 57.9566 93.8973 57.275 91.6989 57.275H86.6349C84.4557 57.275 83.7549 57.9566 83.7549 60.2798H83.7741ZM85.8189 67.9358V58.9118H92.5053V67.9358H85.8189Z" fill="white"/>
<path d="M91.6867 69.9997H86.6419C85.4275 69.9997 84.6691 69.7837 84.1891 69.2989C83.7091 68.8141 83.4883 68.0605 83.4883 66.8413V60.2797C83.4883 58.9837 83.6947 58.2157 84.1843 57.7069C84.6739 57.1981 85.4035 56.9869 86.6371 56.9869H91.6867C92.9251 56.9869 93.6595 57.2029 94.1443 57.7069C94.6291 58.2109 94.8355 58.9837 94.8355 60.2797V66.8413C94.8355 68.0605 94.6243 68.8189 94.1395 69.2989C93.6547 69.7789 92.9011 69.9997 91.6867 69.9997ZM86.6371 57.5581C85.5859 57.5581 84.9571 57.7261 84.5923 58.1005C84.2275 58.4749 84.0595 59.1613 84.0595 60.2797V66.8413C84.0595 68.8717 84.6115 69.4285 86.6419 69.4285H91.6867C93.7123 69.4285 94.2691 68.8717 94.2691 66.8413V60.2797C94.2691 59.1613 94.1011 58.4893 93.7315 58.1005C93.3619 57.7117 92.7427 57.5581 91.6867 57.5581H86.6371ZM92.7907 68.2237H85.5379V58.6237H92.7907V68.2237ZM86.1043 67.6525H92.2003V59.1997H86.1043V67.6525Z" fill="white"/>
<path fill-rule="evenodd" clip-rule="evenodd" d="M96.4629 69.7168H98.6469V64.9168H99.1941L104.239 69.7168H107.378L101.647 64.9168H103.567C105.343 64.9168 106.159 64.2304 106.159 62.4544V59.7185C106.159 57.9425 105.343 57.2609 103.567 57.2609H96.4629V69.7168ZM102.76 58.9121C103.576 58.9121 103.984 59.1857 103.984 60.1457V62.0656C103.984 63.0256 103.576 63.2944 102.76 63.2944H98.6661V58.9121H102.76Z" fill="white"/>
<path d="M108.163 70.0001H104.126L99.0768 65.2001H98.9184V70.0001H96.168V56.9873H103.546C104.32 56.9206 105.09 57.1505 105.701 57.6305C105.963 57.91 106.163 58.2418 106.288 58.6041C106.413 58.9665 106.46 59.3511 106.426 59.7329V62.4689C106.46 62.8513 106.413 63.2368 106.288 63.5999C106.163 63.963 105.963 64.2957 105.701 64.5761C105.088 65.0522 104.319 65.2801 103.546 65.2145H102.422L108.163 70.0001ZM104.352 69.4289H106.598L100.867 64.6289H103.56C105.221 64.6289 105.869 64.0193 105.869 62.4545V59.7185C105.9 59.4158 105.869 59.1098 105.776 58.8199C105.683 58.53 105.532 58.2623 105.331 58.0337C104.821 57.6597 104.189 57.4887 103.56 57.5537H96.744V69.4241H98.3568V64.6241H99.3168L104.352 69.4289ZM102.758 63.5729H98.376V58.6289H102.758C103.805 58.6289 104.27 59.1089 104.27 60.1457V62.0657C104.251 63.1073 103.786 63.5729 102.758 63.5729ZM98.9184 63.0065H102.758C103.488 63.0065 103.718 62.7905 103.718 62.0465V60.1265C103.718 59.3921 103.507 59.1665 102.758 59.1665H98.9184V63.0065Z" fill="white"/>
<path fill-rule="evenodd" clip-rule="evenodd" d="M130.436 59.5984H129.889V57.5488H129.342V57.0016H130.983V57.5488H130.436V59.5984ZM133.163 58.096L132.62 59.7328H132.347L131.799 58.096L131.526 59.5984H130.983L131.391 57.0016H131.799L132.481 58.6384L133.163 57.0016H133.575L133.983 59.5984H133.436L133.163 58.096V58.096Z" fill="white"/>
</svg>
