<svg width="195" height="92" viewBox="0 0 195 92" fill="none" xmlns="http://www.w3.org/2000/svg">
<path d="M57.7171 28.5022H51V35.2193H57.7171V28.5022Z" fill="white"/>
<path d="M57.5485 63.498V39.2829H51.166V63.4741H57.5485V63.498ZM99.8114 63.7371V57.8088C98.8792 57.8088 98.0903 57.761 97.5166 57.6653C96.8473 57.5697 96.3453 57.3307 96.0106 56.996C95.676 56.6614 95.4608 56.1833 95.3413 55.5379C95.2457 54.9402 95.1979 54.1514 95.1979 53.1952V44.757H99.8114V39.2829H95.1979V29.8645H88.8154V53.2669C88.8154 55.251 88.9827 56.9243 89.3174 58.2629C89.6521 59.5777 90.2258 60.6534 91.0146 61.4661C91.8035 62.2789 92.8553 62.8526 94.1222 63.2112C95.413 63.5697 97.0385 63.7371 98.9748 63.7371H99.8114ZM136.337 63.498V28H129.955V63.498H136.337ZM82.672 41.6733C80.9031 39.761 78.417 38.8048 75.2616 38.8048C73.7317 38.8048 72.3214 39.1155 71.0784 39.7371C69.8114 40.3586 68.7596 41.2191 67.8991 42.3187L67.5644 42.7729V42.3665V39.2829H61.2776V63.4741H67.6122V50.5896V51.4741C67.6122 51.3307 67.6122 51.1873 67.6122 51.0438C67.6839 48.7729 68.2337 47.0996 69.2855 46.0239C70.409 44.8765 71.7716 44.3028 73.3254 44.3028C75.166 44.3028 76.5764 44.8765 77.5086 45.9761C78.417 47.0757 78.8951 48.6295 78.8951 50.6135V50.6853V63.4741H85.3254V49.753C85.3493 46.3108 84.4409 43.5857 82.672 41.6733ZM126.656 51.3546C126.656 49.6096 126.345 47.9841 125.748 46.4542C125.126 44.9482 124.266 43.6096 123.19 42.4622C122.09 41.3147 120.776 40.4303 119.246 39.7849C117.716 39.1394 116.019 38.8287 114.178 38.8287C112.433 38.8287 110.784 39.1633 109.254 39.8088C107.724 40.4781 106.385 41.3626 105.262 42.4861C104.138 43.6096 103.23 44.9482 102.584 46.4781C101.915 48.008 101.604 49.6574 101.604 51.4024C101.604 53.1474 101.915 54.7968 102.537 56.3267C103.158 57.8566 104.043 59.1952 105.142 60.3187C106.242 61.4422 107.604 62.3506 109.182 62.996C110.76 63.6653 112.505 64 114.369 64C119.772 64 123.118 61.5378 125.126 59.243L120.537 55.753C119.58 56.9004 117.286 58.4542 114.417 58.4542C112.624 58.4542 111.142 58.0478 110.019 57.2112C108.895 56.3984 108.13 55.251 107.724 53.8406L107.652 53.6255H126.656V51.3546ZM107.7 49.1315C107.7 47.3626 109.732 44.2789 114.106 44.255C118.481 44.255 120.537 47.3386 120.537 49.1076L107.7 49.1315ZM143.604 60.4382C143.485 60.1514 143.317 59.9123 143.102 59.6972C142.887 59.4821 142.648 59.3147 142.361 59.1952C142.074 59.0757 141.764 59.004 141.453 59.004C141.118 59.004 140.831 59.0757 140.544 59.1952C140.258 59.3147 140.019 59.4821 139.803 59.6972C139.588 59.9123 139.421 60.1514 139.301 60.4382C139.182 60.7251 139.11 61.0359 139.11 61.3466C139.11 61.6813 139.182 61.9681 139.301 62.255C139.421 62.5418 139.588 62.7809 139.803 62.996C140.019 63.2112 140.258 63.3785 140.544 63.498C140.831 63.6175 141.142 63.6892 141.453 63.6892C141.788 63.6892 142.074 63.6175 142.361 63.498C142.648 63.3785 142.887 63.2112 143.102 62.996C143.317 62.7809 143.485 62.5418 143.604 62.255C143.724 61.9681 143.795 61.6574 143.795 61.3466C143.795 61.0359 143.724 60.7251 143.604 60.4382ZM143.222 62.1116C143.126 62.3506 142.983 62.5657 142.815 62.7331C142.648 62.9004 142.433 63.0438 142.194 63.1394C141.955 63.2351 141.716 63.2829 141.429 63.2829C141.166 63.2829 140.903 63.2351 140.664 63.1394C140.425 63.0438 140.21 62.9004 140.043 62.7331C139.875 62.5657 139.732 62.3506 139.636 62.1116C139.541 61.8725 139.493 61.6335 139.493 61.3466C139.493 61.0837 139.541 60.8207 139.636 60.5817C139.732 60.3426 139.875 60.1275 140.043 59.9602C140.21 59.7928 140.425 59.6494 140.664 59.5538C140.903 59.4582 141.142 59.4104 141.429 59.4104C141.692 59.4104 141.955 59.4582 142.194 59.5538C142.433 59.6494 142.648 59.7928 142.815 59.9602C142.983 60.1275 143.126 60.3426 143.222 60.5817C143.317 60.8207 143.365 61.0598 143.365 61.3466C143.365 61.6335 143.317 61.8725 143.222 62.1116ZM141.883 61.5618C142.074 61.5378 142.218 61.4661 142.337 61.3466C142.457 61.2271 142.529 61.0598 142.529 60.8207C142.529 60.5578 142.457 60.3665 142.29 60.2231C142.146 60.0797 141.883 60.008 141.572 60.008H140.521V62.7092H141.023V61.6096H141.381L142.05 62.7092H142.576L141.883 61.5618ZM141.62 61.1554C141.548 61.1554 141.477 61.1554 141.381 61.1554H141.023V60.3904H141.381C141.453 60.3904 141.525 60.3904 141.62 60.3904C141.692 60.3904 141.764 60.4143 141.835 60.4382C141.907 60.4622 141.955 60.51 141.979 60.5578C142.027 60.6056 142.027 60.6773 142.027 60.7729C142.027 60.8685 142.003 60.9402 141.979 60.988C141.931 61.0359 141.883 61.0837 141.835 61.1076C141.764 61.1315 141.692 61.1554 141.62 61.1554Z" fill="white"/>
</svg>
