<svg width="195" height="92" viewBox="0 0 195 92" fill="none" xmlns="http://www.w3.org/2000/svg">
<path d="M134.553 40.6883C133.868 39.4699 132.107 37.9287 129.275 37.9287C124.878 37.9287 121.324 41.2853 121.324 46.2013C121.324 50.6056 124.266 54.4982 129.275 54.4982C131.471 54.4982 133.556 53.5906 134.553 51.7691V54.017H138.29V38.41H134.553V40.6883ZM134.553 46.3414C134.511 47.1059 134.302 47.8521 133.942 48.5283C133.57 49.2997 132.982 49.9469 132.248 50.3914C131.514 50.8359 130.666 51.0584 129.807 51.032C129.179 51.0402 128.556 50.9231 127.974 50.6875C127.393 50.4519 126.864 50.1027 126.42 49.6604C125.976 49.2181 125.625 48.6917 125.389 48.1122C125.152 47.5328 125.035 46.912 125.043 46.2866V46.2866C125.018 45.6528 125.122 45.0206 125.35 44.4282C125.577 43.8358 125.923 43.2955 126.366 42.84C126.809 42.3844 127.34 42.0231 127.928 41.7779C128.515 41.5327 129.146 41.4086 129.783 41.4132C130.705 41.3824 131.615 41.6293 132.394 42.1216C133.173 42.6139 133.785 43.3287 134.15 44.1727C134.461 44.8523 134.607 45.5951 134.578 46.3414H134.553Z" fill="white"/>
<path d="M147.939 41.3947C148.849 41.3711 149.744 41.6291 150.501 42.1331C151.258 42.6371 151.839 43.3623 152.165 44.209H155.988C155.484 42.2702 154.288 40.5809 152.623 39.4576C150.958 38.3343 148.94 37.8541 146.945 38.1071C144.95 38.36 143.117 39.3286 141.788 40.8315C140.459 42.3344 139.726 44.2684 139.726 46.2711C139.726 48.2738 140.459 50.2078 141.788 51.7107C143.117 53.2136 144.95 54.1822 146.945 54.4351C148.94 54.6881 150.958 54.2079 152.623 53.0846C154.288 51.9613 155.484 50.272 155.988 48.3332H152.165C151.812 49.15 151.22 49.8416 150.466 50.3177C149.712 50.7938 148.831 51.032 147.939 51.0013C145.291 51.0013 143.321 49.0093 143.321 46.201C143.298 44.9273 143.754 43.6909 144.6 42.7348C145.032 42.2925 145.552 41.9449 146.127 41.7141C146.702 41.4833 147.319 41.3746 147.939 41.3947Z" fill="white"/>
<path d="M102.072 38.41L97.8578 49.162L93.9435 38.41H89.7295L94.8854 51.3245L95.9618 54.0171C94.8059 57.1909 93.8885 56.9837 91.968 56.7401V59.8591C92.8718 60.0573 93.7948 60.1554 94.7203 60.1515C97.4542 60.1515 98.5184 57.7696 99.4113 55.5278C100.133 53.7003 106.017 38.41 106.017 38.41H102.072Z" fill="white"/>
<path d="M84.342 41.6565C80.1831 40.4382 79.6204 39.5609 79.6204 38.4157C79.6204 37.2704 80.7335 35.979 83.235 35.979C85.7365 35.979 89.0453 37.3375 89.0453 37.3375V33.6215C87.0645 32.9387 84.9825 32.5927 82.8864 32.5981C78.2259 32.5981 75.5898 34.852 75.5898 38.4522C75.5898 42.3449 77.6754 43.9348 82.6907 45.2019C85.975 46.0426 86.2442 47.3888 86.2442 48.2478C86.2442 49.1067 85.6937 50.9464 82.6356 50.9464C80.3612 50.8461 78.1217 50.3514 76.018 49.4844V53.1394C78.2359 53.9299 80.5802 54.3098 82.9353 54.2603C87.9995 54.2603 90.3787 51.714 90.3787 48.0224C90.3787 44.3308 88.501 42.8566 84.342 41.6565Z" fill="white"/>
<path d="M112.844 37.7151C108.905 37.7151 105.438 40.895 105.438 44.8241V54.0166H109.156V44.7206C109.156 42.8443 110.954 41.3214 112.826 41.3214C114.697 41.3214 116.495 42.8443 116.495 44.7206V54.0166H120.214V44.8241C120.251 40.895 116.789 37.7151 112.844 37.7151Z" fill="white"/>
<path d="M157.147 31.8491H160.884V45.1352L166.059 38.416H170.756L164.774 45.7688L170.786 54.017H166.346L162.42 48.3517L160.884 50.2949V54.017H157.147V31.8491Z" fill="white"/>
<path d="M46.8011 29.4796L42.6055 36.7166H50.9968L46.8011 29.4796Z" fill="white"/>
<path d="M35.0641 33.4755L24 27L25.8348 32.7871L33.1742 37.0514L33.2415 37.0879C35.8408 38.355 37.8469 40.676 39.2292 44.0081L27.1315 36.9295L28.9663 42.7228L45.223 52.2685C44.6725 46.1524 42.5563 37.1793 35.0641 33.4755Z" fill="white"/>
<path d="M30.1719 46.5664L32.0006 52.3596L42.7711 58.6829L40.0861 60.2606L40.08 65L46.8016 61.0526L53.5294 65L53.5233 60.2606L50.8322 58.6829L61.6027 52.3596L63.4314 46.5664L46.8016 56.3193L30.1719 46.5664Z" fill="white"/>
<path d="M60.4115 37.0884L60.4788 37.0519L67.7814 32.7877L69.6163 27.0066L58.5461 33.4821C51.0599 37.1859 48.9376 46.159 48.3994 52.2751L64.65 42.7294L66.4848 36.9361L54.436 44.0147C55.8061 40.6825 57.8121 38.3555 60.4115 37.0884Z" fill="white"/>
</svg>
